<svg width="16" height="16" viewBox="0 0 16 16" fill="none" xmlns="http://www.w3.org/2000/svg">
<path d="M14.9367 14.3399L11.5054 10.9085C12.4258 9.85032 12.9831 8.46963 12.9831 6.96058C12.9831 3.63879 10.2812 0.940033 6.96255 0.940033C3.64076 0.940033 0.942005 3.64192 0.942005 6.96058C0.942005 10.2792 3.64389 12.9811 6.96255 12.9811C8.4716 12.9811 9.85229 12.4238 10.9105 11.5034L14.3419 14.9348C14.4233 15.0162 14.5328 15.06 14.6393 15.06C14.7457 15.06 14.8553 15.0193 14.9367 14.9348C15.0995 14.7719 15.0995 14.5027 14.9367 14.3399ZM1.78419 6.96058C1.78419 4.10528 4.10725 1.78535 6.95942 1.78535C9.81472 1.78535 12.1346 4.10841 12.1346 6.96058C12.1346 9.81275 9.81472 12.1389 6.95942 12.1389C4.10725 12.1389 1.78419 9.81588 1.78419 6.96058Z" fill="white" fill-opacity="0.9"/>
<path d="M14.9721 14.3045L11.5736 10.906C12.4834 9.84377 13.0331 8.46544 13.0331 6.96058C13.0331 3.61116 10.3088 0.890033 6.96255 0.890033C3.61313 0.890033 0.892005 3.61432 0.892005 6.96058C0.892005 10.3069 3.61628 13.0311 6.96255 13.0311C8.46741 13.0311 9.84574 12.4815 10.908 11.5716L14.3065 14.9701C14.3972 15.0608 14.5195 15.11 14.6393 15.11C14.7581 15.11 14.8809 15.0646 14.9724 14.9698C15.1544 14.7874 15.1543 14.4868 14.9721 14.3045ZM1.83419 6.96058C1.83419 4.13292 4.13485 1.83535 6.95942 1.83535C9.78708 1.83535 12.0846 4.13601 12.0846 6.96058C12.0846 9.78519 9.78704 12.0889 6.95942 12.0889C4.13489 12.0889 1.83419 9.78828 1.83419 6.96058Z" stroke="white" stroke-opacity="0.9" stroke-width="0.1"/>
</svg>
