<svg width="22" height="22" viewBox="0 0 22 22" fill="none" xmlns="http://www.w3.org/2000/svg">
<path d="M9.71094 15.125H0.859375C0.384742 15.125 0 15.5097 0 15.9844V21.1406C0 21.6153 0.384742 22 0.859375 22H9.71094C10.1856 22 10.5703 21.6153 10.5703 21.1406V15.9844C10.5703 15.5097 10.1856 15.125 9.71094 15.125ZM8.85156 20.2812H1.71875V16.8438H8.85156V20.2812Z" fill="black"/>
<path d="M9.71094 0H0.859375C0.384742 0 0 0.384742 0 0.859375V13.4062C0 13.8809 0.384742 14.2656 0.859375 14.2656H9.71094C10.1856 14.2656 10.5703 13.8809 10.5703 13.4062V0.859375C10.5703 0.384742 10.1856 0 9.71094 0ZM8.85156 12.5469H1.71875V1.71875H8.85156V12.5469Z" fill="black"/>
<path d="M21.1406 0H12.2891C11.8144 0 11.4297 0.384742 11.4297 0.859375V6.01562C11.4297 6.49026 11.8144 6.875 12.2891 6.875H21.1406C21.6153 6.875 22 6.49026 22 6.01562V0.859375C22 0.384742 21.6153 0 21.1406 0ZM20.2812 5.15625H13.1484V1.71875H20.2812V5.15625Z" fill="black"/>
<path d="M21.1406 7.73438H12.2891C11.8144 7.73438 11.4297 8.11912 11.4297 8.59375V21.1406C11.4297 21.6153 11.8144 22 12.2891 22H21.1406C21.6153 22 22 21.6153 22 21.1406V8.59375C22 8.11912 21.6153 7.73438 21.1406 7.73438ZM20.2812 20.2812H13.1484V9.45312H20.2812V20.2812Z" fill="black"/>
</svg>
