<svg id="Layer_1" enable-background="new 0 0 512 512" height="512" viewBox="0 0 512 512" width="512" xmlns="http://www.w3.org/2000/svg"><path d="m274.725 217.196v-6.177c0-4.418-3.582-8-8-8s-8 3.582-8 8v4.471h-6.449v-4.471c0-4.418-3.582-8-8-8s-8 3.582-8 8v4.471h-6.965c-4.418 0-8 3.582-8 8s3.582 8 8 8h1.977v48.02h-1.977c-4.418 0-8 3.582-8 8s3.582 8 8 8h6.965v4.471c0 4.418 3.582 8 8 8s8-3.582 8-8v-4.471h6.449v4.471c0 4.418 3.582 8 8 8s8-3.582 8-8v-6.177c15.473-6.209 20.008-26.033 8.565-38.304 11.45-12.279 6.895-32.1-8.565-38.304zm-8.832 62.314h-18.605v-15.594h18.605c4.299 0 7.797 3.498 7.797 7.797s-3.499 7.797-7.797 7.797zm0-48.02c4.299 0 7.797 3.498 7.797 7.797s-3.498 7.797-7.797 7.797h-18.605v-15.594z"/><path d="m190.604 178.3c6.103 0 11.709-7.459 7.235-13.432-2.65-3.536-7.664-4.258-11.199-1.605-7.678 5.739-3.257 15.037 3.964 15.037z"/><path d="m314.424 223.808c2.176 3.844 7.055 5.2 10.902 3.023 3.846-2.176 5.199-7.057 3.023-10.902-14.631-25.863-42.162-41.929-71.849-41.929-45.491 0-82.5 37.01-82.5 82.5s37.009 82.5 82.5 82.5c45.49 0 82.5-37.01 82.5-82.5 0-4.418-3.582-8-8-8s-8 3.582-8 8c0 36.668-29.832 66.5-66.5 66.5s-66.5-29.832-66.5-66.5 29.832-66.5 66.5-66.5c23.931 0 46.126 12.954 57.924 33.808z"/><path d="m403.605 173.878c4.39.773 8.509-2.168 9.272-6.483l4.524-25.556 36.265-28.052c2.104 7.605 9.069 13.213 17.334 13.213h23c9.925 0 18-8.075 18-18v-23c0-9.925-8.075-18-18-18h-23c-9.925 0-18 8.075-18 18v8.074l-46.371 35.869-22.619-2.878c-4.377-.562-8.388 2.543-8.945 6.926-.559 4.383 2.543 8.388 6.926 8.945l6.734.857-45.401 35.119c-32.469-36.296-83.223-48.167-127.623-31.565-4.139 1.547-6.239 6.156-4.691 10.295 1.547 4.14 6.161 6.242 10.295 4.691 65.616-24.534 135.695 24.274 135.695 94.167 0 55.416-45.084 100.5-100.5 100.5-82.245 0-128.882-93.473-81.635-159.13 2.581-3.587 1.765-8.586-1.821-11.166-3.588-2.582-8.587-1.766-11.167 1.82-12.653 17.584-20.022 37.996-21.563 59.476h-62.245c-3.9-17.707-19.707-31-38.569-31-21.78 0-39.5 17.72-39.5 39.5s17.72 39.5 39.5 39.5c19.216 0 35.262-13.795 38.777-32h61.971c3.88 60.756 54.534 109 116.252 109 34.673 0 65.851-15.231 87.211-39.349l45.951 35.437-7.672.977c-4.383.558-7.484 4.563-6.926 8.945.514 4.04 3.957 6.991 7.926 6.991.723 0-1.231.221 24.623-3.069l45.387 35.001v8.067c0 9.925 8.075 18 18 18h23c9.925 0 18-8.075 18-18v-23c0-9.925-8.075-18-18-18h-23c-8.274 0-15.244 5.62-17.34 13.237l-36.44-28.102-4.342-24.529c-.771-4.351-4.921-7.248-9.272-6.483-4.351.771-7.253 4.922-6.483 9.272l1.279 7.228-44.922-34.643c26.154-39.208 26.033-90.363-.322-129.447l45.417-35.13-1.452 8.204c-.77 4.349 2.132 8.5 6.482 9.271zm-364.105 106.122c-12.958 0-23.5-10.542-23.5-23.5s10.542-23.5 23.5-23.5 23.5 10.542 23.5 23.5-10.542 23.5-23.5 23.5zm429.5 123c0-1.103.897-2 2-2h23c1.103 0 2 .897 2 2v23c0 1.103-.897 2-2 2h-23c-1.103 0-2-.897-2-2zm0-317c0-1.103.897-2 2-2h23c1.103 0 2 .897 2 2v23c0 1.103-.897 2-2 2h-23c-1.103 0-2-.897-2-2z"/></svg>
