<svg width="54" height="54" viewBox="0 0 54 54" fill="none" xmlns="http://www.w3.org/2000/svg">
<rect width="54" height="54" rx="27" fill="#062959" fill-opacity="0.6"/>
<path d="M37.538 36.7173L32.8199 31.9992C34.0855 30.5442 34.8518 28.6457 34.8518 26.5708C34.8518 22.0033 31.1367 18.2925 26.5735 18.2925C22.006 18.2925 18.2953 22.0076 18.2953 26.5708C18.2953 31.1339 22.0104 34.849 26.5735 34.849C28.6485 34.849 30.5469 34.0828 32.0019 32.8171L36.7201 37.5353C36.832 37.6472 36.9827 37.7075 37.129 37.7075C37.2754 37.7075 37.4261 37.6515 37.538 37.5353C37.7618 37.3114 37.7618 36.9412 37.538 36.7173ZM19.4533 26.5708C19.4533 22.6447 22.6475 19.4548 26.5692 19.4548C30.4952 19.4548 33.6851 22.649 33.6851 26.5708C33.6851 30.4925 30.4952 33.691 26.5692 33.691C22.6475 33.691 19.4533 30.4968 19.4533 26.5708Z" fill="white" fill-opacity="0.9"/>
<path d="M37.5737 37.5703C37.8167 37.3269 37.8166 36.9253 37.5733 36.682L32.8881 31.9967C34.1431 30.5376 34.9018 28.6415 34.9018 26.5708C34.9018 21.9757 31.1643 18.2425 26.5735 18.2425C21.9784 18.2425 18.2453 21.98 18.2453 26.5708C18.2453 31.1615 21.9827 34.899 26.5735 34.899C28.6443 34.899 30.5404 34.1404 31.9995 32.8854L36.6847 37.5706C36.806 37.6919 36.9693 37.7575 37.129 37.7575C37.2877 37.7575 37.4516 37.6968 37.5737 37.5703ZM37.5737 37.5703C37.5736 37.5704 37.5735 37.5705 37.5733 37.5706L37.538 37.5353L37.574 37.5699C37.5739 37.5701 37.5738 37.5702 37.5737 37.5703ZM19.5033 26.5708C19.5033 22.6724 22.6751 19.5048 26.5692 19.5048C30.4676 19.5048 33.6351 22.6766 33.6351 26.5708C33.6351 30.465 30.4676 33.641 26.5692 33.641C22.6751 33.641 19.5033 30.4692 19.5033 26.5708Z" stroke="white" stroke-opacity="0.9" stroke-width="0.1"/>
</svg>
