<svg width="169" height="44" viewBox="0 0 169 44" fill="none" xmlns="http://www.w3.org/2000/svg">
<path d="M162.741 44H6.25926C2.75407 44 0 41.47 0 38.5V5.5C0 2.42 2.87926 0 6.25926 0H162.741C166.246 0 169 2.53 169 5.5V38.5C169 41.58 166.246 44 162.741 44Z" fill="black" fill-opacity="0.2"/>
<path d="M70.41 17.5L66.9 28H65.325L62.46 19.615L59.595 28H57.99L54.48 17.5H56.025L58.86 26.035L61.815 17.5H63.195L66.09 26.08L68.985 17.5H70.41ZM78.6193 24.07C78.6193 24.18 78.6093 24.325 78.5893 24.505H72.1393C72.2293 25.205 72.5343 25.77 73.0543 26.2C73.5843 26.62 74.2393 26.83 75.0193 26.83C75.9693 26.83 76.7343 26.51 77.3143 25.87L78.1093 26.8C77.7493 27.22 77.2993 27.54 76.7593 27.76C76.2293 27.98 75.6343 28.09 74.9743 28.09C74.1343 28.09 73.3893 27.92 72.7393 27.58C72.0893 27.23 71.5843 26.745 71.2243 26.125C70.8743 25.505 70.6993 24.805 70.6993 24.025C70.6993 23.255 70.8693 22.56 71.2093 21.94C71.5593 21.32 72.0343 20.84 72.6343 20.5C73.2443 20.15 73.9293 19.975 74.6893 19.975C75.4493 19.975 76.1243 20.15 76.7143 20.5C77.3143 20.84 77.7793 21.32 78.1093 21.94C78.4493 22.56 78.6193 23.27 78.6193 24.07ZM74.6893 21.19C73.9993 21.19 73.4193 21.4 72.9493 21.82C72.4893 22.24 72.2193 22.79 72.1393 23.47H77.2393C77.1593 22.8 76.8843 22.255 76.4143 21.835C75.9543 21.405 75.3793 21.19 74.6893 21.19ZM84.8339 19.975C85.6039 19.975 86.2939 20.145 86.9039 20.485C87.5139 20.825 87.9889 21.3 88.3289 21.91C88.6789 22.52 88.8539 23.225 88.8539 24.025C88.8539 24.825 88.6789 25.535 88.3289 26.155C87.9889 26.765 87.5139 27.24 86.9039 27.58C86.2939 27.92 85.6039 28.09 84.8339 28.09C84.2439 28.09 83.7039 27.975 83.2139 27.745C82.7239 27.515 82.3189 27.18 81.9989 26.74V28H80.6189V16.87H82.0589V21.25C82.3789 20.83 82.7789 20.515 83.2589 20.305C83.7389 20.085 84.2639 19.975 84.8339 19.975ZM84.7139 26.83C85.2239 26.83 85.6789 26.715 86.0789 26.485C86.4889 26.245 86.8089 25.915 87.0389 25.495C87.2789 25.065 87.3989 24.575 87.3989 24.025C87.3989 23.475 87.2789 22.99 87.0389 22.57C86.8089 22.14 86.4889 21.81 86.0789 21.58C85.6789 21.35 85.2239 21.235 84.7139 21.235C84.2139 21.235 83.7589 21.35 83.3489 21.58C82.9389 21.81 82.6189 22.14 82.3889 22.57C82.1589 22.99 82.0439 23.475 82.0439 24.025C82.0439 24.575 82.1589 25.065 82.3889 25.495C82.6189 25.915 82.9389 26.245 83.3489 26.485C83.7589 26.715 84.2139 26.83 84.7139 26.83ZM109.917 17.5L106.407 28H104.832L101.967 19.615L99.1018 28H97.4968L93.9868 17.5H95.5318L98.3668 26.035L101.322 17.5H102.702L105.597 26.08L108.492 17.5H109.917ZM113.836 19.975C114.936 19.975 115.776 20.245 116.356 20.785C116.946 21.325 117.241 22.13 117.241 23.2V28H115.876V26.95C115.636 27.32 115.291 27.605 114.841 27.805C114.401 27.995 113.876 28.09 113.266 28.09C112.376 28.09 111.661 27.875 111.121 27.445C110.591 27.015 110.326 26.45 110.326 25.75C110.326 25.05 110.581 24.49 111.091 24.07C111.601 23.64 112.411 23.425 113.521 23.425H115.801V23.14C115.801 22.52 115.621 22.045 115.261 21.715C114.901 21.385 114.371 21.22 113.671 21.22C113.201 21.22 112.741 21.3 112.291 21.46C111.841 21.61 111.461 21.815 111.151 22.075L110.551 20.995C110.961 20.665 111.451 20.415 112.021 20.245C112.591 20.065 113.196 19.975 113.836 19.975ZM113.506 26.98C114.056 26.98 114.531 26.86 114.931 26.62C115.331 26.37 115.621 26.02 115.801 25.57V24.46H113.581C112.361 24.46 111.751 24.87 111.751 25.69C111.751 26.09 111.906 26.405 112.216 26.635C112.526 26.865 112.956 26.98 113.506 26.98ZM119.906 16.87H121.346V28H119.906V16.87ZM124.095 16.87H125.535V28H124.095V16.87ZM135.47 24.07C135.47 24.18 135.46 24.325 135.44 24.505H128.99C129.08 25.205 129.385 25.77 129.905 26.2C130.435 26.62 131.09 26.83 131.87 26.83C132.82 26.83 133.585 26.51 134.165 25.87L134.96 26.8C134.6 27.22 134.15 27.54 133.61 27.76C133.08 27.98 132.485 28.09 131.825 28.09C130.985 28.09 130.24 27.92 129.59 27.58C128.94 27.23 128.435 26.745 128.075 26.125C127.725 25.505 127.55 24.805 127.55 24.025C127.55 23.255 127.72 22.56 128.06 21.94C128.41 21.32 128.885 20.84 129.485 20.5C130.095 20.15 130.78 19.975 131.54 19.975C132.3 19.975 132.975 20.15 133.565 20.5C134.165 20.84 134.63 21.32 134.96 21.94C135.3 22.56 135.47 23.27 135.47 24.07ZM131.54 21.19C130.85 21.19 130.27 21.4 129.8 21.82C129.34 22.24 129.07 22.79 128.99 23.47H134.09C134.01 22.8 133.735 22.255 133.265 21.835C132.805 21.405 132.23 21.19 131.54 21.19ZM141.939 27.535C141.729 27.715 141.469 27.855 141.159 27.955C140.849 28.045 140.529 28.09 140.199 28.09C139.399 28.09 138.779 27.875 138.339 27.445C137.899 27.015 137.679 26.4 137.679 25.6V21.235H136.329V20.05H137.679V18.31H139.119V20.05H141.399V21.235H139.119V25.54C139.119 25.97 139.224 26.3 139.434 26.53C139.654 26.76 139.964 26.875 140.364 26.875C140.804 26.875 141.179 26.75 141.489 26.5L141.939 27.535Z" fill="white"/>
<path d="M42.8148 30.1875V26.9047H43.1641C43.3099 26.9047 43.4383 26.8556 43.5304 26.7628C43.6224 26.6702 43.6703 26.542 43.6703 26.3984V21.1055C43.6703 20.7986 43.4167 20.5953 43.1641 20.5953H42.7758V17.3984C42.7758 16.5716 42.1235 15.9156 41.332 15.9156H41.0648V13.8125C41.0648 12.9919 40.4575 12.3297 39.7031 12.3297H39.7031H39.7031H39.7031H39.7031H39.7031H39.7031H39.703H39.703H39.703H39.703H39.703H39.703H39.703H39.7029H39.7029H39.7029H39.7029H39.7029H39.7028H39.7028H39.7028H39.7028H39.7028H39.7027H39.7027H39.7027H39.7026H39.7026H39.7026H39.7026H39.7025H39.7025H39.7025H39.7024H39.7024H39.7024H39.7023H39.7023H39.7022H39.7022H39.7022H39.7021H39.7021H39.702H39.702H39.702H39.7019H39.7019H39.7018H39.7018H39.7017H39.7017H39.7016H39.7016H39.7015H39.7015H39.7014H39.7014H39.7013H39.7013H39.7012H39.7011H39.7011H39.701H39.701H39.7009H39.7008H39.7008H39.7007H39.7007H39.7006H39.7005H39.7005H39.7004H39.7003H39.7003H39.7002H39.7001H39.7001H39.7H39.6999H39.6998H39.6998H39.6997H39.6996H39.6995H39.6995H39.6994H39.6993H39.6992H39.6992H39.6991H39.699H39.6989H39.6988H39.6988H39.6987H39.6986H39.6985H39.6984H39.6983H39.6982H39.6982H39.6981H39.698H39.6979H39.6978H39.6977H39.6976H39.6975H39.6974H39.6973H39.6972H39.6971H39.697H39.6969H39.6968H39.6968H39.6967H39.6966H39.6965H39.6964H39.6962H39.6961H39.696H39.6959H39.6958H39.6957H39.6956H39.6955H39.6954H39.6953H39.6952H39.6951H39.695H39.6949H39.6947H39.6946H39.6945H39.6944H39.6943H39.6942H39.6941H39.694H39.6938H39.6937H39.6936H39.6935H39.6934H39.6932H39.6931H39.693H39.6929H39.6928H39.6926H39.6925H39.6924H39.6923H39.6921H39.692H39.6919H39.6917H39.6916H39.6915H39.6914H39.6912H39.6911H39.691H39.6908H39.6907H39.6906H39.6904H39.6903H39.6902H39.69H39.6899H39.6898H39.6896H39.6895H39.6893H39.6892H39.6891H39.6889H39.6888H39.6886H39.6885H39.6884H39.6882H39.6881H39.6879H39.6878H39.6876H39.6875H39.6873H39.6872H39.687H39.6869H39.6867H39.6866H39.6864H39.6863H39.6861H39.686H39.6858H39.6857H39.6855H39.6854H39.6852H39.6851H39.6849H39.6848H39.6846H39.6844H39.6843H39.6841H39.684H39.6838H39.6836H39.6835H39.6833H39.6832H39.683H39.6828H39.6827H39.6825H39.6823H39.6822H39.682H39.6818H39.6817H39.6815H39.6813H39.6812H39.681H39.6808H39.6807H39.6805H39.6803H39.6801H39.68H39.6798H39.6796H39.6795H39.6793H39.6791H39.6789H39.6788H39.6786H39.6784H39.6782H39.678H39.6779H39.6777H39.6775H39.6773H39.6771H39.677H39.6768H39.6766H39.6764H39.6762H39.6761H39.6759H39.6757H39.6755H39.6753H39.6751H39.675H39.6748H39.6746H39.6744H39.6742H39.674H39.6738H39.6736H39.6734H39.6733H39.6731H39.6729H39.6727H39.6725H39.6723H39.6721H39.6719H39.6717H39.6715H39.6713H39.6711H39.6709H39.6708H39.6706H39.6704H39.6702H39.67H39.6698H39.6696H39.6694H39.6692H39.669H39.6688H39.6686H39.6684H39.6682H39.668H39.6678H39.6676H39.6674H39.6672H39.667H39.6668H39.6665H39.6663H39.6661H39.6659H39.6657H39.6655H39.6653H39.6651H39.6649H39.6647H39.6645H39.6643H39.6641H39.6639H39.6636H39.6634H39.6632H39.663H39.6628H39.6626H39.6624H39.6622H39.662H39.6617H39.6615H39.6613H39.6611H39.6609H39.6607H39.6605H39.6602H39.66H39.6598H39.6596H39.6594H39.6592H39.6589H39.6587H39.6585H39.6583H39.6581H39.6578H39.6576H39.6574H39.6572H39.657H39.6567H39.6565H39.6563H39.6561H39.6559H39.6556H39.6554H39.6552H39.655H39.6547H39.6545H39.6543H39.6541H39.6538H39.6536H39.6534H39.6532H39.6529H39.6527H39.6525H39.6523H39.652H39.6518H39.6516H39.6514H39.6511H39.6509H39.6507H39.6504H39.6502H39.65H39.6497H39.6495H39.6493H39.6491H39.6488H39.6486H39.6484H39.6481H39.6479H39.6477H39.6474H39.6472H39.647H39.6467H39.6465H39.6463H39.646H39.6458H39.6456H39.6453H39.6451H39.6449H39.6446H39.6444H39.6441H39.6439H39.6437H39.6434H39.6432H39.643H39.6427H39.6425H39.6422H39.642H39.6418H39.6415H39.6413H39.6411H39.6408H39.6406H39.6403H39.6401H39.6399H39.6396H39.6394H39.6391H39.6389H39.6386H39.6384H39.6382H39.6379H39.6377H39.6374H39.6372H39.637H39.6367H39.6365H39.6362H39.636H39.6357H39.6355H39.6353H39.635H39.6348H39.6345H39.6343H39.634H39.6338H39.6335H39.6333H39.633H39.6328H39.6326H39.6323H39.6321H39.6318H39.6316H39.6313H39.6311H39.6308H39.6306H39.6303H39.6301H39.6298H39.6296H39.6293H39.6291H39.6288H39.6286H39.6284H39.6281H39.6279H39.6276H39.6274H39.6271H39.6269H39.6266H39.6264H39.6261H39.6259H39.6256H39.6254H39.6251H39.6249H39.6246H39.6244H39.6241H39.6239H39.6236H39.6234H39.6231H39.6229H39.6226H39.6224H39.6221H39.6218H39.6216H39.6213H39.6211H39.6084L39.5962 12.3328L25.6717 15.9135C25.6675 15.9143 25.664 15.9152 25.6616 15.9159C25.6605 15.9161 25.6595 15.9164 25.6585 15.9167C24.9225 15.9801 24.3297 16.6122 24.3297 17.3984V30.1875C24.3297 31.0143 24.982 31.6703 25.7734 31.6703H41.332C42.1607 31.6703 42.8148 31.0162 42.8148 30.1875ZM29.7333 15.9117L39.7823 13.3062C39.9229 13.347 40.0875 13.5365 40.0875 13.8125V15.9117H29.7333ZM41.8023 30.1875C41.8023 30.4653 41.5926 30.6969 41.332 30.6969H25.7734C25.5129 30.6969 25.3031 30.4653 25.3031 30.1875V17.3984C25.3031 17.1206 25.5129 16.8891 25.7734 16.8891H41.2891C41.5496 16.8891 41.7594 17.1206 41.7594 17.3984V20.5953H37.8281C36.062 20.5953 34.6734 21.9838 34.6734 23.75C34.6734 25.517 36.1019 26.9047 37.8281 26.9047H41.8023V30.1875ZM42.6539 25.9312H37.8281C36.6608 25.9312 35.6898 24.9566 35.6898 23.793C35.6898 22.6294 36.6646 21.6547 37.8281 21.6547H42.6539V25.9312Z" fill="white" stroke="white" stroke-width="0.2"/>
<path d="M37.2789 23.832C37.2789 24.1401 37.5338 24.3383 37.7852 24.3383H38.1523C38.4044 24.3383 38.6586 24.1356 38.6586 23.832C38.6586 23.5239 38.4037 23.3258 38.1523 23.3258H37.7891C37.6433 23.3258 37.5142 23.3748 37.4212 23.4671C37.3282 23.5595 37.2789 23.6878 37.2789 23.832Z" fill="white" stroke="white" stroke-width="0.2"/>
</svg>
