<svg width="35" height="35" viewBox="0 0 35 35" fill="none" xmlns="http://www.w3.org/2000/svg">
<g clip-path="url(#clip0)">
<path d="M34 8.47824C34 6.89503 32.7121 5.60714 31.1289 5.60714C30.3161 5.60714 29.5815 5.94734 29.0586 6.49208L17.8543 0.0232871C17.6428 -0.0987454 17.3825 -0.0987454 17.171 0.0232871L5.96644 6.49208C5.4436 5.94734 4.70927 5.60714 3.89643 5.60714C2.31321 5.60714 1.02533 6.89503 1.02533 8.47824C1.02533 9.82568 1.9586 10.9587 3.21284 11.2663V24.1993C3.21284 24.4434 3.34315 24.6691 3.55463 24.7913L14.7555 31.2583C14.6812 31.513 14.6406 31.7822 14.6406 32.0607C14.6406 33.6437 15.9285 34.9318 17.5117 34.9318C19.0947 34.9318 20.3826 33.6437 20.3826 32.0607C20.3826 31.7825 20.3423 31.5138 20.268 31.2591L31.4707 24.7913C31.6822 24.6693 31.8125 24.4434 31.8125 24.1993V11.2663C33.0667 10.9587 34 9.82568 34 8.47824ZM2.39252 8.47824C2.39252 7.64885 3.06704 6.97433 3.89643 6.97433C4.72556 6.97433 5.40008 7.64885 5.40008 8.47824C5.40008 9.30737 4.72556 9.98216 3.89643 9.98216C3.06704 9.98216 2.39252 9.30737 2.39252 8.47824ZM17.5117 33.5646C16.6823 33.5646 16.0078 32.8901 16.0078 32.0607C16.0078 31.2316 16.6823 30.5568 17.5117 30.5568C18.3409 30.5568 19.0156 31.2316 19.0156 32.0607C19.0156 32.8901 18.3409 33.5646 17.5117 33.5646ZM19.5834 30.0759C19.0602 29.5303 18.3254 29.1896 17.5117 29.1896C16.6986 29.1896 15.9638 29.5301 15.4409 30.0751L4.58003 23.8047V11.2663C5.834 10.9587 6.76727 9.82568 6.76727 8.47824C6.76727 8.19947 6.72668 7.93003 6.65218 7.67475L17.5125 1.40463L28.3732 7.67475C28.2987 7.93003 28.2581 8.1992 28.2581 8.47824C28.2581 9.82568 29.1913 10.9587 30.4453 11.2663V23.8047L19.5834 30.0759ZM31.1289 9.98216C30.2998 9.98216 29.625 9.30737 29.625 8.47824C29.625 7.64885 30.2998 6.97433 31.1289 6.97433C31.9583 6.97433 32.6328 7.64885 32.6328 8.47824C32.6328 9.30737 31.9583 9.98216 31.1289 9.98216Z" fill="#1D1D1D"/>
<path d="M26.8778 10.5362L17.8543 5.32675C17.6428 5.20472 17.3825 5.20472 17.171 5.32675L8.14752 10.5362C7.93604 10.6585 7.80573 10.8842 7.80573 11.1282V21.5475C7.80573 21.7915 7.93604 22.0174 8.14752 22.1395L17.171 27.3492C17.2767 27.4101 17.3945 27.4408 17.5125 27.4408C17.6308 27.4408 17.7486 27.4101 17.8543 27.3492L26.8778 22.1395C27.0893 22.0174 27.2196 21.7915 27.2196 21.5475V11.1282C27.2196 10.8842 27.0893 10.6585 26.8778 10.5362ZM17.5125 6.7081L25.1688 11.1282L17.5125 15.5486L9.85651 11.1282L17.5125 6.7081ZM18.1961 25.5732V22.4904C18.1961 22.1128 17.8901 21.8068 17.5125 21.8068C17.1352 21.8068 16.8292 22.1128 16.8292 22.4904V25.5732L9.17292 21.1528V12.3122L17.171 16.93C17.2767 16.9909 17.3945 17.0216 17.5125 17.0216C17.6308 17.0216 17.7486 16.9909 17.8543 16.93L25.8524 12.3122V21.1528L18.1961 25.5732Z" fill="#1D1D1D"/>
<path d="M17.512 18.7305C17.3315 18.7305 17.1558 18.8034 17.0278 18.9307C16.9007 19.0578 16.8276 19.2341 16.8276 19.4141C16.8276 19.5938 16.9007 19.77 17.0278 19.8971C17.1558 20.0245 17.3315 20.0977 17.512 20.0977C17.6917 20.0977 17.8682 20.0245 17.9953 19.8971C18.1224 19.77 18.1956 19.5938 18.1956 19.4141C18.1956 19.2341 18.1224 19.0578 17.9953 18.9307C17.8682 18.8034 17.6917 18.7305 17.512 18.7305Z" fill="#1D1D1D"/>
</g>
<defs>
<clipPath id="clip0">
<rect width="35" height="35" fill="white"/>
</clipPath>
</defs>
</svg>
