<svg width="35" height="35" viewBox="0 0 35 35" fill="none" xmlns="http://www.w3.org/2000/svg">
<path d="M20.2869 17.701C19.6988 17.2599 18.9652 16.9746 18.1739 16.8707V13.1809C19.3216 13.3928 20.1956 14.1276 20.1956 14.9729C20.1956 15.345 20.4974 15.6467 20.8695 15.6467C21.2416 15.6467 21.5434 15.345 21.5434 14.9729C21.5434 14.0805 21.0972 13.2545 20.2869 12.6467C19.6987 12.2056 18.9651 11.9203 18.1739 11.8164V10.7609C18.1739 10.3887 17.8721 10.087 17.5 10.087C17.1279 10.087 16.8261 10.3887 16.8261 10.7609V11.8165C16.0348 11.9204 15.3012 12.2057 14.7131 12.6468C13.9028 13.2545 13.4565 14.0806 13.4565 14.9729C13.4565 15.8653 13.9027 16.6913 14.7131 17.2991C15.3012 17.7402 16.0348 18.0255 16.8261 18.1294V21.8192C15.6784 21.6074 14.8044 20.8726 14.8044 20.0273C14.8044 19.6551 14.5026 19.3534 14.1305 19.3534C13.7584 19.3534 13.4566 19.6551 13.4566 20.0273C13.4566 20.9197 13.9028 21.7458 14.7131 22.3535C15.3013 22.7946 16.0349 23.0798 16.8262 23.1838V24.2392C16.8262 24.6114 17.1279 24.9131 17.5 24.9131C17.8722 24.9131 18.1739 24.6114 18.1739 24.2392V23.1836C18.9652 23.0797 19.6989 22.7944 20.2869 22.3533C21.0972 21.7456 21.5435 20.9195 21.5435 20.0272C21.5435 19.1349 21.0972 18.3088 20.2869 17.701ZM16.8261 16.7647C15.6784 16.553 14.8044 15.8182 14.8044 14.9729C14.8044 14.1276 15.6784 13.3928 16.8261 13.181V16.7647ZM18.1739 21.8191V18.2354C19.3215 18.4472 20.1956 19.182 20.1956 20.0273C20.1956 20.8725 19.3216 21.6073 18.1739 21.8191Z" fill="#1D1D1D"/>
<path d="M28.4602 6.53987C25.5326 3.61224 21.6403 2 17.5 2C13.3597 2 9.46743 3.61224 6.5398 6.53987C3.61224 9.46743 2 13.3598 2 17.5C2 21.6402 3.61224 25.5326 6.5398 28.4601C9.46743 31.3878 13.3597 33 17.5 33C21.6403 33 25.5326 31.3878 28.4602 28.4601C31.3878 25.5326 33 21.6402 33 17.5C33 13.3598 31.3878 9.46743 28.4602 6.53987ZM17.5 31.6522C9.69648 31.6522 3.34783 25.3035 3.34783 17.5C3.34783 9.69648 9.69648 3.34783 17.5 3.34783C25.3035 3.34783 31.6522 9.69648 31.6522 17.5C31.6522 25.3035 25.3035 31.6522 17.5 31.6522Z" fill="#1D1D1D"/>
<path d="M26.4434 10.339C26.2105 10.0485 25.7863 10.002 25.496 10.2348C25.2056 10.4676 25.1589 10.8917 25.3917 11.1821C26.8421 12.9913 27.6088 15.1759 27.6088 17.5C27.6088 23.0739 23.074 27.6087 17.5001 27.6087C11.9261 27.6087 7.3914 23.0739 7.3914 17.5C7.3914 11.926 11.9261 7.39129 17.5001 7.39129C19.252 7.39129 20.9779 7.8463 22.4912 8.70716C22.8144 8.89116 23.226 8.77818 23.4101 8.45462C23.5942 8.13111 23.4811 7.71964 23.1576 7.53557C21.4417 6.55944 19.4853 6.04346 17.5001 6.04346C11.183 6.04346 6.04356 11.1829 6.04356 17.5C6.04356 23.8171 11.183 28.9565 17.5001 28.9565C23.8172 28.9565 28.9566 23.8171 28.9566 17.5C28.9566 14.9038 28.064 12.3607 26.4434 10.339Z" fill="#1D1D1D"/>
<path d="M25.1415 9.15766C25.1328 9.11455 25.12 9.07278 25.1031 9.03166C25.0863 8.99122 25.0654 8.95217 25.0411 8.91578C25.0163 8.87872 24.9879 8.84433 24.9569 8.81333C24.9259 8.78167 24.8915 8.75406 24.8545 8.72911C24.8181 8.70483 24.779 8.68394 24.7386 8.66711C24.6975 8.65028 24.655 8.63744 24.6126 8.62872C24.5256 8.61123 24.436 8.61123 24.3491 8.62872C24.306 8.6375 24.2634 8.65028 24.2231 8.66711C24.182 8.68394 24.1429 8.70483 24.1066 8.72911C24.0695 8.75406 24.0351 8.78167 24.0041 8.81333C23.9731 8.84433 23.9448 8.87872 23.9205 8.91578C23.8963 8.95217 23.8754 8.99128 23.8585 9.03166C23.8417 9.07278 23.8289 9.11455 23.8202 9.15766C23.8114 9.20144 23.8067 9.24594 23.8067 9.28978C23.8067 9.33355 23.8114 9.37805 23.8202 9.42116C23.8289 9.46427 23.8417 9.50678 23.8585 9.54716C23.8754 9.58827 23.8963 9.62739 23.9205 9.66378C23.9448 9.70083 23.9731 9.73522 24.0041 9.76622C24.0351 9.79722 24.0695 9.8255 24.1066 9.84978C24.1429 9.87406 24.182 9.89495 24.2231 9.91178C24.2635 9.92861 24.306 9.94144 24.3491 9.95016C24.3922 9.95894 24.4367 9.96367 24.4805 9.96367C24.5242 9.96367 24.5688 9.95894 24.6126 9.95016C24.655 9.94138 24.6975 9.92861 24.7386 9.91178C24.779 9.89495 24.8181 9.87406 24.8545 9.84978C24.8915 9.8255 24.9259 9.79722 24.9569 9.76622C24.9879 9.73522 25.0163 9.70083 25.0411 9.66378C25.0654 9.62739 25.0863 9.58827 25.1031 9.54716C25.12 9.50672 25.1328 9.46427 25.1415 9.42116C25.1503 9.37805 25.1543 9.33355 25.1543 9.28978C25.1543 9.24594 25.1503 9.2015 25.1415 9.15766Z" fill="#1D1D1D"/>
</svg>
