<svg width="35" height="35" viewBox="0 0 35 35" fill="none" xmlns="http://www.w3.org/2000/svg">
<path d="M3.74272 21.9878C3.83106 22.259 3.68278 22.5504 3.41153 22.6393C3.35831 22.6564 3.30406 22.6651 3.25138 22.6651C3.0339 22.6651 2.83082 22.5267 2.76004 22.3081C2.25575 20.7622 2 19.1446 2 17.5C2 8.95332 8.95332 2 17.5 2C22.0979 2 26.4092 4.07489 29.3334 7.61322L3.74272 21.9878ZM3.74272 21.9878C3.27203 20.5452 3.03335 19.0355 3.03335 17.5C3.03335 9.52319 9.52265 3.03335 17.5 3.03335C21.957 3.03335 26.129 5.12225 28.8578 8.66671L3.74272 21.9878ZM29.9455 9.74068L29.9505 9.79042C29.9484 9.79064 29.9463 9.79124 29.9372 9.79384L29.9367 9.79399C29.9291 9.79618 29.9157 9.8 29.9 9.8H25.7667C25.4533 9.8 25.2001 9.54611 25.2001 9.23335C25.2001 8.9206 25.4533 8.66671 25.7667 8.66671H28.7946C26.0747 5.15282 21.9284 3.08335 17.5 3.08335C9.55026 3.08335 3.08335 9.55081 3.08335 17.5C3.08335 19.0303 3.32122 20.5348 3.79025 21.9723L3.79026 21.9723C3.88717 22.2698 3.72448 22.5893 3.4271 22.6868L3.4268 22.6869C3.36897 22.7054 3.30957 22.7151 3.25138 22.7151C3.01299 22.7151 2.7902 22.5634 2.71249 22.3235C2.20656 20.7726 1.95 19.1498 1.95 17.5C1.95 8.92571 8.92571 1.95 17.5 1.95C22.0929 1.95 26.4006 4.01364 29.3334 7.53491V5.1C29.3334 4.78724 29.5867 4.53335 29.9001 4.53335C30.2134 4.53335 30.4667 4.78724 30.4667 5.1V9.23329C30.4667 9.24953 30.4627 9.26348 30.4603 9.27183C30.4576 9.28104 30.4566 9.28424 30.4561 9.28709C30.4531 9.32718 30.445 9.36353 30.4335 9.39983M29.9455 9.74068C29.9801 9.73807 30.0126 9.73032 30.0462 9.72051C30.0809 9.71016 30.1119 9.69781 30.1429 9.68122M29.9455 9.74068L29.9492 9.79054C29.9889 9.78755 30.0252 9.77873 30.0602 9.76851L30.0605 9.76842C30.098 9.75723 30.1321 9.74367 30.1664 9.7253L30.1429 9.68122M29.9455 9.74068C29.9386 9.74137 29.932 9.74328 29.9255 9.74519C29.9172 9.74759 29.9089 9.75 29.9 9.75H25.7667C25.481 9.75 25.2501 9.51853 25.2501 9.23335C25.2501 8.94818 25.481 8.71671 25.7667 8.71671H28.8332L30.1857 9.66366C30.178 9.66896 30.1697 9.67158 30.1613 9.6742C30.1551 9.67617 30.1488 9.67813 30.1429 9.68122M30.1429 9.68122L30.1658 9.72563C30.168 9.72449 30.17 9.72392 30.1797 9.72084C30.1875 9.71835 30.2005 9.71407 30.2134 9.70529C30.2269 9.69647 30.2362 9.68575 30.2419 9.67919L30.2445 9.6761C30.249 9.67081 30.2507 9.66883 30.2526 9.66713C30.2832 9.64272 30.3098 9.61604 30.3341 9.58619L30.3343 9.58588C30.3561 9.55859 30.3762 9.5302 30.3931 9.49818C30.4101 9.46635 30.4233 9.43439 30.4335 9.39983M30.4335 9.39983C30.4335 9.40001 30.4334 9.40018 30.4334 9.40035L30.3857 9.38521L30.4337 9.3994C30.4336 9.39954 30.4336 9.39969 30.4335 9.39983Z" fill="#1D1D1D" stroke="#1D1D1D" stroke-width="0.1"/>
<path d="M15.7359 27.8414L15.7358 27.8414C15.4842 27.7388 15.3415 27.4718 15.3941 27.2056L15.3941 27.2055L16.7832 20.2607L11.393 21.1586L11.3929 21.1586L11.3847 21.1093C11.1869 21.1424 10.9864 21.0571 10.8732 20.8907L15.7359 27.8414ZM15.7359 27.8414C15.8056 27.8697 15.8781 27.8833 15.95 27.8833C16.1365 27.8833 16.3172 27.7904 16.4248 27.6261L16.4249 27.626L24.1749 15.7427C24.2979 15.5545 24.2972 15.3113 24.1743 15.1233L24.1743 15.1232C24.051 14.9355 23.8279 14.836 23.6069 14.8746C23.6068 14.8746 23.6067 14.8746 23.6067 14.8746L18.197 15.7758L19.6076 7.78184C19.6076 7.78184 19.6076 7.78183 19.6076 7.78182C19.6552 7.51274 19.5045 7.24809 19.2483 7.15226L19.2483 7.15223C18.9939 7.05761 18.705 7.15724 18.5643 7.39137L18.5643 7.39139L10.8144 20.3079L15.7359 27.8414ZM16.9425 16.368C16.9102 16.5494 16.968 16.7347 17.0972 16.8655L17.0972 16.8656L18.0065 19.6679M16.9425 16.368L16.9917 16.3768L16.9424 16.3681L16.9425 16.368ZM16.9425 16.368L17.9593 10.6022L12.4175 19.8395L17.4066 19.008C17.4067 19.008 17.4068 19.008 17.4069 19.0079C17.4386 19.0022 17.4694 19 17.5002 19C17.6526 19 17.7993 19.0612 17.9075 19.1722L17.9077 19.1724C18.0367 19.3066 18.0924 19.4952 18.0555 19.6778M18.0555 19.6778L18.0065 19.6679M18.0555 19.6778L18.0555 19.6777L18.0065 19.6679M18.0555 19.6778L17.0829 24.5423M18.0065 19.6679L17.0093 24.6551L17.0829 24.5423M17.0829 24.5423L22.5209 16.2045M17.0829 24.5423L17.0565 24.6743L22.5879 16.1933M22.5209 16.2045L22.558 16.1476L22.625 16.1365L22.5879 16.1933M22.5209 16.2045L22.5879 16.1933M22.5209 16.2045L22.5879 16.1933M17.5933 17.0254L17.5849 16.9761L17.5931 17.0254L17.5932 17.0254C17.5932 17.0254 17.5933 17.0254 17.5933 17.0254Z" fill="#1D1D1D" stroke="#1D1D1D" stroke-width="0.1"/>
<path d="M4.59324 25.7176L4.54345 25.713C4.5432 25.7159 4.54245 25.7185 4.53972 25.7281L4.53965 25.7283C4.53732 25.7366 4.53344 25.7504 4.53344 25.7667V29.9C4.53344 30.2128 4.78671 30.4667 5.10008 30.4667C5.41345 30.4667 5.66673 30.2128 5.66673 29.9V27.4641C8.59993 30.9864 12.9076 33.05 17.5001 33.05C26.0744 33.05 33.0501 26.0743 33.0501 17.5C33.0501 15.8197 32.7831 14.1667 32.2581 12.5878L32.258 12.5878C32.1589 12.291 31.8392 12.1299 31.5407 12.2296C31.2443 12.3283 31.0835 12.649 31.182 12.9459L31.182 12.9459C31.6696 14.4092 31.9167 15.9414 31.9167 17.5C31.9167 25.4492 25.4498 31.9167 17.5001 31.9167C13.0727 31.9167 8.92643 29.8477 6.20545 26.3333H9.23338C9.54674 26.3333 9.80002 26.0794 9.80002 25.7667C9.80002 25.4539 9.54674 25.2 9.23338 25.2H5.10008C5.08451 25.2 5.07109 25.2039 5.06364 25.2061L5.0636 25.2061C5.0542 25.2089 5.0523 25.2094 5.05043 25.2096L5.05564 25.2594M4.59324 25.7176L4.54343 25.7133C4.54687 25.6736 4.55492 25.6371 4.56663 25.6006C4.5769 25.5655 4.59003 25.5336 4.60705 25.5018L4.65113 25.5254M4.59324 25.7176C4.59633 25.682 4.6036 25.6489 4.61444 25.6153C4.62376 25.5833 4.63563 25.5543 4.65113 25.5254M4.59324 25.7176C4.59254 25.7253 4.59049 25.7324 4.58845 25.7395C4.58594 25.7483 4.58344 25.757 4.58344 25.7667V29.9C4.58344 30.1852 4.81436 30.4167 5.10008 30.4167C5.3858 30.4167 5.61673 30.1852 5.61673 29.9V27.4038L4.70483 25.4453M4.65113 25.5254L4.60687 25.5021C4.62378 25.47 4.64391 25.4415 4.66576 25.4141L4.66601 25.4138C4.69025 25.3839 4.71687 25.3573 4.74743 25.3328C4.74938 25.3311 4.75107 25.3292 4.75557 25.3239L4.75823 25.3208C4.76389 25.3142 4.77332 25.3034 4.78694 25.2945C4.79998 25.2859 4.81297 25.2816 4.8204 25.2792C4.82955 25.2762 4.83103 25.2756 4.83225 25.2749L4.83397 25.2739L4.83399 25.2739C4.86789 25.2561 4.90191 25.2432 4.93756 25.2322L4.93804 25.2321C4.97448 25.2212 5.01188 25.2125 5.05194 25.2095L5.05564 25.2594M4.65113 25.5254C4.66608 25.4969 4.68419 25.4711 4.70483 25.4453M5.05564 25.2594C5.02052 25.262 4.98692 25.2697 4.95229 25.28M5.05564 25.2594C5.06227 25.2587 5.06869 25.2568 5.07513 25.2549C5.08326 25.2524 5.09143 25.25 5.10008 25.25H9.23338C9.5191 25.25 9.75002 25.4815 9.75002 25.7667C9.75002 26.0518 9.5191 26.2833 9.23338 26.2833H6.16691L4.95229 25.28M4.95229 25.28C4.91868 25.2904 4.88768 25.3022 4.85723 25.3182M4.95229 25.28L4.85723 25.3182M4.85723 25.3182C4.8511 25.3217 4.84453 25.3239 4.83789 25.326C4.82997 25.3286 4.82193 25.3312 4.81436 25.3363C4.8061 25.3416 4.80003 25.3488 4.79394 25.356C4.78936 25.3614 4.78478 25.3668 4.77924 25.3714C4.75133 25.3936 4.72705 25.4179 4.70483 25.4453M4.85723 25.3182L4.70483 25.4453M17.5001 31.9667C13.0441 31.9667 8.87213 29.8783 6.14228 26.3333L31.2295 12.9301C31.7187 14.3985 31.9667 15.9361 31.9667 17.5C31.9667 25.4768 25.4774 31.9667 17.5001 31.9667Z" fill="#1D1D1D" stroke="#1D1D1D" stroke-width="0.1"/>
</svg>
