<svg width="35" height="35" viewBox="0 0 35 35" fill="none" xmlns="http://www.w3.org/2000/svg">
<path d="M34.4531 12.0312H29.4262C28.5573 10.1402 27.247 8.47984 25.6063 7.18813C25.7223 6.80312 25.7354 6.39406 25.6287 5.99648C25.4773 5.43211 25.1158 4.96016 24.6094 4.66813C24.1035 4.37664 23.5145 4.29953 22.9496 4.44992C22.5187 4.56531 22.1435 4.80484 21.8597 5.13625C19.5781 4.33234 17.1095 4.17102 14.7656 4.66484V0.546875H0.546875V11.4844H5.83953C5.21063 12.6995 4.78078 13.994 4.55766 15.3491C3.52516 15.5236 2.73438 16.4183 2.73438 17.5C2.73438 18.5834 3.52789 19.4786 4.56313 19.6514C4.7868 21.0055 5.21664 22.307 5.84117 23.5156H0.546875V34.4531H14.7656V30.3352C15.6614 30.5249 16.5774 30.625 17.5 30.625C18.9952 30.625 20.4575 30.3614 21.8602 29.8654C22.1441 30.1963 22.5192 30.4352 22.9496 30.5506C23.1383 30.6009 23.3291 30.6261 23.5195 30.6261C23.8979 30.6261 24.2725 30.5266 24.6094 30.3319C25.1158 30.0398 25.4773 29.5684 25.6282 29.0035C25.7354 28.6043 25.7223 28.1936 25.6047 27.8075C27.247 26.5136 28.5638 24.8511 29.4306 22.9688H34.4531V12.0312ZM22.569 6.01562C22.715 5.76242 22.9507 5.58195 23.2329 5.50594C23.5156 5.43102 23.8093 5.46875 24.0625 5.61531C24.3157 5.76187 24.4967 5.99758 24.5722 6.27977C24.6482 6.56195 24.6088 6.85672 24.4628 7.10992C24.3168 7.36313 24.0811 7.54359 23.7989 7.61961C23.514 7.69617 23.2214 7.6557 22.9688 7.51078C22.7155 7.36422 22.5345 7.12852 22.4591 6.84633C22.3836 6.56305 22.4224 6.26883 22.569 6.01562ZM13.6719 4.94813C13.236 5.08047 12.8056 5.23141 12.3845 5.40969L12.8116 6.41703C13.0933 6.29781 13.382 6.19883 13.6713 6.10203V10.3906H10.3901V1.64062H13.6713V4.94813H13.6719ZM1.64062 1.64062H9.29688V10.3906H1.64062V1.64062ZM3.82812 17.5C3.82812 16.8968 4.31867 16.4062 4.92188 16.4062C5.52508 16.4062 6.01562 16.8968 6.01562 17.5C6.01562 18.1032 5.52508 18.5938 4.92188 18.5938C4.31867 18.5938 3.82812 18.1032 3.82812 17.5ZM1.64062 24.6094H6.47281C6.79656 25.1103 7.15203 25.5932 7.54523 26.0504L8.37539 25.3373C8.17305 25.1016 7.98164 24.8577 7.79898 24.6088H9.29688V33.3588H1.64062V24.6094ZM13.6719 33.3594H10.3906V24.6094H13.6719V33.3594ZM24.5722 28.7208C24.4967 29.003 24.3157 29.2387 24.0625 29.3847C23.8104 29.5307 23.5173 29.5701 23.2323 29.4941C22.9502 29.4186 22.7145 29.2376 22.5684 28.9844C22.4219 28.7317 22.383 28.437 22.4591 28.1548C22.5345 27.8726 22.7155 27.6369 22.9688 27.4903C23.2214 27.3448 23.5145 27.3049 23.7989 27.3815C24.0811 27.457 24.3168 27.638 24.4628 27.8912C24.6088 28.1438 24.6477 28.438 24.5722 28.7208ZM25.0277 26.8696C24.7641 26.6148 24.4459 26.4223 24.0816 26.3244C23.5184 26.174 22.9283 26.2511 22.4219 26.5426C21.9155 26.8346 21.554 27.306 21.403 27.8709C21.3134 28.2056 21.3134 28.5474 21.3817 28.8766C19.2544 29.6023 16.9422 29.7145 14.7656 29.2097V23.5156H7.09023C6.38203 22.2923 5.89586 20.9546 5.65469 19.5519C6.50016 19.2489 7.10938 18.4477 7.10938 17.5C7.10938 16.5501 6.49742 15.7484 5.64977 15.4465C5.88984 14.0459 6.37273 12.717 7.08641 11.4844H14.7656V5.79359C16.9416 5.29047 19.2462 5.40039 21.3806 6.12719C21.3134 6.45531 21.3134 6.79547 21.403 7.12852C21.554 7.69289 21.916 8.16484 22.4219 8.45687C22.7588 8.65102 23.1328 8.75055 23.5118 8.75055C23.7021 8.75055 23.893 8.72594 24.0816 8.67508C24.447 8.57719 24.7669 8.38305 25.031 8.12656C26.3572 9.19352 27.4455 10.5224 28.2171 12.0307H20.2344V22.9682H28.2045C27.4345 24.4688 26.3528 25.8021 25.0277 26.8696ZM21.3281 21.875V13.125H24.6094V21.875H21.3281ZM33.3594 21.875H29.8725C29.9841 21.5611 30.0869 21.2439 30.1738 20.9212L29.1173 20.6363C29.0035 21.0585 28.8586 21.4692 28.6995 21.8745H25.7031V13.125H33.3594V21.875Z" fill="#1D1D1D"/>
<path d="M3.82812 28.9844H2.73438V32.2656H6.01562V31.1719H3.82812V28.9844Z" fill="#1D1D1D"/>
<path d="M2.73438 26.7969H3.82812V27.8906H2.73438V26.7969Z" fill="#1D1D1D"/>
<path d="M2.73438 2.73438H3.82812V3.82812H2.73438V2.73438Z" fill="#1D1D1D"/>
<path d="M4.92188 2.73438H6.01562V3.82812H4.92188V2.73438Z" fill="#1D1D1D"/>
<path d="M7.10938 2.73438H8.20312V3.82812H7.10938V2.73438Z" fill="#1D1D1D"/>
<path d="M31.7188 19.6875H32.8125V20.7812H31.7188V19.6875Z" fill="#1D1D1D"/>
<path d="M31.7188 14.2188H32.8125V18.5938H31.7188V14.2188Z" fill="#1D1D1D"/>
</svg>
