<svg width="169" height="44" viewBox="0 0 169 44" fill="none" xmlns="http://www.w3.org/2000/svg">
<path d="M162.741 44H6.25926C2.75407 44 0 41.47 0 38.5V5.5C0 2.42 2.87926 0 6.25926 0H162.741C166.246 0 169 2.53 169 5.5V38.5C169 41.58 166.246 44 162.741 44Z" fill="black" fill-opacity="0.2"/>
<path d="M49.7689 20.8637C49.7796 20.029 50.0013 19.2106 50.4134 18.4847C50.8254 17.7587 51.4143 17.1488 52.1254 16.7116C51.6737 16.0665 51.0777 15.5355 50.3849 15.161C49.6921 14.7864 48.9215 14.5786 48.1343 14.5539C46.455 14.3777 44.8271 15.5588 43.9714 15.5588C43.0991 15.5588 41.7816 14.5714 40.3629 14.6006C39.4452 14.6303 38.5509 14.8971 37.767 15.3752C36.9831 15.8533 36.3364 16.5262 35.89 17.3285C33.956 20.6769 35.3985 25.598 37.2511 28.3046C38.178 29.6299 39.2613 31.1104 40.6788 31.0579C42.0658 31.0004 42.5839 30.1734 44.2582 30.1734C45.9169 30.1734 46.403 31.0579 47.8492 31.0245C49.3376 31.0003 50.2753 29.6933 51.1697 28.3554C51.8357 27.411 52.3481 26.3673 52.6881 25.2629C51.8234 24.8971 51.0855 24.2849 50.5664 23.5027C50.0472 22.7204 49.7699 21.8026 49.7689 20.8637Z" fill="white"/>
<path d="M47.0372 12.7739C47.8488 11.7997 48.2486 10.5476 48.1518 9.28333C46.9119 9.41355 45.7667 10.0061 44.9442 10.9429C44.542 11.4006 44.234 11.933 44.0378 12.5098C43.8415 13.0866 43.7609 13.6964 43.8005 14.3043C44.4206 14.3107 45.0341 14.1763 45.5948 13.9112C46.1554 13.6461 46.6486 13.2573 47.0372 12.7739Z" fill="white"/>
<path d="M67.3023 27.7027H62.5689L61.4321 31.0591H59.4273L63.9107 18.6411H65.9937L70.4771 31.0591H68.438L67.3023 27.7027ZM63.0591 26.1538H66.8111L64.9615 20.7066H64.9097L63.0591 26.1538Z" fill="white"/>
<path d="M80.1597 26.5328C80.1597 29.3463 78.6538 31.1539 76.3814 31.1539C75.8057 31.184 75.2332 31.0514 74.7294 30.7713C74.2256 30.4911 73.8109 30.0748 73.5327 29.5699H73.4897V34.0543H71.6313V22.0055H73.4302V23.5113H73.4644C73.7553 23.0089 74.1771 22.5947 74.6847 22.3128C75.1923 22.031 75.7669 21.892 76.3472 21.9107C78.645 21.9107 80.1597 23.7271 80.1597 26.5328ZM78.2495 26.5328C78.2495 24.6998 77.3023 23.4947 75.8569 23.4947C74.437 23.4947 73.4819 24.7252 73.4819 26.5328C73.4819 28.357 74.437 29.5787 75.8569 29.5787C77.3023 29.5787 78.2495 28.3824 78.2495 26.5328Z" fill="white"/>
<path d="M90.1245 26.5328C90.1245 29.3463 88.6187 31.1539 86.3462 31.1539C85.7706 31.184 85.1981 31.0514 84.6943 30.7713C84.1905 30.4911 83.7757 30.0748 83.4976 29.5699H83.4546V34.0543H81.5962V22.0054H83.395V23.5113H83.4292C83.7201 23.0088 84.1419 22.5947 84.6495 22.3128C85.1571 22.031 85.7317 21.892 86.312 21.9107C88.6099 21.9107 90.1245 23.7271 90.1245 26.5328ZM88.2144 26.5328C88.2144 24.6998 87.2671 23.4947 85.8218 23.4947C84.4019 23.4947 83.4468 24.7252 83.4468 26.5328C83.4468 28.357 84.4019 29.5787 85.8218 29.5787C87.2671 29.5787 88.2144 28.3824 88.2144 26.5328H88.2144Z" fill="white"/>
<path d="M96.7105 27.5992C96.8482 28.8306 98.0445 29.6392 99.6792 29.6392C101.246 29.6392 102.373 28.8306 102.373 27.7202C102.373 26.7564 101.693 26.1792 100.084 25.7837L98.4741 25.396C96.1939 24.8452 95.1353 23.7788 95.1353 22.0483C95.1353 19.9058 97.0025 18.4341 99.6538 18.4341C102.278 18.4341 104.077 19.9058 104.137 22.0483H102.261C102.149 20.8091 101.125 20.061 99.6274 20.061C98.1304 20.061 97.1059 20.8179 97.1059 21.9194C97.1059 22.7974 97.7603 23.314 99.3608 23.7094L100.729 24.0454C103.277 24.6479 104.335 25.6714 104.335 27.4878C104.335 29.811 102.485 31.2661 99.5415 31.2661C96.7876 31.2661 94.9282 29.8452 94.8081 27.5991L96.7105 27.5992Z" fill="white"/>
<path d="M108.346 19.8628V22.0054H110.068V23.4771H108.346V28.4683C108.346 29.2437 108.691 29.605 109.448 29.605C109.652 29.6014 109.856 29.5871 110.059 29.562V31.0249C109.719 31.0885 109.373 31.1172 109.027 31.1108C107.194 31.1108 106.479 30.4223 106.479 28.6665V23.4771H105.163V22.0054H106.479V19.8628H108.346Z" fill="white"/>
<path d="M111.065 26.5327C111.065 23.6841 112.743 21.894 115.359 21.894C117.984 21.894 119.654 23.684 119.654 26.5327C119.654 29.3892 117.993 31.1714 115.359 31.1714C112.726 31.1714 111.065 29.3892 111.065 26.5327ZM117.76 26.5327C117.76 24.5786 116.865 23.4253 115.359 23.4253C113.853 23.4253 112.959 24.5874 112.959 26.5327C112.959 28.4946 113.853 29.6392 115.359 29.6392C116.865 29.6392 117.76 28.4946 117.76 26.5327H117.76Z" fill="white"/>
<path d="M121.186 22.0054H122.959V23.5464H123.002C123.121 23.0651 123.403 22.6398 123.8 22.3419C124.197 22.044 124.684 21.8917 125.179 21.9106C125.393 21.9099 125.607 21.9331 125.816 21.98V23.7183C125.546 23.6356 125.264 23.5977 124.981 23.606C124.711 23.595 124.442 23.6426 124.192 23.7455C123.942 23.8484 123.718 24.0041 123.534 24.202C123.35 24.3999 123.211 24.6352 123.126 24.8919C123.042 25.1486 123.014 25.4205 123.044 25.689V31.0591H121.186L121.186 22.0054Z" fill="white"/>
<path d="M134.384 28.3999C134.134 30.0435 132.534 31.1714 130.486 31.1714C127.852 31.1714 126.217 29.4067 126.217 26.5757C126.217 23.7358 127.861 21.894 130.408 21.894C132.913 21.894 134.488 23.6147 134.488 26.3599V26.9966H128.093V27.1089C128.064 27.4421 128.105 27.7778 128.216 28.0936C128.326 28.4094 128.502 28.6982 128.732 28.9408C128.963 29.1833 129.242 29.3741 129.552 29.5004C129.861 29.6267 130.195 29.6856 130.529 29.6733C130.968 29.7145 131.409 29.6128 131.785 29.3833C132.162 29.1539 132.455 28.809 132.62 28.3999L134.384 28.3999ZM128.102 25.6978H132.628C132.645 25.3982 132.6 25.0983 132.495 24.8171C132.39 24.5359 132.229 24.2794 132.02 24.0636C131.812 23.8479 131.561 23.6775 131.283 23.5633C131.006 23.4491 130.708 23.3935 130.408 23.3999C130.105 23.3981 129.805 23.4562 129.525 23.571C129.245 23.6857 128.99 23.8548 128.776 24.0684C128.562 24.2821 128.392 24.536 128.276 24.8157C128.16 25.0953 128.101 25.3951 128.102 25.6978V25.6978Z" fill="white"/>
<path d="M62.8262 9.294C63.2158 9.26604 63.6068 9.3249 63.9709 9.46634C64.335 9.60777 64.6632 9.82825 64.9318 10.1119C65.2004 10.3955 65.4026 10.7352 65.524 11.1065C65.6455 11.4777 65.6829 11.8713 65.6338 12.2588C65.6338 14.1651 64.6035 15.2608 62.8262 15.2608H60.6709V9.294H62.8262ZM61.5977 14.417H62.7227C63.0011 14.4336 63.2797 14.388 63.5382 14.2834C63.7968 14.1788 64.0287 14.0178 64.2172 13.8123C64.4057 13.6067 64.546 13.3617 64.6279 13.0951C64.7097 12.8284 64.7311 12.5469 64.6904 12.271C64.7282 11.9962 64.7046 11.7164 64.6215 11.4517C64.5384 11.1871 64.3977 10.9441 64.2097 10.7401C64.0216 10.5362 63.7908 10.3764 63.5337 10.2722C63.2766 10.1679 62.9997 10.1218 62.7227 10.1372H61.5977V14.417Z" fill="white"/>
<path d="M66.6807 13.0074C66.6524 12.7115 66.6862 12.4129 66.7801 12.1308C66.8739 11.8488 67.0257 11.5894 67.2256 11.3694C67.4255 11.1495 67.6693 10.9737 67.9411 10.8534C68.213 10.7332 68.507 10.671 68.8042 10.671C69.1015 10.671 69.3955 10.7332 69.6673 10.8534C69.9392 10.9737 70.1829 11.1495 70.3828 11.3694C70.5828 11.5894 70.7345 11.8488 70.8284 12.1308C70.9222 12.4129 70.9561 12.7115 70.9278 13.0074C70.9566 13.3036 70.9232 13.6026 70.8296 13.8851C70.736 14.1677 70.5843 14.4275 70.3843 14.6479C70.1843 14.8683 69.9404 15.0444 69.6683 15.165C69.3962 15.2855 69.1018 15.3478 68.8042 15.3478C68.5066 15.3478 68.2123 15.2855 67.9401 15.165C67.668 15.0444 67.4241 14.8683 67.2241 14.6479C67.0241 14.4275 66.8725 14.1677 66.7789 13.8851C66.6853 13.6026 66.6518 13.3036 66.6807 13.0074ZM70.0137 13.0074C70.0137 12.0313 69.5752 11.4605 68.8057 11.4605C68.0332 11.4605 67.5987 12.0313 67.5987 13.0074C67.5987 13.9913 68.0333 14.5577 68.8057 14.5577C69.5752 14.5577 70.0137 13.9874 70.0137 13.0074H70.0137Z" fill="white"/>
<path d="M76.5733 15.2607H75.6514L74.7207 11.9443H74.6504L73.7237 15.2607H72.8106L71.5694 10.7578H72.4707L73.2774 14.1938H73.3438L74.2696 10.7578H75.1221L76.0479 14.1938H76.1182L76.9209 10.7578H77.8096L76.5733 15.2607Z" fill="white"/>
<path d="M78.8536 10.7579H79.709V11.4732H79.7754C79.8881 11.2163 80.0781 11.0009 80.319 10.8571C80.5598 10.7133 80.8396 10.6482 81.1192 10.6709C81.3383 10.6545 81.5583 10.6875 81.7629 10.7676C81.9675 10.8477 82.1514 10.9728 82.3011 11.1336C82.4508 11.2945 82.5624 11.4869 82.6276 11.6968C82.6928 11.9066 82.7099 12.1284 82.6778 12.3457V15.2607H81.7891V12.5689C81.7891 11.8453 81.4746 11.4854 80.8174 11.4854C80.6687 11.4785 80.5202 11.5038 80.3821 11.5596C80.244 11.6154 80.1197 11.7005 80.0176 11.8089C79.9154 11.9172 79.838 12.0464 79.7904 12.1876C79.7429 12.3287 79.7265 12.4784 79.7422 12.6265V15.2608H78.8535L78.8536 10.7579Z" fill="white"/>
<path d="M84.0938 9H84.9825V15.2607H84.0938V9Z" fill="white"/>
<path d="M86.2178 13.0074C86.1895 12.7114 86.2234 12.4128 86.3172 12.1308C86.4111 11.8487 86.5629 11.5893 86.7629 11.3693C86.9628 11.1494 87.2065 10.9736 87.4784 10.8533C87.7503 10.733 88.0443 10.6709 88.3416 10.6709C88.6389 10.6709 88.9329 10.733 89.2047 10.8533C89.4766 10.9736 89.7203 11.1494 89.9203 11.3693C90.1203 11.5893 90.272 11.8487 90.3659 12.1308C90.4598 12.4128 90.4936 12.7114 90.4654 13.0074C90.4942 13.3036 90.4607 13.6026 90.3671 13.8851C90.2734 14.1676 90.1218 14.4274 89.9217 14.6478C89.7217 14.8683 89.4778 15.0444 89.2057 15.1649C88.9335 15.2854 88.6392 15.3477 88.3416 15.3477C88.044 15.3477 87.7496 15.2854 87.4775 15.1649C87.2053 15.0444 86.9614 14.8683 86.7614 14.6478C86.5614 14.4274 86.4097 14.1676 86.3161 13.8851C86.2225 13.6026 86.189 13.3036 86.2178 13.0074ZM89.5508 13.0074C89.5508 12.0313 89.1123 11.4605 88.3428 11.4605C87.5703 11.4605 87.1358 12.0313 87.1358 13.0074C87.1358 13.9913 87.5704 14.5577 88.3428 14.5577C89.1123 14.5577 89.5508 13.9873 89.5508 13.0074H89.5508Z" fill="white"/>
<path d="M91.4009 13.9873C91.4009 13.1767 92.0044 12.7095 93.0757 12.6431L94.2954 12.5727V12.1841C94.2954 11.7085 93.981 11.4399 93.3736 11.4399C92.8775 11.4399 92.5337 11.6221 92.4351 11.9404H91.5747C91.6656 11.167 92.3931 10.6709 93.4146 10.6709C94.5435 10.6709 95.1802 11.2329 95.1802 12.1841V15.2607H94.3247V14.6279H94.2544C94.1117 14.8549 93.9113 15.04 93.6737 15.1642C93.4361 15.2884 93.1697 15.3473 92.9019 15.3349C92.7129 15.3546 92.5218 15.3344 92.341 15.2757C92.1603 15.217 91.9938 15.1211 91.8524 14.9941C91.711 14.8672 91.5977 14.712 91.52 14.5386C91.4422 14.3651 91.4017 14.1774 91.4009 13.9873ZM94.2954 13.6025V13.2261L93.1958 13.2964C92.5757 13.3379 92.2945 13.5488 92.2945 13.9458C92.2945 14.3511 92.646 14.5869 93.1295 14.5869C93.2711 14.6012 93.4142 14.5869 93.5502 14.5448C93.6862 14.5028 93.8123 14.4337 93.9211 14.3419C94.0299 14.2501 94.1191 14.1373 94.1834 14.0102C94.2477 13.8832 94.2858 13.7446 94.2954 13.6025Z" fill="white"/>
<path d="M96.3482 13.0073C96.3482 11.5845 97.0796 10.6831 98.2173 10.6831C98.4987 10.6702 98.778 10.7376 99.0226 10.8775C99.2671 11.0173 99.4667 11.224 99.5982 11.4731H99.6646V9H100.553V15.2607H99.7017V14.5493H99.6314C99.4898 14.7968 99.2832 15.0008 99.0339 15.1393C98.7847 15.2778 98.5023 15.3455 98.2173 15.3349C97.0718 15.335 96.3482 14.4336 96.3482 13.0073ZM97.2662 13.0073C97.2662 13.9624 97.7164 14.5371 98.4693 14.5371C99.2183 14.5371 99.6812 13.9541 99.6812 13.0112C99.6812 12.0728 99.2134 11.4815 98.4693 11.4815C97.7212 11.4815 97.2661 12.0601 97.2661 13.0073H97.2662Z" fill="white"/>
<path d="M104.23 13.0074C104.202 12.7115 104.236 12.4129 104.329 12.1308C104.423 11.8488 104.575 11.5894 104.775 11.3694C104.975 11.1495 105.219 10.9737 105.49 10.8534C105.762 10.7332 106.056 10.671 106.354 10.671C106.651 10.671 106.945 10.7332 107.217 10.8534C107.489 10.9737 107.732 11.1495 107.932 11.3694C108.132 11.5894 108.284 11.8488 108.378 12.1308C108.472 12.4129 108.505 12.7115 108.477 13.0074C108.506 13.3036 108.472 13.6026 108.379 13.8851C108.285 14.1677 108.134 14.4275 107.934 14.6479C107.734 14.8683 107.49 15.0444 107.218 15.165C106.946 15.2855 106.651 15.3478 106.354 15.3478C106.056 15.3478 105.762 15.2855 105.489 15.165C105.217 15.0444 104.973 14.8683 104.773 14.6479C104.573 14.4275 104.422 14.1677 104.328 13.8851C104.235 13.6026 104.201 13.3036 104.23 13.0074ZM107.563 13.0074C107.563 12.0313 107.125 11.4605 106.355 11.4605C105.583 11.4605 105.148 12.0313 105.148 13.0074C105.148 13.9913 105.583 14.5577 106.355 14.5577C107.125 14.5577 107.563 13.9874 107.563 13.0074Z" fill="white"/>
<path d="M109.669 10.7579H110.525V11.4732H110.591C110.704 11.2163 110.894 11.0009 111.135 10.8571C111.376 10.7133 111.655 10.6482 111.935 10.6709C112.154 10.6545 112.374 10.6875 112.579 10.7676C112.783 10.8477 112.967 10.9728 113.117 11.1336C113.267 11.2945 113.378 11.4869 113.443 11.6968C113.509 11.9066 113.526 12.1284 113.494 12.3457V15.2607H112.605V12.5689C112.605 11.8453 112.291 11.4854 111.633 11.4854C111.485 11.4785 111.336 11.5038 111.198 11.5596C111.06 11.6154 110.936 11.7005 110.833 11.8089C110.731 11.9172 110.654 12.0464 110.606 12.1876C110.559 12.3287 110.542 12.4784 110.558 12.6265V15.2608H109.669V10.7579Z" fill="white"/>
<path d="M118.515 9.63672V10.7783H119.491V11.5269H118.515V13.8423C118.515 14.314 118.71 14.5205 119.152 14.5205C119.265 14.5201 119.378 14.5133 119.491 14.5V15.2402C119.331 15.2688 119.169 15.284 119.007 15.2856C118.019 15.2856 117.626 14.938 117.626 14.0698V11.5268H116.911V10.7783H117.626V9.63672H118.515Z" fill="white"/>
<path d="M120.705 9H121.585V11.4815H121.656C121.774 11.2221 121.969 11.0055 122.215 10.8612C122.461 10.7168 122.745 10.6518 123.029 10.6748C123.247 10.6629 123.465 10.6993 123.667 10.7814C123.869 10.8634 124.051 10.9891 124.199 11.1494C124.347 11.3098 124.458 11.5008 124.524 11.709C124.59 11.9171 124.609 12.1372 124.58 12.3535V15.2607H123.69V12.5728C123.69 11.8535 123.355 11.4893 122.727 11.4893C122.574 11.4767 122.421 11.4977 122.277 11.5508C122.133 11.6038 122.003 11.6877 121.895 11.7964C121.787 11.9051 121.704 12.0362 121.652 12.1803C121.6 12.3244 121.58 12.4782 121.593 12.6308V15.2607H120.705L120.705 9Z" fill="white"/>
<path d="M129.761 14.0449C129.641 14.4564 129.379 14.8124 129.022 15.0505C128.666 15.2887 128.236 15.3938 127.81 15.3476C127.513 15.3554 127.219 15.2986 126.946 15.1811C126.674 15.0636 126.43 14.8881 126.232 14.667C126.034 14.4459 125.887 14.1843 125.8 13.9005C125.713 13.6167 125.689 13.3174 125.73 13.0234C125.691 12.7285 125.715 12.4286 125.801 12.1439C125.888 11.8592 126.034 11.5965 126.231 11.3734C126.428 11.1503 126.671 10.9721 126.942 10.8509C127.214 10.7297 127.509 10.6683 127.806 10.6709C129.059 10.6709 129.815 11.5269 129.815 12.9409V13.2509H126.635V13.3007C126.621 13.466 126.642 13.6323 126.696 13.7891C126.75 13.9458 126.837 14.0895 126.95 14.211C127.062 14.3324 127.2 14.429 127.352 14.4944C127.504 14.5598 127.669 14.5926 127.835 14.5907C128.047 14.6163 128.262 14.578 128.453 14.4808C128.644 14.3836 128.802 14.2318 128.906 14.0448L129.761 14.0449ZM126.635 12.5937H128.91C128.921 12.4426 128.9 12.2908 128.849 12.1481C128.798 12.0053 128.718 11.8749 128.614 11.765C128.509 11.6551 128.383 11.5683 128.243 11.5102C128.103 11.452 127.953 11.4237 127.801 11.4272C127.648 11.4253 127.495 11.4541 127.353 11.5121C127.21 11.57 127.081 11.6559 126.972 11.7646C126.864 11.8733 126.778 12.0027 126.72 12.1451C126.662 12.2875 126.633 12.44 126.635 12.5937H126.635Z" fill="white"/>
</svg>
