<svg width="405" height="535" viewBox="0 0 405 535" fill="none" xmlns="http://www.w3.org/2000/svg">
<g opacity="0.95">
<g filter="url(#filter0_f)">
<circle cx="316.184" cy="267.457" r="186" transform="rotate(13.9747 316.184 267.457)" stroke="#99CFEB" stroke-width="6"/>
</g>
<g filter="url(#filter1_f)">
<circle cx="316.425" cy="266.487" r="141" transform="rotate(13.9747 316.425 266.487)" fill="#95FEF3" fill-opacity="0.14" style="mix-blend-mode:overlay"/>
</g>
<g filter="url(#filter2_d)">
<mask id="path-3-inside-1" fill="white">
<path fill-rule="evenodd" clip-rule="evenodd" d="M151.457 225.433C128.783 316.542 184.262 408.782 275.371 431.455C366.481 454.128 458.72 398.65 481.394 307.541C504.067 216.431 448.589 124.192 357.479 101.518L351.119 127.077C428.113 146.237 474.996 224.186 455.835 301.18C436.675 378.174 358.726 425.057 281.732 405.897C204.738 386.736 157.855 308.787 177.015 231.793L151.457 225.433Z"/>
</mask>
<path fill-rule="evenodd" clip-rule="evenodd" d="M151.457 225.433C128.783 316.542 184.262 408.782 275.371 431.455C366.481 454.128 458.72 398.65 481.394 307.541C504.067 216.431 448.589 124.192 357.479 101.518L351.119 127.077C428.113 146.237 474.996 224.186 455.835 301.18C436.675 378.174 358.726 425.057 281.732 405.897C204.738 386.736 157.855 308.787 177.015 231.793L151.457 225.433Z" fill="#6FA4FA"/>
<path d="M151.457 225.433L151.698 224.462L150.728 224.221L150.486 225.191L151.457 225.433ZM357.479 101.518L357.721 100.548L356.75 100.306L356.509 101.277L357.479 101.518ZM351.119 127.077L350.148 126.835L349.907 127.806L350.877 128.047L351.119 127.077ZM177.015 231.793L177.986 232.035L178.227 231.064L177.257 230.823L177.015 231.793ZM150.486 225.191C127.68 316.837 183.484 409.619 275.13 432.425L275.613 430.485C185.039 407.944 129.887 316.248 152.427 225.674L150.486 225.191ZM275.13 432.425C366.775 455.232 459.557 399.428 482.364 307.782L480.423 307.299C457.883 397.873 366.186 453.025 275.613 430.485L275.13 432.425ZM482.364 307.782C505.171 216.137 449.366 123.355 357.721 100.548L357.238 102.489C447.811 125.029 502.963 216.725 480.423 307.299L482.364 307.782ZM356.509 101.277L350.148 126.835L352.089 127.318L358.45 101.76L356.509 101.277ZM456.806 301.422C476.1 223.892 428.89 145.4 351.36 126.106L350.877 128.047C427.335 147.074 473.892 224.481 454.865 300.939L456.806 301.422ZM281.49 406.867C359.02 426.161 437.512 378.952 456.806 301.422L454.865 300.939C435.837 377.397 358.431 423.953 281.973 404.926L281.49 406.867ZM176.045 231.552C156.751 309.082 203.96 387.573 281.49 406.867L281.973 404.926C205.515 385.899 158.958 308.493 177.986 232.035L176.045 231.552ZM177.257 230.823L151.698 224.462L151.215 226.403L176.774 232.764L177.257 230.823Z" fill="#52B2EF" mask="url(#path-3-inside-1)"/>
</g>
<g filter="url(#filter3_d)">
<circle cx="316.425" cy="266.487" r="186" transform="rotate(13.9747 316.425 266.487)" stroke="#99CFEB" stroke-width="6"/>
</g>
<g filter="url(#filter4_f)">
<circle cx="316.425" cy="266.487" r="193" transform="rotate(13.9747 316.425 266.487)" stroke="#4143CC" stroke-width="2"/>
</g>
<g filter="url(#filter5_d)">
<path fill-rule="evenodd" clip-rule="evenodd" d="M344.179 154.963C384.904 165.132 418.556 197.322 428.491 241.052C442.554 302.948 403.778 364.525 341.881 378.588C279.985 392.651 218.408 353.875 204.345 291.978L183.798 296.647C200.439 369.891 273.306 415.776 346.55 399.135C419.794 382.494 465.679 309.628 449.038 236.384C437.281 184.637 397.46 146.545 349.268 134.512L344.179 154.963Z" fill="#46A0F8"/>
</g>
<g filter="url(#filter6_d)">
<mask id="path-8-inside-2" fill="white">
<path fill-rule="evenodd" clip-rule="evenodd" d="M318.612 357.483C358.585 356.546 394.609 329.138 404.732 288.462C416.869 239.692 387.172 190.317 338.401 178.18C289.631 166.043 240.256 195.74 228.119 244.511C218.079 284.853 236.664 325.609 270.992 345.36C271.095 344.893 271.229 344.408 271.397 343.904C273.147 338.635 279.299 338.199 281.838 340.281C282.416 340.756 281.903 341.473 281.155 341.491C275.707 341.619 275.943 346.785 278.377 349.169C280.289 350.046 282.241 350.861 284.233 351.611C284.228 350.474 284.435 349.195 284.91 347.764C286.69 342.407 293.71 342.231 295.959 344.72C296.44 345.252 295.843 345.864 295.128 345.799C288.514 345.202 289.937 353.618 294.134 354.181L294.009 354.682L294.203 354.732C294.256 354.745 294.308 354.758 294.36 354.771L294.449 354.793C295.596 355.079 296.743 355.341 297.891 355.58C297.773 354.266 297.952 352.743 298.534 350.992C300.313 345.635 307.334 345.459 309.582 347.948C310.063 348.48 309.466 349.092 308.751 349.027C302.876 348.497 303.343 355.079 306.463 356.95C308.207 357.145 309.949 357.287 311.685 357.38C311.664 356.21 311.867 354.889 312.361 353.402C314.14 348.045 321.161 347.869 323.409 350.358C323.891 350.891 323.294 351.502 322.579 351.438C318.045 351.028 317.288 354.855 318.612 357.483ZM390.538 283.384C380.468 323.848 339.503 348.487 299.04 338.417C258.577 328.347 233.938 287.382 244.007 246.919C254.077 206.456 295.042 181.817 335.506 191.886C375.969 201.956 400.608 242.921 390.538 283.384ZM254.803 249.09C254.558 250.073 254.337 251.057 254.14 252.04C263.807 249.522 273.991 248.11 284.461 247.916L283.975 247.823L284.543 244.877L298.046 247.481C298.113 247.003 298.196 246.524 298.294 246.045L282.682 243.185L279.369 237.331L285.539 234.651L299.608 241.709C299.793 241.257 299.991 240.813 300.201 240.378L288.044 234.421L289.364 231.727L301.674 237.759C302.423 236.604 303.265 235.524 304.188 234.528L294.748 222.898L297.077 221.008L306.368 232.453C306.742 232.138 307.126 231.835 307.519 231.545L296.739 218.515L297.967 211.902L304.415 213.817L311.115 229.34C311.552 229.122 311.996 228.917 312.446 228.726L306.481 215.251L309.224 214.036L315.284 227.725C317.302 227.153 319.41 226.841 321.559 226.82L323.192 212.213L326.173 212.546L324.559 226.979C325.042 227.035 325.526 227.106 326.009 227.193L327.712 210.557L333.287 206.792L336.446 212.73L330.12 228.305C330.581 228.475 331.035 228.657 331.48 228.853L336.873 215.209L339.663 216.312L334.159 230.235C335.98 231.326 337.626 232.644 339.07 234.14L350.499 225.155L352.353 227.514L341.016 236.426C341.309 236.818 341.59 237.218 341.859 237.626L354.85 227.215L361.444 228.546L359.429 234.964L343.881 241.387C344.074 241.836 344.253 242.291 344.418 242.751L357.962 237.007L359.134 239.769L345.256 245.655C345.544 246.956 345.724 248.289 345.791 249.642L359.751 250.091L359.655 253.089L345.748 252.642C345.711 253.126 345.659 253.611 345.591 254.097L361.759 254.466L365.954 259.725L360.283 263.344L344.595 258.377C344.441 258.844 344.274 259.302 344.094 259.753L357.847 263.966L356.976 266.809C365.435 271.753 373.152 277.513 380.003 283.914C380.349 282.786 380.667 281.643 380.955 280.484C389.624 245.648 368.412 210.38 333.576 201.711C298.74 193.042 263.472 214.254 254.803 249.09ZM252.549 261.506C276.45 253.378 334.659 248.182 376.156 292.267L378.34 290.211C335.726 244.939 276.09 250.331 251.583 258.666L252.549 261.506ZM252.314 268.661C276.225 260.529 331.518 254.618 373.01 298.698L375.194 296.641C332.575 251.364 275.846 257.489 251.348 265.821L252.314 268.661ZM252.929 276.543C276.854 268.406 327.774 261.421 369.258 305.493L371.442 303.436C328.816 258.151 276.446 265.376 251.963 273.703L252.929 276.543ZM254.635 284.181C266.624 280.104 283.888 275.975 303.316 278.355C322.708 280.73 344.355 289.599 365.141 311.682L367.326 309.625C346.057 287.03 323.765 277.837 303.681 275.377C283.633 272.922 265.885 277.186 253.669 281.341L254.635 284.181ZM340.709 305.556C320.919 283.628 291.049 286.328 279.574 290.342C277.255 299.658 282.748 310.712 285.785 315.074L286.861 315.342C286.909 314.704 287.05 314.005 287.303 313.243C288.402 309.935 292.054 309.43 293.965 310.488C294.619 310.851 294.153 311.548 293.411 311.641C290.411 312.016 290.461 314.962 291.82 316.576L296.078 317.636C296.145 317.089 296.278 316.5 296.488 315.867C297.614 312.477 301.826 312.14 303.636 313.474C304.214 313.9 303.664 314.504 302.946 314.511C300.203 314.539 299.859 317.129 300.833 318.819L305.326 319.937C305.387 319.36 305.523 318.735 305.748 318.061C306.873 314.671 311.086 314.334 312.896 315.668C313.474 316.094 312.923 316.698 312.205 316.705C309.392 316.733 309.103 319.459 310.171 321.143L315.219 322.399C315.281 321.822 315.417 321.197 315.641 320.523C316.767 317.134 320.979 316.796 322.789 318.13C323.367 318.556 322.817 319.16 322.099 319.167C319.285 319.195 318.996 321.921 320.064 323.605L323.145 324.372C323.145 324.372 337.932 316.716 340.709 305.556ZM291.715 293.313L292.098 298.749L297.386 300.065L292.334 302.108L292.717 307.544L289.212 303.371L284.161 305.415L287.047 300.792L283.542 296.62L288.83 297.936L291.715 293.313ZM311.502 299.456L311.119 294.02L308.234 298.642L302.946 297.326L306.45 301.499L303.565 306.122L308.616 304.078L312.12 308.251L311.738 302.815L316.789 300.772L311.502 299.456ZM328.591 302.49L328.973 307.926L334.261 309.242L329.21 311.285L329.592 316.721L326.088 312.548L321.036 314.591L323.922 309.969L320.417 305.796L325.705 307.112L328.591 302.49Z"/>
</mask>
<path fill-rule="evenodd" clip-rule="evenodd" d="M318.612 357.483C358.585 356.546 394.609 329.138 404.732 288.462C416.869 239.692 387.172 190.317 338.401 178.18C289.631 166.043 240.256 195.74 228.119 244.511C218.079 284.853 236.664 325.609 270.992 345.36C271.095 344.893 271.229 344.408 271.397 343.904C273.147 338.635 279.299 338.199 281.838 340.281C282.416 340.756 281.903 341.473 281.155 341.491C275.707 341.619 275.943 346.785 278.377 349.169C280.289 350.046 282.241 350.861 284.233 351.611C284.228 350.474 284.435 349.195 284.91 347.764C286.69 342.407 293.71 342.231 295.959 344.72C296.44 345.252 295.843 345.864 295.128 345.799C288.514 345.202 289.937 353.618 294.134 354.181L294.009 354.682L294.203 354.732C294.256 354.745 294.308 354.758 294.36 354.771L294.449 354.793C295.596 355.079 296.743 355.341 297.891 355.58C297.773 354.266 297.952 352.743 298.534 350.992C300.313 345.635 307.334 345.459 309.582 347.948C310.063 348.48 309.466 349.092 308.751 349.027C302.876 348.497 303.343 355.079 306.463 356.95C308.207 357.145 309.949 357.287 311.685 357.38C311.664 356.21 311.867 354.889 312.361 353.402C314.14 348.045 321.161 347.869 323.409 350.358C323.891 350.891 323.294 351.502 322.579 351.438C318.045 351.028 317.288 354.855 318.612 357.483ZM390.538 283.384C380.468 323.848 339.503 348.487 299.04 338.417C258.577 328.347 233.938 287.382 244.007 246.919C254.077 206.456 295.042 181.817 335.506 191.886C375.969 201.956 400.608 242.921 390.538 283.384ZM254.803 249.09C254.558 250.073 254.337 251.057 254.14 252.04C263.807 249.522 273.991 248.11 284.461 247.916L283.975 247.823L284.543 244.877L298.046 247.481C298.113 247.003 298.196 246.524 298.294 246.045L282.682 243.185L279.369 237.331L285.539 234.651L299.608 241.709C299.793 241.257 299.991 240.813 300.201 240.378L288.044 234.421L289.364 231.727L301.674 237.759C302.423 236.604 303.265 235.524 304.188 234.528L294.748 222.898L297.077 221.008L306.368 232.453C306.742 232.138 307.126 231.835 307.519 231.545L296.739 218.515L297.967 211.902L304.415 213.817L311.115 229.34C311.552 229.122 311.996 228.917 312.446 228.726L306.481 215.251L309.224 214.036L315.284 227.725C317.302 227.153 319.41 226.841 321.559 226.82L323.192 212.213L326.173 212.546L324.559 226.979C325.042 227.035 325.526 227.106 326.009 227.193L327.712 210.557L333.287 206.792L336.446 212.73L330.12 228.305C330.581 228.475 331.035 228.657 331.48 228.853L336.873 215.209L339.663 216.312L334.159 230.235C335.98 231.326 337.626 232.644 339.07 234.14L350.499 225.155L352.353 227.514L341.016 236.426C341.309 236.818 341.59 237.218 341.859 237.626L354.85 227.215L361.444 228.546L359.429 234.964L343.881 241.387C344.074 241.836 344.253 242.291 344.418 242.751L357.962 237.007L359.134 239.769L345.256 245.655C345.544 246.956 345.724 248.289 345.791 249.642L359.751 250.091L359.655 253.089L345.748 252.642C345.711 253.126 345.659 253.611 345.591 254.097L361.759 254.466L365.954 259.725L360.283 263.344L344.595 258.377C344.441 258.844 344.274 259.302 344.094 259.753L357.847 263.966L356.976 266.809C365.435 271.753 373.152 277.513 380.003 283.914C380.349 282.786 380.667 281.643 380.955 280.484C389.624 245.648 368.412 210.38 333.576 201.711C298.74 193.042 263.472 214.254 254.803 249.09ZM252.549 261.506C276.45 253.378 334.659 248.182 376.156 292.267L378.34 290.211C335.726 244.939 276.09 250.331 251.583 258.666L252.549 261.506ZM252.314 268.661C276.225 260.529 331.518 254.618 373.01 298.698L375.194 296.641C332.575 251.364 275.846 257.489 251.348 265.821L252.314 268.661ZM252.929 276.543C276.854 268.406 327.774 261.421 369.258 305.493L371.442 303.436C328.816 258.151 276.446 265.376 251.963 273.703L252.929 276.543ZM254.635 284.181C266.624 280.104 283.888 275.975 303.316 278.355C322.708 280.73 344.355 289.599 365.141 311.682L367.326 309.625C346.057 287.03 323.765 277.837 303.681 275.377C283.633 272.922 265.885 277.186 253.669 281.341L254.635 284.181ZM340.709 305.556C320.919 283.628 291.049 286.328 279.574 290.342C277.255 299.658 282.748 310.712 285.785 315.074L286.861 315.342C286.909 314.704 287.05 314.005 287.303 313.243C288.402 309.935 292.054 309.43 293.965 310.488C294.619 310.851 294.153 311.548 293.411 311.641C290.411 312.016 290.461 314.962 291.82 316.576L296.078 317.636C296.145 317.089 296.278 316.5 296.488 315.867C297.614 312.477 301.826 312.14 303.636 313.474C304.214 313.9 303.664 314.504 302.946 314.511C300.203 314.539 299.859 317.129 300.833 318.819L305.326 319.937C305.387 319.36 305.523 318.735 305.748 318.061C306.873 314.671 311.086 314.334 312.896 315.668C313.474 316.094 312.923 316.698 312.205 316.705C309.392 316.733 309.103 319.459 310.171 321.143L315.219 322.399C315.281 321.822 315.417 321.197 315.641 320.523C316.767 317.134 320.979 316.796 322.789 318.13C323.367 318.556 322.817 319.16 322.099 319.167C319.285 319.195 318.996 321.921 320.064 323.605L323.145 324.372C323.145 324.372 337.932 316.716 340.709 305.556ZM291.715 293.313L292.098 298.749L297.386 300.065L292.334 302.108L292.717 307.544L289.212 303.371L284.161 305.415L287.047 300.792L283.542 296.62L288.83 297.936L291.715 293.313ZM311.502 299.456L311.119 294.02L308.234 298.642L302.946 297.326L306.45 301.499L303.565 306.122L308.616 304.078L312.12 308.251L311.738 302.815L316.789 300.772L311.502 299.456ZM328.591 302.49L328.973 307.926L334.261 309.242L329.21 311.285L329.592 316.721L326.088 312.548L321.036 314.591L323.922 309.969L320.417 305.796L325.705 307.112L328.591 302.49Z" fill="#DFFDF8"/>
<path d="M318.612 357.483L317.719 357.933L318.003 358.498L318.635 358.483L318.612 357.483ZM270.992 345.36L270.493 346.227L271.674 346.906L271.968 345.576L270.992 345.36ZM271.397 343.904L272.346 344.219L272.346 344.219L271.397 343.904ZM281.838 340.281L281.204 341.054L281.204 341.054L281.838 340.281ZM281.155 341.491L281.131 340.491L281.155 341.491ZM278.377 349.169L277.677 349.883L277.802 350.005L277.96 350.078L278.377 349.169ZM284.233 351.611L283.88 352.547L285.239 353.059L285.233 351.607L284.233 351.611ZM284.91 347.764L285.859 348.079L284.91 347.764ZM295.959 344.72L296.701 344.049L295.959 344.72ZM295.128 345.799L295.038 346.795L295.038 346.795L295.128 345.799ZM294.134 354.181L295.104 354.422L295.374 353.338L294.267 353.19L294.134 354.181ZM294.009 354.682L293.038 354.441L292.798 355.408L293.764 355.652L294.009 354.682ZM294.203 354.732L293.958 355.701L293.959 355.701L294.203 354.732ZM294.36 354.771L294.118 355.741L294.118 355.741L294.36 354.771ZM294.449 354.793L294.207 355.763L294.208 355.764L294.449 354.793ZM297.891 355.58L297.686 356.559L299.007 356.835L298.887 355.491L297.891 355.58ZM298.534 350.992L297.585 350.677L298.534 350.992ZM309.582 347.948L310.324 347.277L309.582 347.948ZM308.751 349.027L308.662 350.023L308.662 350.023L308.751 349.027ZM306.463 356.95L305.948 357.808L306.135 357.92L306.352 357.944L306.463 356.95ZM311.685 357.38L311.632 358.379L312.705 358.436L312.685 357.362L311.685 357.38ZM312.361 353.402L313.31 353.717L312.361 353.402ZM323.409 350.358L322.667 351.029L322.667 351.029L323.409 350.358ZM322.579 351.438L322.669 350.442L322.669 350.442L322.579 351.438ZM254.14 252.04L253.159 251.843L252.844 253.41L254.392 253.007L254.14 252.04ZM284.461 247.916L284.48 248.916L284.651 246.934L284.461 247.916ZM283.975 247.823L282.993 247.633L282.804 248.615L283.786 248.804L283.975 247.823ZM284.543 244.877L284.732 243.895L283.751 243.706L283.561 244.687L284.543 244.877ZM298.046 247.481L297.856 248.463L298.888 248.662L299.036 247.622L298.046 247.481ZM298.294 246.045L299.273 246.245L299.477 245.245L298.474 245.062L298.294 246.045ZM282.682 243.185L281.812 243.678L282.042 244.085L282.502 244.169L282.682 243.185ZM279.369 237.331L278.971 236.413L277.952 236.856L278.499 237.823L279.369 237.331ZM285.539 234.651L285.988 233.757L285.57 233.547L285.141 233.734L285.539 234.651ZM299.608 241.709L299.16 242.603L300.125 243.087L300.534 242.087L299.608 241.709ZM300.201 240.378L301.102 240.812L301.533 239.917L300.641 239.48L300.201 240.378ZM288.044 234.421L287.146 233.981L286.706 234.879L287.604 235.319L288.044 234.421ZM289.364 231.727L289.804 230.829L288.906 230.389L288.466 231.287L289.364 231.727ZM301.674 237.759L301.234 238.657L302.03 239.047L302.513 238.303L301.674 237.759ZM304.188 234.528L304.922 235.208L305.511 234.571L304.964 233.898L304.188 234.528ZM294.748 222.898L294.117 222.122L293.341 222.752L293.971 223.529L294.748 222.898ZM297.077 221.008L297.853 220.377L297.223 219.601L296.447 220.231L297.077 221.008ZM306.368 232.453L305.591 233.083L306.232 233.872L307.01 233.219L306.368 232.453ZM307.519 231.545L308.114 232.348L308.962 231.72L308.29 230.907L307.519 231.545ZM296.739 218.515L295.756 218.333L295.671 218.793L295.969 219.153L296.739 218.515ZM297.967 211.902L298.251 210.943L297.186 210.627L296.983 211.719L297.967 211.902ZM304.415 213.817L305.333 213.42L305.148 212.991L304.7 212.858L304.415 213.817ZM311.115 229.34L310.196 229.737L310.615 230.707L311.561 230.235L311.115 229.34ZM312.446 228.726L312.837 229.647L313.772 229.25L313.361 228.321L312.446 228.726ZM306.481 215.251L306.076 214.336L305.162 214.741L305.567 215.656L306.481 215.251ZM309.224 214.036L310.139 213.632L309.734 212.717L308.819 213.122L309.224 214.036ZM315.284 227.725L314.37 228.13L314.721 228.924L315.557 228.687L315.284 227.725ZM321.559 226.82L321.569 227.82L322.454 227.811L322.552 226.931L321.559 226.82ZM323.192 212.213L323.303 211.219L322.309 211.108L322.198 212.101L323.192 212.213ZM326.173 212.546L327.167 212.657L327.278 211.663L326.284 211.552L326.173 212.546ZM324.559 226.979L323.566 226.868L323.455 227.857L324.444 227.972L324.559 226.979ZM326.009 227.193L325.834 228.177L326.895 228.367L327.004 227.295L326.009 227.193ZM327.712 210.557L327.153 209.728L326.765 209.99L326.718 210.455L327.712 210.557ZM333.287 206.792L334.169 206.322L333.648 205.341L332.727 205.963L333.287 206.792ZM336.446 212.73L337.372 213.107L337.548 212.673L337.329 212.261L336.446 212.73ZM330.12 228.305L329.194 227.929L328.804 228.887L329.775 229.244L330.12 228.305ZM331.48 228.853L331.078 229.768L332.028 230.185L332.41 229.22L331.48 228.853ZM336.873 215.209L337.241 214.279L336.311 213.911L335.943 214.841L336.873 215.209ZM339.663 216.312L340.593 216.679L340.961 215.749L340.031 215.382L339.663 216.312ZM334.159 230.235L333.229 229.868L332.917 230.657L333.645 231.093L334.159 230.235ZM339.07 234.14L338.35 234.834L338.978 235.484L339.688 234.926L339.07 234.14ZM350.499 225.155L351.285 224.537L350.667 223.751L349.881 224.369L350.499 225.155ZM352.353 227.514L352.971 228.3L353.757 227.682L353.139 226.896L352.353 227.514ZM341.016 236.426L340.398 235.64L339.63 236.244L340.216 237.026L341.016 236.426ZM341.859 237.626L341.023 238.176L341.627 239.093L342.484 238.406L341.859 237.626ZM354.85 227.215L355.048 226.235L354.59 226.142L354.225 226.435L354.85 227.215ZM361.444 228.546L362.398 228.846L362.731 227.785L361.642 227.566L361.444 228.546ZM359.429 234.964L359.81 235.888L360.242 235.709L360.383 235.263L359.429 234.964ZM343.881 241.387L343.5 240.462L342.563 240.849L342.962 241.781L343.881 241.387ZM344.418 242.751L343.476 243.088L343.833 244.085L344.808 243.672L344.418 242.751ZM357.962 237.007L358.883 236.616L358.492 235.696L357.572 236.086L357.962 237.007ZM359.134 239.769L359.524 240.689L360.445 240.299L360.054 239.378L359.134 239.769ZM345.256 245.655L344.865 244.734L344.099 245.059L344.279 245.871L345.256 245.655ZM345.791 249.642L344.792 249.69L344.837 250.611L345.758 250.641L345.791 249.642ZM359.751 250.091L360.751 250.123L360.783 249.124L359.783 249.091L359.751 250.091ZM359.655 253.089L359.623 254.089L360.622 254.121L360.654 253.122L359.655 253.089ZM345.748 252.642L345.781 251.642L344.825 251.612L344.751 252.565L345.748 252.642ZM345.591 254.097L344.601 253.96L344.446 255.071L345.568 255.097L345.591 254.097ZM361.759 254.466L362.541 253.843L362.25 253.477L361.782 253.467L361.759 254.466ZM365.954 259.725L366.492 260.568L367.428 259.97L366.735 259.102L365.954 259.725ZM360.283 263.344L359.982 264.298L360.427 264.439L360.821 264.187L360.283 263.344ZM344.595 258.377L344.897 257.424L343.955 257.126L343.646 258.064L344.595 258.377ZM344.094 259.753L343.165 259.382L342.762 260.391L343.801 260.709L344.094 259.753ZM357.847 263.966L358.803 264.259L359.096 263.303L358.14 263.01L357.847 263.966ZM356.976 266.809L356.02 266.516L355.788 267.273L356.471 267.672L356.976 266.809ZM380.003 283.914L379.32 284.644L380.489 285.737L380.959 284.207L380.003 283.914ZM376.156 292.267L375.428 292.952L376.113 293.681L376.841 292.995L376.156 292.267ZM252.549 261.506L251.602 261.828L251.924 262.775L252.871 262.453L252.549 261.506ZM378.34 290.211L379.026 290.939L379.754 290.254L379.068 289.525L378.34 290.211ZM251.583 258.666L251.261 257.719L250.314 258.041L250.636 258.988L251.583 258.666ZM373.01 298.698L372.281 299.383L372.967 300.111L373.695 299.426L373.01 298.698ZM252.314 268.661L251.367 268.983L251.689 269.93L252.636 269.608L252.314 268.661ZM375.194 296.641L375.88 297.37L376.608 296.684L375.922 295.956L375.194 296.641ZM251.348 265.821L251.026 264.874L250.079 265.196L250.401 266.143L251.348 265.821ZM369.258 305.493L368.529 306.178L369.215 306.906L369.943 306.221L369.258 305.493ZM252.929 276.543L251.982 276.865L252.304 277.812L253.251 277.49L252.929 276.543ZM371.442 303.436L372.128 304.165L372.856 303.479L372.17 302.751L371.442 303.436ZM251.963 273.703L251.641 272.756L250.694 273.078L251.016 274.025L251.963 273.703ZM303.316 278.355L303.438 277.362L303.316 278.355ZM254.635 284.181L253.688 284.503L254.01 285.45L254.957 285.128L254.635 284.181ZM365.141 311.682L364.413 312.367L365.098 313.095L365.827 312.41L365.141 311.682ZM367.326 309.625L368.011 310.354L368.739 309.668L368.054 308.94L367.326 309.625ZM303.681 275.377L303.559 276.37L303.681 275.377ZM253.669 281.341L253.347 280.394L252.4 280.716L252.722 281.663L253.669 281.341ZM279.574 290.342L279.243 289.398L278.734 289.577L278.603 290.101L279.574 290.342ZM340.709 305.556L341.679 305.798L341.808 305.282L341.451 304.886L340.709 305.556ZM285.785 315.074L284.964 315.646L285.179 315.954L285.543 316.045L285.785 315.074ZM286.861 315.342L286.62 316.313L287.77 316.599L287.858 315.417L286.861 315.342ZM287.303 313.243L286.354 312.928L287.303 313.243ZM293.965 310.488L294.449 309.613L293.965 310.488ZM293.411 311.641L293.535 312.633L293.411 311.641ZM291.82 316.576L291.055 317.22L291.264 317.468L291.579 317.547L291.82 316.576ZM296.078 317.636L295.837 318.606L296.935 318.88L297.071 317.756L296.078 317.636ZM296.488 315.867L295.539 315.551L296.488 315.867ZM303.636 313.474L303.043 314.279L303.636 313.474ZM302.946 314.511L302.956 315.511L302.946 314.511ZM300.833 318.819L299.966 319.318L300.179 319.687L300.591 319.79L300.833 318.819ZM305.326 319.937L305.084 320.908L306.199 321.185L306.32 320.043L305.326 319.937ZM305.748 318.061L306.697 318.376L306.697 318.376L305.748 318.061ZM312.896 315.668L312.302 316.473L312.896 315.668ZM312.205 316.705L312.195 315.705L312.195 315.705L312.205 316.705ZM310.171 321.143L309.327 321.679L309.541 322.017L309.93 322.114L310.171 321.143ZM315.219 322.399L314.978 323.37L316.092 323.647L316.214 322.505L315.219 322.399ZM315.641 320.523L314.692 320.208L315.641 320.523ZM322.789 318.13L322.196 318.935L322.789 318.13ZM322.099 319.167L322.089 318.167L322.099 319.167ZM320.064 323.605L319.22 324.141L319.434 324.479L319.823 324.576L320.064 323.605ZM323.145 324.372L322.904 325.342L323.27 325.433L323.605 325.26L323.145 324.372ZM292.098 298.749L291.1 298.819L291.151 299.544L291.856 299.719L292.098 298.749ZM291.715 293.313L292.713 293.243L292.497 290.173L290.867 292.784L291.715 293.313ZM297.386 300.065L297.761 300.992L300.614 299.838L297.627 299.094L297.386 300.065ZM292.334 302.108L291.959 301.181L291.286 301.454L291.337 302.179L292.334 302.108ZM292.717 307.544L291.951 308.187L293.93 310.544L293.714 307.474L292.717 307.544ZM289.212 303.371L289.978 302.728L289.511 302.172L288.837 302.444L289.212 303.371ZM284.161 305.415L283.313 304.885L281.683 307.496L284.536 306.342L284.161 305.415ZM287.047 300.792L287.895 301.322L288.28 300.706L287.812 300.149L287.047 300.792ZM283.542 296.62L283.784 295.649L280.797 294.906L282.776 297.263L283.542 296.62ZM288.83 297.936L288.588 298.906L289.293 299.081L289.678 298.465L288.83 297.936ZM311.119 294.02L312.117 293.95L311.901 290.88L310.271 293.491L311.119 294.02ZM311.502 299.456L310.504 299.526L310.555 300.251L311.26 300.426L311.502 299.456ZM308.234 298.642L307.992 299.613L308.697 299.788L309.082 299.172L308.234 298.642ZM302.946 297.326L303.187 296.356L300.201 295.613L302.18 297.97L302.946 297.326ZM306.45 301.499L307.298 302.029L307.683 301.412L307.216 300.856L306.45 301.499ZM303.565 306.122L302.716 305.592L301.087 308.203L303.94 307.049L303.565 306.122ZM308.616 304.078L309.382 303.435L308.915 302.879L308.241 303.151L308.616 304.078ZM312.12 308.251L311.355 308.894L313.334 311.251L313.118 308.181L312.12 308.251ZM311.738 302.815L311.363 301.888L310.689 302.161L310.74 302.885L311.738 302.815ZM316.789 300.772L317.164 301.699L320.017 300.544L317.031 299.801L316.789 300.772ZM328.973 307.926L327.976 307.996L328.027 308.721L328.732 308.896L328.973 307.926ZM328.591 302.49L329.588 302.42L329.372 299.35L327.742 301.96L328.591 302.49ZM334.261 309.242L334.636 310.169L337.489 309.014L334.503 308.271L334.261 309.242ZM329.21 311.285L328.835 310.358L328.161 310.631L328.212 311.355L329.21 311.285ZM329.592 316.721L328.826 317.364L330.806 319.721L330.59 316.65L329.592 316.721ZM326.088 312.548L326.853 311.905L326.386 311.349L325.713 311.621L326.088 312.548ZM321.036 314.591L320.188 314.062L318.558 316.673L321.411 315.519L321.036 314.591ZM323.922 309.969L324.77 310.499L325.155 309.882L324.688 309.326L323.922 309.969ZM320.417 305.796L320.659 304.826L317.672 304.083L319.652 306.44L320.417 305.796ZM325.705 307.112L325.464 308.083L326.169 308.258L326.553 307.642L325.705 307.112ZM403.761 288.221C393.751 328.448 358.123 355.556 318.589 356.483L318.635 358.483C359.047 357.535 395.468 329.827 405.702 288.704L403.761 288.221ZM338.16 179.15C386.394 191.154 415.765 239.987 403.761 288.221L405.702 288.704C417.973 239.398 387.949 189.48 338.643 177.21L338.16 179.15ZM229.089 244.752C241.093 196.518 289.925 167.147 338.16 179.15L338.643 177.21C289.336 164.939 239.419 194.963 227.148 244.269L229.089 244.752ZM271.491 344.494C237.54 324.959 219.16 284.65 229.089 244.752L227.148 244.269C216.998 285.056 235.789 326.259 270.493 346.227L271.491 344.494ZM270.448 343.589C270.27 344.123 270.127 344.642 270.015 345.144L271.968 345.576C272.064 345.145 272.188 344.693 272.346 344.219L270.448 343.589ZM282.472 339.508C280.906 338.223 278.389 337.8 276.084 338.364C273.721 338.943 271.445 340.586 270.448 343.589L272.346 344.219C273.098 341.953 274.774 340.744 276.559 340.307C278.402 339.856 280.231 340.257 281.204 341.054L282.472 339.508ZM281.179 342.49C281.846 342.475 282.494 342.148 282.844 341.585C283.025 341.293 283.133 340.917 283.068 340.509C283.001 340.096 282.773 339.755 282.472 339.508L281.204 341.054C281.192 341.045 281.116 340.972 281.093 340.827C281.071 340.687 281.113 340.581 281.144 340.53C281.174 340.483 281.197 340.474 281.187 340.479C281.181 340.482 281.162 340.49 281.131 340.491L281.179 342.49ZM279.077 348.454C278.07 347.468 277.547 345.913 277.791 344.678C277.908 344.088 278.196 343.58 278.687 343.204C279.186 342.823 279.972 342.519 281.179 342.49L281.131 340.491C279.613 340.527 278.386 340.917 277.473 341.615C276.553 342.318 276.03 343.275 275.829 344.29C275.438 346.266 276.25 348.485 277.677 349.883L279.077 348.454ZM284.585 350.676C282.616 349.933 280.685 349.127 278.794 348.26L277.96 350.078C279.893 350.964 281.867 351.789 283.88 352.547L284.585 350.676ZM283.961 347.448C283.457 348.966 283.228 350.353 283.233 351.615L285.233 351.607C285.229 350.595 285.413 349.424 285.859 348.079L283.961 347.448ZM296.701 344.049C295.265 342.46 292.543 341.877 290.083 342.315C287.55 342.767 284.992 344.346 283.961 347.448L285.859 348.079C286.608 345.825 288.45 344.638 290.434 344.284C292.491 343.918 294.404 344.491 295.216 345.39L296.701 344.049ZM295.038 346.795C295.679 346.853 296.342 346.619 296.756 346.129C296.971 345.874 297.134 345.526 297.132 345.118C297.131 344.702 296.959 344.335 296.701 344.049L295.216 345.39C295.199 345.371 295.133 345.279 295.132 345.126C295.132 344.981 295.191 344.882 295.228 344.838C295.262 344.798 295.284 344.793 295.272 344.798C295.264 344.801 295.244 344.806 295.218 344.803L295.038 346.795ZM294.267 353.19C293.551 353.094 292.899 352.656 292.399 351.964C291.897 351.269 291.598 350.378 291.577 349.53C291.555 348.682 291.807 347.965 292.291 347.493C292.76 347.035 293.594 346.665 295.038 346.795L295.218 344.803C293.355 344.635 291.886 345.093 290.894 346.062C289.915 347.018 289.545 348.328 289.577 349.581C289.609 350.832 290.04 352.113 290.778 353.135C291.519 354.161 292.618 354.987 294.001 355.172L294.267 353.19ZM294.979 354.924L295.104 354.422L293.163 353.939L293.038 354.441L294.979 354.924ZM294.448 353.762L294.254 353.713L293.764 355.652L293.958 355.701L294.448 353.762ZM294.603 353.801C294.551 353.788 294.499 353.775 294.447 353.762L293.959 355.701C294.012 355.715 294.065 355.728 294.118 355.741L294.603 353.801ZM294.691 353.823L294.602 353.801L294.118 355.741L294.207 355.763L294.691 353.823ZM298.095 354.601C296.96 354.365 295.825 354.105 294.691 353.823L294.208 355.764C295.367 356.052 296.527 356.317 297.686 356.559L298.095 354.601ZM297.585 350.677C296.968 352.534 296.763 354.195 296.895 355.669L298.887 355.491C298.783 354.337 298.936 352.953 299.483 351.307L297.585 350.677ZM310.324 347.277C308.888 345.688 306.167 345.105 303.707 345.543C301.173 345.995 298.615 347.574 297.585 350.677L299.483 351.307C300.232 349.053 302.074 347.866 304.058 347.512C306.115 347.146 308.028 347.719 308.84 348.618L310.324 347.277ZM308.662 350.023C309.303 350.081 309.965 349.847 310.38 349.357C310.595 349.102 310.758 348.754 310.756 348.346C310.754 347.931 310.582 347.563 310.324 347.277L308.84 348.618C308.823 348.599 308.757 348.508 308.756 348.354C308.755 348.209 308.815 348.11 308.851 348.067C308.886 348.026 308.907 348.022 308.896 348.026C308.887 348.029 308.868 348.034 308.841 348.031L308.662 350.023ZM306.977 356.093C305.799 355.386 305.042 353.684 305.226 352.213C305.314 351.514 305.606 350.945 306.091 350.567C306.576 350.19 307.376 349.907 308.662 350.023L308.841 348.031C307.19 347.882 305.845 348.224 304.862 348.99C303.88 349.755 303.382 350.849 303.242 351.964C302.971 354.119 304.007 356.643 305.948 357.808L306.977 356.093ZM311.738 356.381C310.021 356.29 308.299 356.149 306.573 355.956L306.352 357.944C308.116 358.141 309.876 358.285 311.632 358.379L311.738 356.381ZM311.412 353.087C310.889 354.663 310.661 356.098 310.685 357.398L312.685 357.362C312.666 356.323 312.846 355.114 313.31 353.717L311.412 353.087ZM324.151 349.688C322.715 348.098 319.994 347.515 317.534 347.954C315.001 348.405 312.443 349.984 311.412 353.087L313.31 353.717C314.059 351.463 315.901 350.276 317.885 349.923C319.942 349.556 321.855 350.129 322.667 351.029L324.151 349.688ZM322.489 352.434C323.13 352.492 323.792 352.258 324.207 351.767C324.422 351.512 324.585 351.164 324.583 350.757C324.581 350.341 324.409 349.973 324.151 349.688L322.667 351.029C322.65 351.009 322.584 350.918 322.583 350.765C322.583 350.619 322.642 350.52 322.678 350.477C322.713 350.436 322.734 350.432 322.723 350.436C322.714 350.44 322.695 350.444 322.669 350.442L322.489 352.434ZM319.505 357.033C318.946 355.924 318.875 354.642 319.301 353.753C319.505 353.326 319.828 352.973 320.305 352.735C320.791 352.494 321.495 352.344 322.489 352.434L322.669 350.442C321.396 350.327 320.304 350.502 319.414 350.945C318.516 351.391 317.883 352.082 317.496 352.89C316.741 354.468 316.953 356.414 317.719 357.933L319.505 357.033ZM298.798 339.387C339.798 349.591 381.305 324.625 391.508 283.626L389.568 283.143C379.631 323.07 339.209 347.383 299.281 337.447L298.798 339.387ZM243.037 246.677C232.834 287.677 257.799 329.184 298.798 339.387L299.281 337.447C259.354 327.51 235.041 287.088 244.978 247.16L243.037 246.677ZM335.747 190.916C294.748 180.713 253.24 205.678 243.037 246.677L244.978 247.16C254.914 207.233 295.337 182.92 335.264 192.857L335.747 190.916ZM391.508 283.626C401.712 242.627 376.746 201.119 335.747 190.916L335.264 192.857C375.191 202.793 399.504 243.216 389.568 283.143L391.508 283.626ZM255.12 252.236C255.314 251.268 255.532 250.3 255.773 249.332L253.832 248.849C253.584 249.846 253.36 250.845 253.159 251.843L255.12 252.236ZM284.443 246.917C273.894 247.111 263.632 248.535 253.888 251.072L254.392 253.007C263.982 250.51 274.087 249.108 284.48 248.916L284.443 246.917ZM283.786 248.804L284.272 248.898L284.651 246.934L284.164 246.841L283.786 248.804ZM283.561 244.687L282.993 247.633L284.957 248.012L285.525 245.066L283.561 244.687ZM298.235 246.499L284.732 243.895L284.354 245.859L297.856 248.463L298.235 246.499ZM297.314 245.845C297.212 246.344 297.126 246.843 297.055 247.341L299.036 247.622C299.101 247.163 299.18 246.704 299.273 246.245L297.314 245.845ZM282.502 244.169L298.113 247.029L298.474 245.062L282.862 242.202L282.502 244.169ZM278.499 237.823L281.812 243.678L283.552 242.693L280.24 236.838L278.499 237.823ZM285.141 233.734L278.971 236.413L279.768 238.248L285.938 235.568L285.141 233.734ZM300.057 240.815L285.988 233.757L285.091 235.545L299.16 242.603L300.057 240.815ZM299.3 239.944C299.081 240.397 298.875 240.86 298.683 241.33L300.534 242.087C300.711 241.655 300.9 241.229 301.102 240.812L299.3 239.944ZM287.604 235.319L299.761 241.276L300.641 239.48L288.484 233.523L287.604 235.319ZM288.466 231.287L287.146 233.981L288.942 234.861L290.262 232.167L288.466 231.287ZM302.114 236.861L289.804 230.829L288.924 232.625L301.234 238.657L302.114 236.861ZM303.454 233.849C302.493 234.886 301.615 236.011 300.835 237.215L302.513 238.303C303.23 237.197 304.038 236.162 304.922 235.208L303.454 233.849ZM293.971 223.529L303.412 235.158L304.964 233.898L295.524 222.268L293.971 223.529ZM296.447 220.231L294.117 222.122L295.378 223.675L297.707 221.784L296.447 220.231ZM307.144 231.823L297.853 220.377L296.3 221.638L305.591 233.083L307.144 231.823ZM306.924 230.741C306.515 231.044 306.115 231.359 305.725 231.687L307.01 233.219C307.37 232.917 307.738 232.627 308.114 232.348L306.924 230.741ZM295.969 219.153L306.749 232.182L308.29 230.907L297.51 217.878L295.969 219.153ZM296.983 211.719L295.756 218.333L297.722 218.698L298.95 212.084L296.983 211.719ZM304.7 212.858L298.251 210.943L297.682 212.86L304.13 214.775L304.7 212.858ZM312.033 228.944L305.333 213.42L303.497 214.213L310.196 229.737L312.033 228.944ZM312.055 227.806C311.586 228.005 311.124 228.218 310.668 228.445L311.561 230.235C311.98 230.026 312.406 229.83 312.837 229.647L312.055 227.806ZM305.567 215.656L311.532 229.131L313.361 228.321L307.395 214.846L305.567 215.656ZM308.819 213.122L306.076 214.336L306.886 216.165L309.629 214.951L308.819 213.122ZM316.199 227.32L310.139 213.632L308.31 214.441L314.37 228.13L316.199 227.32ZM321.549 225.82C319.31 225.842 317.114 226.167 315.011 226.763L315.557 228.687C317.491 228.139 319.51 227.84 321.569 227.82L321.549 225.82ZM322.198 212.101L320.565 226.709L322.552 226.931L324.186 212.324L322.198 212.101ZM326.284 211.552L323.303 211.219L323.081 213.206L326.062 213.54L326.284 211.552ZM325.553 227.09L327.167 212.657L325.18 212.435L323.566 226.868L325.553 227.09ZM326.185 226.208C325.681 226.118 325.178 226.044 324.675 225.986L324.444 227.972C324.906 228.026 325.37 228.094 325.834 228.177L326.185 226.208ZM326.718 210.455L325.015 227.091L327.004 227.295L328.707 210.659L326.718 210.455ZM332.727 205.963L327.153 209.728L328.272 211.386L333.846 207.62L332.727 205.963ZM337.329 212.261L334.169 206.322L332.404 207.261L335.563 213.2L337.329 212.261ZM331.047 228.682L337.372 213.107L335.52 212.354L329.194 227.929L331.047 228.682ZM331.881 227.937C331.418 227.733 330.945 227.543 330.465 227.367L329.775 229.244C330.217 229.406 330.652 229.581 331.078 229.768L331.881 227.937ZM335.943 214.841L330.55 228.485L332.41 229.22L337.803 215.576L335.943 214.841ZM340.031 215.382L337.241 214.279L336.506 216.139L339.296 217.242L340.031 215.382ZM335.089 230.603L340.593 216.679L338.733 215.944L333.229 229.868L335.089 230.603ZM339.79 233.446C338.286 231.887 336.57 230.514 334.673 229.378L333.645 231.093C335.389 232.138 336.967 233.4 338.35 234.834L339.79 233.446ZM349.881 224.369L338.452 233.354L339.688 234.926L351.117 225.941L349.881 224.369ZM353.139 226.896L351.285 224.537L349.713 225.773L351.567 228.132L353.139 226.896ZM341.634 237.212L352.971 228.3L351.735 226.728L340.398 235.64L341.634 237.212ZM342.694 237.076C342.414 236.651 342.122 236.234 341.816 235.827L340.216 237.026C340.496 237.401 340.766 237.784 341.023 238.176L342.694 237.076ZM354.225 226.435L341.233 236.846L342.484 238.406L355.476 227.995L354.225 226.435ZM361.642 227.566L355.048 226.235L354.652 228.195L361.246 229.526L361.642 227.566ZM360.383 235.263L362.398 228.846L360.49 228.246L358.474 234.664L360.383 235.263ZM344.263 242.311L359.81 235.888L359.047 234.039L343.5 240.462L344.263 242.311ZM345.359 242.414C345.187 241.934 345.001 241.46 344.801 240.993L342.962 241.781C343.147 242.211 343.318 242.647 343.476 243.088L345.359 242.414ZM357.572 236.086L344.027 241.831L344.808 243.672L358.353 237.927L357.572 236.086ZM360.054 239.378L358.883 236.616L357.042 237.397L358.213 240.159L360.054 239.378ZM345.646 246.575L359.524 240.689L358.743 238.848L344.865 244.734L345.646 246.575ZM346.789 249.593C346.721 248.184 346.532 246.795 346.232 245.438L344.279 245.871C344.555 247.118 344.728 248.395 344.792 249.69L346.789 249.593ZM359.783 249.091L345.823 248.642L345.758 250.641L359.719 251.09L359.783 249.091ZM360.654 253.122L360.751 250.123L358.752 250.059L358.655 253.057L360.654 253.122ZM345.716 253.641L359.623 254.089L359.687 252.09L345.781 251.642L345.716 253.641ZM346.582 254.235C346.652 253.728 346.707 253.223 346.745 252.719L344.751 252.565C344.716 253.029 344.665 253.494 344.601 253.96L346.582 254.235ZM361.782 253.467L345.614 253.097L345.568 255.097L361.736 255.466L361.782 253.467ZM366.735 259.102L362.541 253.843L360.977 255.09L365.172 260.349L366.735 259.102ZM360.821 264.187L366.492 260.568L365.416 258.882L359.745 262.502L360.821 264.187ZM344.293 259.331L359.982 264.298L360.585 262.391L344.897 257.424L344.293 259.331ZM345.022 260.124C345.21 259.654 345.384 259.177 345.545 258.691L343.646 258.064C343.498 258.511 343.338 258.95 343.165 259.382L345.022 260.124ZM358.14 263.01L344.387 258.797L343.801 260.709L357.554 264.923L358.14 263.01ZM357.932 267.102L358.803 264.259L356.89 263.674L356.02 266.516L357.932 267.102ZM380.685 283.183C373.779 276.731 366.003 270.927 357.48 265.945L356.471 267.672C364.867 272.579 372.524 278.295 379.32 284.644L380.685 283.183ZM379.984 280.243C379.7 281.384 379.388 282.51 379.047 283.62L380.959 284.207C381.31 283.062 381.633 281.902 381.925 280.726L379.984 280.243ZM333.334 202.681C367.634 211.217 388.52 245.943 379.984 280.243L381.925 280.726C390.728 245.354 369.189 209.543 333.817 200.741L333.334 202.681ZM255.773 249.332C264.309 215.032 299.034 194.146 333.334 202.681L333.817 200.741C298.445 191.938 262.635 213.477 253.832 248.849L255.773 249.332ZM376.884 291.582C335.015 247.101 276.331 252.362 252.227 260.56L252.871 262.453C276.57 254.393 334.304 249.263 375.428 292.952L376.884 291.582ZM377.655 289.483L375.47 291.539L376.841 292.995L379.026 290.939L377.655 289.483ZM251.905 259.613C276.211 251.347 335.371 246.02 377.612 290.896L379.068 289.525C336.082 243.857 275.97 249.316 251.261 257.719L251.905 259.613ZM253.496 261.184L252.53 258.344L250.636 258.988L251.602 261.828L253.496 261.184ZM373.738 298.012C331.871 253.533 276.099 259.516 251.992 267.715L252.636 269.608C276.35 261.543 331.166 255.702 372.281 299.383L373.738 298.012ZM374.509 295.913L372.324 297.969L373.695 299.426L375.88 297.37L374.509 295.913ZM251.67 266.768C275.973 258.503 332.223 252.449 374.466 297.327L375.922 295.956C332.928 250.279 275.72 256.476 251.026 264.874L251.67 266.768ZM253.261 268.339L252.295 265.499L250.401 266.143L251.367 268.983L253.261 268.339ZM369.986 304.807C328.121 260.331 276.719 267.396 252.607 275.596L253.251 277.49C276.99 269.416 327.426 262.511 368.529 306.178L369.986 304.807ZM370.757 302.708L368.572 304.764L369.943 306.221L372.128 304.165L370.757 302.708ZM252.285 274.65C276.583 266.386 328.469 259.241 370.714 304.122L372.17 302.751C329.163 257.061 276.31 264.366 251.641 272.756L252.285 274.65ZM253.876 276.221L252.91 273.381L251.016 274.025L251.982 276.865L253.876 276.221ZM303.438 277.362C283.803 274.958 266.377 279.131 254.313 283.234L254.957 285.128C266.87 281.076 283.973 276.993 303.195 279.347L303.438 277.362ZM365.869 310.996C344.922 288.742 323.06 279.765 303.438 277.362L303.195 279.347C322.355 281.694 343.787 290.455 364.413 312.367L365.869 310.996ZM366.64 308.897L364.456 310.954L365.827 312.41L368.011 310.354L366.64 308.897ZM303.559 276.37C323.413 278.801 345.49 287.886 366.597 310.311L368.054 308.94C346.624 286.174 324.118 276.872 303.803 274.384L303.559 276.37ZM253.991 282.288C266.131 278.159 283.718 273.94 303.559 276.37L303.803 274.384C283.548 271.904 265.638 276.214 253.347 280.394L253.991 282.288ZM255.582 283.859L254.616 281.019L252.722 281.663L253.688 284.503L255.582 283.859ZM279.904 291.286C285.492 289.331 295.669 287.669 306.887 289.212C318.087 290.752 330.264 295.476 339.966 306.226L341.451 304.886C331.363 293.709 318.711 288.819 307.159 287.23C295.626 285.644 285.13 287.339 279.243 289.398L279.904 291.286ZM286.605 314.503C285.139 312.396 283.052 308.629 281.622 304.255C280.188 299.871 279.449 294.986 280.544 290.584L278.603 290.101C277.38 295.015 278.229 300.315 279.721 304.877C281.216 309.449 283.394 313.39 284.964 315.646L286.605 314.503ZM287.103 314.372L286.026 314.104L285.543 316.045L286.62 316.313L287.103 314.372ZM286.354 312.928C286.078 313.758 285.918 314.537 285.864 315.268L287.858 315.417C287.899 314.87 288.021 314.253 288.252 313.558L286.354 312.928ZM294.449 309.613C293.228 308.937 291.549 308.794 290.028 309.275C288.466 309.768 287.015 310.938 286.354 312.928L288.252 313.558C288.69 312.24 289.614 311.503 290.631 311.182C291.688 310.848 292.791 310.981 293.48 311.363L294.449 309.613ZM293.535 312.633C294.149 312.556 294.773 312.22 295.088 311.648C295.255 311.344 295.347 310.938 295.213 310.51C295.081 310.085 294.774 309.793 294.449 309.613L293.48 311.363C293.483 311.364 293.363 311.296 293.304 311.106C293.244 310.914 293.296 310.756 293.336 310.683C293.372 310.618 293.402 310.607 293.382 310.619C293.367 310.628 293.334 310.643 293.287 310.649L293.535 312.633ZM292.585 315.932C292.07 315.32 291.837 314.48 291.963 313.836C292.022 313.532 292.157 313.281 292.373 313.088C292.59 312.894 292.947 312.707 293.535 312.633L293.287 310.649C292.375 310.763 291.614 311.084 291.039 311.598C290.463 312.113 290.133 312.77 290 313.452C289.741 314.778 290.211 316.218 291.055 317.22L292.585 315.932ZM296.32 316.666L292.062 315.606L291.579 317.547L295.837 318.606L296.32 316.666ZM295.539 315.551C295.31 316.241 295.161 316.895 295.086 317.516L297.071 317.756C297.129 317.282 297.245 316.759 297.437 316.182L295.539 315.551ZM304.229 312.669C303.035 311.788 301.209 311.533 299.572 311.927C297.886 312.332 296.232 313.466 295.539 315.551L297.437 316.182C297.87 314.878 298.885 314.149 300.039 313.871C301.242 313.582 302.428 313.825 303.043 314.279L304.229 312.669ZM302.956 315.511C303.554 315.505 304.194 315.256 304.575 314.752C304.777 314.484 304.931 314.101 304.861 313.658C304.791 313.216 304.525 312.886 304.229 312.669L303.043 314.279C303.036 314.274 302.918 314.18 302.885 313.971C302.852 313.762 302.931 313.609 302.979 313.547C303.022 313.489 303.051 313.483 303.029 313.493C303.012 313.501 302.978 313.511 302.936 313.511L302.956 315.511ZM301.699 318.32C301.33 317.679 301.247 316.914 301.438 316.377C301.528 316.125 301.674 315.928 301.883 315.786C302.094 315.642 302.429 315.516 302.956 315.511L302.936 313.511C302.091 313.52 301.355 313.728 300.76 314.131C300.164 314.535 299.771 315.096 299.554 315.706C299.131 316.894 299.362 318.269 299.966 319.318L301.699 318.32ZM305.567 318.967L301.074 317.849L300.591 319.79L305.084 320.908L305.567 318.967ZM304.799 317.745C304.555 318.48 304.401 319.175 304.331 319.832L306.32 320.043C306.373 319.545 306.492 318.991 306.697 318.376L304.799 317.745ZM313.489 314.863C312.294 313.982 310.469 313.727 308.831 314.121C307.145 314.526 305.491 315.66 304.799 317.745L306.697 318.376C307.13 317.072 308.145 316.343 309.299 316.065C310.502 315.776 311.687 316.019 312.302 316.473L313.489 314.863ZM312.215 317.705C312.814 317.699 313.453 317.45 313.834 316.946C314.037 316.678 314.19 316.295 314.12 315.852C314.05 315.41 313.784 315.08 313.489 314.863L312.302 316.473C312.296 316.468 312.178 316.374 312.145 316.165C312.112 315.956 312.191 315.803 312.239 315.741C312.282 315.683 312.311 315.677 312.288 315.687C312.271 315.695 312.238 315.705 312.195 315.705L312.215 317.705ZM311.015 320.607C310.613 319.974 310.5 319.179 310.684 318.612C310.77 318.346 310.917 318.139 311.126 317.991C311.337 317.843 311.675 317.711 312.215 317.705L312.195 315.705C311.328 315.714 310.576 315.933 309.975 316.356C309.372 316.78 308.985 317.365 308.781 317.995C308.384 319.219 308.66 320.629 309.327 321.679L311.015 320.607ZM315.461 321.429L310.413 320.173L309.93 322.114L314.978 323.37L315.461 321.429ZM314.692 320.208C314.448 320.942 314.295 321.637 314.225 322.294L316.214 322.505C316.267 322.007 316.386 321.453 316.59 320.838L314.692 320.208ZM323.382 317.325C322.188 316.444 320.362 316.189 318.725 316.583C317.039 316.988 315.385 318.122 314.692 320.208L316.59 320.838C317.023 319.534 318.038 318.805 319.192 318.527C320.395 318.238 321.581 318.481 322.196 318.935L323.382 317.325ZM322.109 320.167C322.707 320.161 323.347 319.912 323.728 319.408C323.93 319.14 324.084 318.757 324.014 318.314C323.944 317.872 323.678 317.542 323.382 317.325L322.196 318.935C322.19 318.93 322.071 318.836 322.038 318.627C322.005 318.418 322.084 318.266 322.132 318.203C322.175 318.145 322.204 318.139 322.182 318.149C322.165 318.157 322.131 318.167 322.089 318.167L322.109 320.167ZM320.909 323.069C320.507 322.436 320.393 321.641 320.577 321.074C320.663 320.808 320.81 320.601 321.019 320.454C321.23 320.305 321.569 320.173 322.109 320.167L322.089 318.167C321.222 318.176 320.469 318.395 319.868 318.818C319.265 319.242 318.879 319.827 318.675 320.457C318.278 321.681 318.554 323.091 319.22 324.141L320.909 323.069ZM323.387 323.401L320.306 322.635L319.823 324.576L322.904 325.342L323.387 323.401ZM339.738 305.315C338.43 310.574 334.249 315.105 330.252 318.375C328.271 319.996 326.373 321.277 324.97 322.153C324.269 322.59 323.693 322.925 323.295 323.15C323.096 323.262 322.941 323.347 322.837 323.403C322.785 323.431 322.746 323.452 322.721 323.465C322.708 323.472 322.698 323.477 322.693 323.48C322.69 323.482 322.687 323.483 322.686 323.483C322.686 323.484 322.685 323.484 322.685 323.484C322.685 323.484 322.685 323.484 322.685 323.484C322.685 323.484 322.685 323.484 323.145 324.372C323.605 325.26 323.605 325.26 323.606 325.26C323.606 325.259 323.606 325.259 323.607 325.259C323.607 325.259 323.608 325.258 323.61 325.258C323.612 325.256 323.615 325.255 323.619 325.252C323.628 325.248 323.64 325.242 323.655 325.234C323.685 325.218 323.73 325.194 323.787 325.163C323.901 325.102 324.067 325.011 324.277 324.892C324.698 324.655 325.3 324.304 326.028 323.85C327.484 322.941 329.456 321.611 331.519 319.923C335.61 316.575 340.211 311.699 341.679 305.798L339.738 305.315ZM293.095 298.679L292.713 293.243L290.718 293.383L291.1 298.819L293.095 298.679ZM297.627 299.094L292.339 297.778L291.856 299.719L297.144 301.035L297.627 299.094ZM292.709 303.035L297.761 300.992L297.011 299.138L291.959 301.181L292.709 303.035ZM293.714 307.474L293.332 302.038L291.337 302.179L291.719 307.614L293.714 307.474ZM288.447 304.014L291.951 308.187L293.483 306.901L289.978 302.728L288.447 304.014ZM284.536 306.342L289.587 304.298L288.837 302.444L283.786 304.488L284.536 306.342ZM286.198 300.263L283.313 304.885L285.009 305.944L287.895 301.322L286.198 300.263ZM282.776 297.263L286.281 301.436L287.812 300.149L284.308 295.977L282.776 297.263ZM289.071 296.965L283.784 295.649L283.301 297.59L288.588 298.906L289.071 296.965ZM290.867 292.784L287.982 297.406L289.678 298.465L292.564 293.843L290.867 292.784ZM310.122 294.09L310.504 299.526L312.499 299.385L312.117 293.95L310.122 294.09ZM309.082 299.172L311.967 294.55L310.271 293.491L307.385 298.113L309.082 299.172ZM302.704 298.297L307.992 299.613L308.475 297.672L303.187 296.356L302.704 298.297ZM307.216 300.856L303.711 296.683L302.18 297.97L305.684 302.142L307.216 300.856ZM304.413 306.651L307.298 302.029L305.602 300.97L302.716 305.592L304.413 306.651ZM308.241 303.151L303.19 305.194L303.94 307.049L308.991 305.005L308.241 303.151ZM312.886 307.608L309.382 303.435L307.85 304.721L311.355 308.894L312.886 307.608ZM310.74 302.885L311.123 308.321L313.118 308.181L312.735 302.745L310.74 302.885ZM316.414 299.845L311.363 301.888L312.113 303.742L317.164 301.699L316.414 299.845ZM311.26 300.426L316.548 301.742L317.031 299.801L311.743 298.485L311.26 300.426ZM329.971 307.855L329.588 302.42L327.593 302.56L327.976 307.996L329.971 307.855ZM334.503 308.271L329.215 306.955L328.732 308.896L334.02 310.212L334.503 308.271ZM329.585 312.212L334.636 310.169L333.886 308.315L328.835 310.358L329.585 312.212ZM330.59 316.65L330.207 311.215L328.212 311.355L328.595 316.791L330.59 316.65ZM325.322 313.191L328.826 317.364L330.358 316.078L326.853 311.905L325.322 313.191ZM321.411 315.519L326.463 313.475L325.713 311.621L320.661 313.664L321.411 315.519ZM323.074 309.44L320.188 314.062L321.885 315.121L324.77 310.499L323.074 309.44ZM319.652 306.44L323.156 310.612L324.688 309.326L321.183 305.153L319.652 306.44ZM325.947 306.142L320.659 304.826L320.176 306.767L325.464 308.083L325.947 306.142ZM327.742 301.96L324.857 306.583L326.553 307.642L329.439 303.02L327.742 301.96Z" fill="#B8FFF8" mask="url(#path-8-inside-2)"/>
</g>
<g filter="url(#filter7_d)">
<circle cx="215.442" cy="297.518" r="1.5" transform="rotate(13.9747 215.442 297.518)" fill="#99CFEB"/>
</g>
<g filter="url(#filter8_d)">
<circle cx="187.055" cy="287.362" r="1.5" transform="rotate(13.9747 187.055 287.362)" fill="#99CFEB"/>
</g>
<g filter="url(#filter9_d)">
<circle cx="208.276" cy="286.976" r="1" transform="rotate(13.9747 208.276 286.976)" fill="#99CFEB"/>
</g>
<g filter="url(#filter10_d)">
<circle cx="321.2" cy="481.139" r="1.5" transform="rotate(153.696 321.2 481.139)" fill="#99CFEB"/>
</g>
<g filter="url(#filter11_d)">
<circle cx="349.423" cy="470.534" r="1.5" transform="rotate(153.696 349.423 470.534)" fill="#99CFEB"/>
</g>
<g filter="url(#filter12_d)">
<circle cx="333.483" cy="484.549" r="1" transform="rotate(153.696 333.483 484.549)" fill="#99CFEB"/>
</g>
<g filter="url(#filter13_d)">
<circle cx="221.317" cy="234.574" r="1" transform="rotate(13.9747 221.317 234.574)" fill="#99CFEB"/>
</g>
<g filter="url(#filter14_d)">
<circle cx="179.844" cy="235.589" r="1" transform="rotate(13.9747 179.844 235.589)" fill="#99CFEB"/>
</g>
<g filter="url(#filter15_d)">
<circle cx="102.449" cy="211.176" r="2" transform="rotate(13.9747 102.449 211.176)" fill="#99CFEB"/>
</g>
<g filter="url(#filter16_d)">
<circle cx="122.209" cy="204.242" r="1.5" transform="rotate(13.9747 122.209 204.242)" fill="#99CFEB"/>
</g>
<g filter="url(#filter17_d)">
<circle cx="10.8159" cy="366.133" r="1.5" transform="rotate(13.9747 10.8159 366.133)" fill="#99CFEB"/>
</g>
</g>
<path d="M44.264 37.2C45.752 37.2 47.04 37.448 48.128 37.944C49.232 38.44 50.08 39.144 50.672 40.056C51.264 40.968 51.56 42.048 51.56 43.296C51.56 44.528 51.264 45.608 50.672 46.536C50.08 47.448 49.232 48.152 48.128 48.648C47.04 49.128 45.752 49.368 44.264 49.368H40.88V54H36.992V37.2H44.264ZM44.048 46.2C45.216 46.2 46.104 45.952 46.712 45.456C47.32 44.944 47.624 44.224 47.624 43.296C47.624 42.352 47.32 41.632 46.712 41.136C46.104 40.624 45.216 40.368 44.048 40.368H40.88V46.2H44.048ZM58.1277 42.792C58.5757 42.168 59.1757 41.696 59.9277 41.376C60.6957 41.056 61.5757 40.896 62.5677 40.896V44.352C62.1518 44.32 61.8718 44.304 61.7278 44.304C60.6558 44.304 59.8157 44.608 59.2077 45.216C58.5997 45.808 58.2957 46.704 58.2957 47.904V54H54.5517V41.088H58.1277V42.792ZM71.3007 54.192C69.9407 54.192 68.7167 53.912 67.6287 53.352C66.5567 52.776 65.7167 51.984 65.1087 50.976C64.5007 49.968 64.1967 48.824 64.1967 47.544C64.1967 46.264 64.5007 45.12 65.1087 44.112C65.7167 43.104 66.5567 42.32 67.6287 41.76C68.7167 41.184 69.9407 40.896 71.3007 40.896C72.6607 40.896 73.8767 41.184 74.9487 41.76C76.0208 42.32 76.8608 43.104 77.4688 44.112C78.0767 45.12 78.3807 46.264 78.3807 47.544C78.3807 48.824 78.0767 49.968 77.4688 50.976C76.8608 51.984 76.0208 52.776 74.9487 53.352C73.8767 53.912 72.6607 54.192 71.3007 54.192ZM71.3007 51.12C72.2607 51.12 73.0447 50.8 73.6527 50.16C74.2767 49.504 74.5887 48.632 74.5887 47.544C74.5887 46.456 74.2767 45.592 73.6527 44.952C73.0447 44.296 72.2607 43.968 71.3007 43.968C70.3407 43.968 69.5487 44.296 68.9247 44.952C68.3007 45.592 67.9887 46.456 67.9887 47.544C67.9887 48.632 68.3007 49.504 68.9247 50.16C69.5487 50.8 70.3407 51.12 71.3007 51.12ZM85.7073 54.192C84.6353 54.192 83.5873 54.064 82.5633 53.808C81.5393 53.536 80.7233 53.2 80.1153 52.8L81.3633 50.112C81.9393 50.48 82.6353 50.784 83.4513 51.024C84.2673 51.248 85.0673 51.36 85.8513 51.36C87.4353 51.36 88.2273 50.968 88.2273 50.184C88.2273 49.816 88.0113 49.552 87.5793 49.392C87.1473 49.232 86.4833 49.096 85.5873 48.984C84.5313 48.824 83.6593 48.64 82.9713 48.432C82.2833 48.224 81.6833 47.856 81.1713 47.328C80.6753 46.8 80.4273 46.048 80.4273 45.072C80.4273 44.256 80.6593 43.536 81.1233 42.912C81.6033 42.272 82.2913 41.776 83.1873 41.424C84.0993 41.072 85.1713 40.896 86.4033 40.896C87.3153 40.896 88.2193 41 89.1153 41.208C90.0273 41.4 90.7793 41.672 91.3713 42.024L90.1233 44.688C88.9873 44.048 87.7473 43.728 86.4033 43.728C85.6033 43.728 85.0033 43.84 84.6033 44.064C84.2033 44.288 84.0033 44.576 84.0033 44.928C84.0033 45.328 84.2193 45.608 84.6513 45.768C85.0833 45.928 85.7713 46.08 86.7153 46.224C87.7713 46.4 88.6353 46.592 89.3073 46.8C89.9793 46.992 90.5633 47.352 91.0593 47.88C91.5553 48.408 91.8033 49.144 91.8033 50.088C91.8033 50.888 91.5633 51.6 91.0833 52.224C90.6033 52.848 89.8993 53.336 88.9713 53.688C88.0593 54.024 86.9713 54.192 85.7073 54.192ZM102.225 40.896C103.425 40.896 104.513 41.176 105.489 41.736C106.481 42.28 107.257 43.056 107.817 44.064C108.377 45.056 108.657 46.216 108.657 47.544C108.657 48.872 108.377 50.04 107.817 51.048C107.257 52.04 106.481 52.816 105.489 53.376C104.513 53.92 103.425 54.192 102.225 54.192C100.577 54.192 99.2813 53.672 98.3373 52.632V58.656H94.5933V41.088H98.1693V42.576C99.0973 41.456 100.449 40.896 102.225 40.896ZM101.577 51.12C102.537 51.12 103.321 50.8 103.929 50.16C104.553 49.504 104.865 48.632 104.865 47.544C104.865 46.456 104.553 45.592 103.929 44.952C103.321 44.296 102.537 43.968 101.577 43.968C100.617 43.968 99.8253 44.296 99.2013 44.952C98.5933 45.592 98.2893 46.456 98.2893 47.544C98.2893 48.632 98.5933 49.504 99.2013 50.16C99.8253 50.8 100.617 51.12 101.577 51.12ZM124.292 47.592C124.292 47.64 124.268 47.976 124.22 48.6H114.452C114.628 49.4 115.044 50.032 115.7 50.496C116.356 50.96 117.172 51.192 118.148 51.192C118.82 51.192 119.412 51.096 119.924 50.904C120.452 50.696 120.94 50.376 121.388 49.944L123.38 52.104C122.164 53.496 120.388 54.192 118.052 54.192C116.596 54.192 115.308 53.912 114.188 53.352C113.068 52.776 112.204 51.984 111.596 50.976C110.988 49.968 110.684 48.824 110.684 47.544C110.684 46.28 110.98 45.144 111.572 44.136C112.18 43.112 113.004 42.32 114.044 41.76C115.1 41.184 116.276 40.896 117.572 40.896C118.836 40.896 119.98 41.168 121.004 41.712C122.028 42.256 122.828 43.04 123.404 44.064C123.996 45.072 124.292 46.248 124.292 47.592ZM117.596 43.728C116.748 43.728 116.036 43.968 115.46 44.448C114.884 44.928 114.532 45.584 114.404 46.416H120.764C120.636 45.6 120.284 44.952 119.708 44.472C119.132 43.976 118.428 43.728 117.596 43.728ZM133.504 54.192C132.128 54.192 130.888 53.912 129.784 53.352C128.696 52.776 127.84 51.984 127.216 50.976C126.608 49.968 126.304 48.824 126.304 47.544C126.304 46.264 126.608 45.12 127.216 44.112C127.84 43.104 128.696 42.32 129.784 41.76C130.888 41.184 132.128 40.896 133.504 40.896C134.864 40.896 136.048 41.184 137.056 41.76C138.08 42.32 138.824 43.128 139.288 44.184L136.384 45.744C135.712 44.56 134.744 43.968 133.48 43.968C132.504 43.968 131.696 44.288 131.056 44.928C130.416 45.568 130.096 46.44 130.096 47.544C130.096 48.648 130.416 49.52 131.056 50.16C131.696 50.8 132.504 51.12 133.48 51.12C134.76 51.12 135.728 50.528 136.384 49.344L139.288 50.928C138.824 51.952 138.08 52.752 137.056 53.328C136.048 53.904 134.864 54.192 133.504 54.192ZM150.439 53.376C150.071 53.648 149.615 53.856 149.071 54C148.543 54.128 147.983 54.192 147.391 54.192C145.855 54.192 144.663 53.8 143.815 53.016C142.983 52.232 142.567 51.08 142.567 49.56V44.256H140.575V41.376H142.567V38.232H146.311V41.376H149.527V44.256H146.311V49.512C146.311 50.056 146.447 50.48 146.719 50.784C147.007 51.072 147.407 51.216 147.919 51.216C148.511 51.216 149.015 51.056 149.431 50.736L150.439 53.376ZM157.365 54.192C156.293 54.192 155.245 54.064 154.221 53.808C153.197 53.536 152.381 53.2 151.773 52.8L153.021 50.112C153.597 50.48 154.293 50.784 155.109 51.024C155.925 51.248 156.725 51.36 157.509 51.36C159.093 51.36 159.885 50.968 159.885 50.184C159.885 49.816 159.669 49.552 159.237 49.392C158.805 49.232 158.141 49.096 157.245 48.984C156.189 48.824 155.317 48.64 154.629 48.432C153.941 48.224 153.341 47.856 152.829 47.328C152.333 46.8 152.085 46.048 152.085 45.072C152.085 44.256 152.317 43.536 152.781 42.912C153.261 42.272 153.949 41.776 154.845 41.424C155.757 41.072 156.829 40.896 158.061 40.896C158.973 40.896 159.877 41 160.773 41.208C161.685 41.4 162.437 41.672 163.029 42.024L161.781 44.688C160.645 44.048 159.405 43.728 158.061 43.728C157.261 43.728 156.661 43.84 156.261 44.064C155.861 44.288 155.661 44.576 155.661 44.928C155.661 45.328 155.877 45.608 156.309 45.768C156.741 45.928 157.429 46.08 158.373 46.224C159.429 46.4 160.293 46.592 160.965 46.8C161.637 46.992 162.221 47.352 162.717 47.88C163.213 48.408 163.461 49.144 163.461 50.088C163.461 50.888 163.221 51.6 162.741 52.224C162.261 52.848 161.557 53.336 160.629 53.688C159.717 54.024 158.629 54.192 157.365 54.192Z" fill="white" fill-opacity="0.15"/>
<path d="M33.228 324.307H35.152V327.999C34.658 328.372 34.086 328.658 33.436 328.857C32.786 329.056 32.1317 329.156 31.473 329.156C30.5283 329.156 29.679 328.957 28.925 328.558C28.171 328.151 27.5773 327.592 27.144 326.881C26.7193 326.162 26.507 325.351 26.507 324.45C26.507 323.549 26.7193 322.743 27.144 322.032C27.5773 321.313 28.1753 320.754 28.938 320.355C29.7007 319.948 30.5587 319.744 31.512 319.744C32.3093 319.744 33.033 319.878 33.683 320.147C34.333 320.416 34.879 320.806 35.321 321.317L33.969 322.565C33.319 321.88 32.5347 321.538 31.616 321.538C31.0353 321.538 30.5197 321.659 30.069 321.902C29.6183 322.145 29.2673 322.487 29.016 322.929C28.7647 323.371 28.639 323.878 28.639 324.45C28.639 325.013 28.7647 325.516 29.016 325.958C29.2673 326.4 29.614 326.747 30.056 326.998C30.5067 327.241 31.018 327.362 31.59 327.362C32.1967 327.362 32.7427 327.232 33.228 326.972V324.307ZM39.1623 322.929C39.405 322.591 39.73 322.335 40.1373 322.162C40.5533 321.989 41.03 321.902 41.5673 321.902V323.774C41.342 323.757 41.1903 323.748 41.1123 323.748C40.5316 323.748 40.0766 323.913 39.7473 324.242C39.418 324.563 39.2533 325.048 39.2533 325.698V329H37.2253V322.006H39.1623V322.929ZM46.2977 329.104C45.561 329.104 44.898 328.952 44.3087 328.649C43.728 328.337 43.273 327.908 42.9437 327.362C42.6143 326.816 42.4497 326.196 42.4497 325.503C42.4497 324.81 42.6143 324.19 42.9437 323.644C43.273 323.098 43.728 322.673 44.3087 322.37C44.898 322.058 45.561 321.902 46.2977 321.902C47.0343 321.902 47.693 322.058 48.2737 322.37C48.8543 322.673 49.3093 323.098 49.6387 323.644C49.968 324.19 50.1327 324.81 50.1327 325.503C50.1327 326.196 49.968 326.816 49.6387 327.362C49.3093 327.908 48.8543 328.337 48.2737 328.649C47.693 328.952 47.0343 329.104 46.2977 329.104ZM46.2977 327.44C46.8177 327.44 47.2423 327.267 47.5717 326.92C47.9097 326.565 48.0787 326.092 48.0787 325.503C48.0787 324.914 47.9097 324.446 47.5717 324.099C47.2423 323.744 46.8177 323.566 46.2977 323.566C45.7777 323.566 45.3487 323.744 45.0107 324.099C44.6727 324.446 44.5037 324.914 44.5037 325.503C44.5037 326.092 44.6727 326.565 45.0107 326.92C45.3487 327.267 45.7777 327.44 46.2977 327.44ZM62.7898 322.006L60.2548 329H58.3048L56.7318 324.658L55.1068 329H53.1568L50.6348 322.006H52.5458L54.1968 326.738L55.9128 322.006H57.6288L59.2928 326.738L60.9958 322.006H62.7898ZM68.694 328.662C68.4947 328.809 68.2477 328.922 67.953 329C67.667 329.069 67.3637 329.104 67.043 329.104C66.211 329.104 65.5654 328.892 65.106 328.467C64.6554 328.042 64.43 327.418 64.43 326.595V323.722H63.351V322.162H64.43V320.459H66.458V322.162H68.2V323.722H66.458V326.569C66.458 326.864 66.5317 327.093 66.679 327.258C66.835 327.414 67.0517 327.492 67.329 327.492C67.6497 327.492 67.9227 327.405 68.148 327.232L68.694 328.662ZM74.3434 321.902C75.2101 321.902 75.9078 322.162 76.4364 322.682C76.9738 323.202 77.2424 323.973 77.2424 324.996V329H75.2144V325.308C75.2144 324.753 75.0931 324.342 74.8504 324.073C74.6078 323.796 74.2568 323.657 73.7974 323.657C73.2861 323.657 72.8788 323.817 72.5754 324.138C72.2721 324.45 72.1204 324.918 72.1204 325.542V329H70.0924V319.354H72.1204V322.734C72.3891 322.465 72.7141 322.262 73.0954 322.123C73.4768 321.976 73.8928 321.902 74.3434 321.902Z" fill="white" fill-opacity="0.15"/>
<defs>
<filter id="filter0_f" x="49.1354" y="0.408569" width="534.097" height="534.097" filterUnits="userSpaceOnUse" color-interpolation-filters="sRGB">
<feFlood flood-opacity="0" result="BackgroundImageFix"/>
<feBlend mode="normal" in="SourceGraphic" in2="BackgroundImageFix" result="shape"/>
<feGaussianBlur stdDeviation="19" result="effect1_foregroundBlur"/>
</filter>
<filter id="filter1_f" x="95.5479" y="45.6093" width="441.755" height="441.755" filterUnits="userSpaceOnUse" color-interpolation-filters="sRGB">
<feFlood flood-opacity="0" result="BackgroundImageFix"/>
<feBlend mode="normal" in="SourceGraphic" in2="BackgroundImageFix" result="shape"/>
<feGaussianBlur stdDeviation="25" result="effect1_foregroundBlur"/>
</filter>
<filter id="filter2_d" x="104.403" y="54.4642" width="424.045" height="424.045" filterUnits="userSpaceOnUse" color-interpolation-filters="sRGB">
<feFlood flood-opacity="0" result="BackgroundImageFix"/>
<feColorMatrix in="SourceAlpha" type="matrix" values="0 0 0 0 0 0 0 0 0 0 0 0 0 0 0 0 0 0 127 0"/>
<feOffset/>
<feGaussianBlur stdDeviation="3"/>
<feColorMatrix type="matrix" values="0 0 0 0 0.196078 0 0 0 0 0.639216 0 0 0 0 0.858824 0 0 0 1 0"/>
<feBlend mode="normal" in2="BackgroundImageFix" result="effect1_dropShadow"/>
<feBlend mode="normal" in="SourceGraphic" in2="effect1_dropShadow" result="shape"/>
</filter>
<filter id="filter3_d" x="82.3769" y="32.4382" width="468.097" height="468.097" filterUnits="userSpaceOnUse" color-interpolation-filters="sRGB">
<feFlood flood-opacity="0" result="BackgroundImageFix"/>
<feColorMatrix in="SourceAlpha" type="matrix" values="0 0 0 0 0 0 0 0 0 0 0 0 0 0 0 0 0 0 127 0"/>
<feOffset/>
<feGaussianBlur stdDeviation="2.5"/>
<feColorMatrix type="matrix" values="0 0 0 0 0.494118 0 0 0 0 0.796078 0 0 0 0 0.901961 0 0 0 1 0"/>
<feBlend mode="normal" in2="BackgroundImageFix" result="effect1_dropShadow"/>
<feBlend mode="normal" in="SourceGraphic" in2="effect1_dropShadow" result="shape"/>
</filter>
<filter id="filter4_f" x="79.3174" y="29.3787" width="474.216" height="474.216" filterUnits="userSpaceOnUse" color-interpolation-filters="sRGB">
<feFlood flood-opacity="0" result="BackgroundImageFix"/>
<feBlend mode="normal" in="SourceGraphic" in2="BackgroundImageFix" result="shape"/>
<feGaussianBlur stdDeviation="1" result="effect1_foregroundBlur"/>
</filter>
<filter id="filter5_d" x="159.743" y="99.1901" width="327.528" height="338.179" filterUnits="userSpaceOnUse" color-interpolation-filters="sRGB">
<feFlood flood-opacity="0" result="BackgroundImageFix"/>
<feColorMatrix in="SourceAlpha" type="matrix" values="0 0 0 0 0 0 0 0 0 0 0 0 0 0 0 0 0 0 127 0"/>
<feOffset/>
<feGaussianBlur stdDeviation="3"/>
<feColorMatrix type="matrix" values="0 0 0 0 0.313726 0 0 0 0 0.768627 0 0 0 0 0.815686 0 0 0 1 0"/>
<feBlend mode="normal" in2="BackgroundImageFix" result="effect1_dropShadow"/>
<feBlend mode="normal" in="SourceGraphic" in2="effect1_dropShadow" result="shape"/>
</filter>
<filter id="filter6_d" x="199.143" y="149.204" width="234.565" height="234.565" filterUnits="userSpaceOnUse" color-interpolation-filters="sRGB">
<feFlood flood-opacity="0" result="BackgroundImageFix"/>
<feColorMatrix in="SourceAlpha" type="matrix" values="0 0 0 0 0 0 0 0 0 0 0 0 0 0 0 0 0 0 127 0"/>
<feOffset/>
<feGaussianBlur stdDeviation="3.5"/>
<feColorMatrix type="matrix" values="0 0 0 0 0.584314 0 0 0 0 0.996078 0 0 0 0 0.952941 0 0 0 1 0"/>
<feBlend mode="normal" in2="BackgroundImageFix" result="effect1_dropShadow"/>
<feBlend mode="normal" in="SourceGraphic" in2="effect1_dropShadow" result="shape"/>
</filter>
<filter id="filter7_d" x="208.625" y="290.7" width="13.6357" height="13.6357" filterUnits="userSpaceOnUse" color-interpolation-filters="sRGB">
<feFlood flood-opacity="0" result="BackgroundImageFix"/>
<feColorMatrix in="SourceAlpha" type="matrix" values="0 0 0 0 0 0 0 0 0 0 0 0 0 0 0 0 0 0 127 0"/>
<feOffset/>
<feGaussianBlur stdDeviation="2.5"/>
<feColorMatrix type="matrix" values="0 0 0 0 0.6 0 0 0 0 0.811765 0 0 0 0 0.921569 0 0 0 1 0"/>
<feBlend mode="normal" in2="BackgroundImageFix" result="effect1_dropShadow"/>
<feBlend mode="normal" in="SourceGraphic" in2="effect1_dropShadow" result="shape"/>
</filter>
<filter id="filter8_d" x="180.237" y="280.544" width="13.6357" height="13.6357" filterUnits="userSpaceOnUse" color-interpolation-filters="sRGB">
<feFlood flood-opacity="0" result="BackgroundImageFix"/>
<feColorMatrix in="SourceAlpha" type="matrix" values="0 0 0 0 0 0 0 0 0 0 0 0 0 0 0 0 0 0 127 0"/>
<feOffset/>
<feGaussianBlur stdDeviation="2.5"/>
<feColorMatrix type="matrix" values="0 0 0 0 0.6 0 0 0 0 0.811765 0 0 0 0 0.921569 0 0 0 1 0"/>
<feBlend mode="normal" in2="BackgroundImageFix" result="effect1_dropShadow"/>
<feBlend mode="normal" in="SourceGraphic" in2="effect1_dropShadow" result="shape"/>
</filter>
<filter id="filter9_d" x="202.064" y="280.764" width="12.4238" height="12.4238" filterUnits="userSpaceOnUse" color-interpolation-filters="sRGB">
<feFlood flood-opacity="0" result="BackgroundImageFix"/>
<feColorMatrix in="SourceAlpha" type="matrix" values="0 0 0 0 0 0 0 0 0 0 0 0 0 0 0 0 0 0 127 0"/>
<feOffset/>
<feGaussianBlur stdDeviation="2.5"/>
<feColorMatrix type="matrix" values="0 0 0 0 0.6 0 0 0 0 0.811765 0 0 0 0 0.921569 0 0 0 1 0"/>
<feBlend mode="normal" in2="BackgroundImageFix" result="effect1_dropShadow"/>
<feBlend mode="normal" in="SourceGraphic" in2="effect1_dropShadow" result="shape"/>
</filter>
<filter id="filter10_d" x="314.19" y="474.129" width="14.0188" height="14.0188" filterUnits="userSpaceOnUse" color-interpolation-filters="sRGB">
<feFlood flood-opacity="0" result="BackgroundImageFix"/>
<feColorMatrix in="SourceAlpha" type="matrix" values="0 0 0 0 0 0 0 0 0 0 0 0 0 0 0 0 0 0 127 0"/>
<feOffset/>
<feGaussianBlur stdDeviation="2.5"/>
<feColorMatrix type="matrix" values="0 0 0 0 0.6 0 0 0 0 0.811765 0 0 0 0 0.921569 0 0 0 1 0"/>
<feBlend mode="normal" in2="BackgroundImageFix" result="effect1_dropShadow"/>
<feBlend mode="normal" in="SourceGraphic" in2="effect1_dropShadow" result="shape"/>
</filter>
<filter id="filter11_d" x="342.413" y="463.525" width="14.0188" height="14.0188" filterUnits="userSpaceOnUse" color-interpolation-filters="sRGB">
<feFlood flood-opacity="0" result="BackgroundImageFix"/>
<feColorMatrix in="SourceAlpha" type="matrix" values="0 0 0 0 0 0 0 0 0 0 0 0 0 0 0 0 0 0 127 0"/>
<feOffset/>
<feGaussianBlur stdDeviation="2.5"/>
<feColorMatrix type="matrix" values="0 0 0 0 0.6 0 0 0 0 0.811765 0 0 0 0 0.921569 0 0 0 1 0"/>
<feBlend mode="normal" in2="BackgroundImageFix" result="effect1_dropShadow"/>
<feBlend mode="normal" in="SourceGraphic" in2="effect1_dropShadow" result="shape"/>
</filter>
<filter id="filter12_d" x="327.143" y="478.209" width="12.6792" height="12.6792" filterUnits="userSpaceOnUse" color-interpolation-filters="sRGB">
<feFlood flood-opacity="0" result="BackgroundImageFix"/>
<feColorMatrix in="SourceAlpha" type="matrix" values="0 0 0 0 0 0 0 0 0 0 0 0 0 0 0 0 0 0 127 0"/>
<feOffset/>
<feGaussianBlur stdDeviation="2.5"/>
<feColorMatrix type="matrix" values="0 0 0 0 0.6 0 0 0 0 0.811765 0 0 0 0 0.921569 0 0 0 1 0"/>
<feBlend mode="normal" in2="BackgroundImageFix" result="effect1_dropShadow"/>
<feBlend mode="normal" in="SourceGraphic" in2="effect1_dropShadow" result="shape"/>
</filter>
<filter id="filter13_d" x="215.105" y="228.362" width="12.4238" height="12.4238" filterUnits="userSpaceOnUse" color-interpolation-filters="sRGB">
<feFlood flood-opacity="0" result="BackgroundImageFix"/>
<feColorMatrix in="SourceAlpha" type="matrix" values="0 0 0 0 0 0 0 0 0 0 0 0 0 0 0 0 0 0 127 0"/>
<feOffset/>
<feGaussianBlur stdDeviation="2.5"/>
<feColorMatrix type="matrix" values="0 0 0 0 0.6 0 0 0 0 0.811765 0 0 0 0 0.921569 0 0 0 1 0"/>
<feBlend mode="normal" in2="BackgroundImageFix" result="effect1_dropShadow"/>
<feBlend mode="normal" in="SourceGraphic" in2="effect1_dropShadow" result="shape"/>
</filter>
<filter id="filter14_d" x="173.633" y="229.377" width="12.4238" height="12.4238" filterUnits="userSpaceOnUse" color-interpolation-filters="sRGB">
<feFlood flood-opacity="0" result="BackgroundImageFix"/>
<feColorMatrix in="SourceAlpha" type="matrix" values="0 0 0 0 0 0 0 0 0 0 0 0 0 0 0 0 0 0 127 0"/>
<feOffset/>
<feGaussianBlur stdDeviation="2.5"/>
<feColorMatrix type="matrix" values="0 0 0 0 0.6 0 0 0 0 0.811765 0 0 0 0 0.921569 0 0 0 1 0"/>
<feBlend mode="normal" in2="BackgroundImageFix" result="effect1_dropShadow"/>
<feBlend mode="normal" in="SourceGraphic" in2="effect1_dropShadow" result="shape"/>
</filter>
<filter id="filter15_d" x="95.0255" y="203.752" width="14.8476" height="14.8476" filterUnits="userSpaceOnUse" color-interpolation-filters="sRGB">
<feFlood flood-opacity="0" result="BackgroundImageFix"/>
<feColorMatrix in="SourceAlpha" type="matrix" values="0 0 0 0 0 0 0 0 0 0 0 0 0 0 0 0 0 0 127 0"/>
<feOffset/>
<feGaussianBlur stdDeviation="2.5"/>
<feColorMatrix type="matrix" values="0 0 0 0 0.6 0 0 0 0 0.811765 0 0 0 0 0.921569 0 0 0 1 0"/>
<feBlend mode="normal" in2="BackgroundImageFix" result="effect1_dropShadow"/>
<feBlend mode="normal" in="SourceGraphic" in2="effect1_dropShadow" result="shape"/>
</filter>
<filter id="filter16_d" x="115.391" y="197.424" width="13.6357" height="13.6357" filterUnits="userSpaceOnUse" color-interpolation-filters="sRGB">
<feFlood flood-opacity="0" result="BackgroundImageFix"/>
<feColorMatrix in="SourceAlpha" type="matrix" values="0 0 0 0 0 0 0 0 0 0 0 0 0 0 0 0 0 0 127 0"/>
<feOffset/>
<feGaussianBlur stdDeviation="2.5"/>
<feColorMatrix type="matrix" values="0 0 0 0 0.6 0 0 0 0 0.811765 0 0 0 0 0.921569 0 0 0 1 0"/>
<feBlend mode="normal" in2="BackgroundImageFix" result="effect1_dropShadow"/>
<feBlend mode="normal" in="SourceGraphic" in2="effect1_dropShadow" result="shape"/>
</filter>
<filter id="filter17_d" x="3.99808" y="359.315" width="13.6357" height="13.6357" filterUnits="userSpaceOnUse" color-interpolation-filters="sRGB">
<feFlood flood-opacity="0" result="BackgroundImageFix"/>
<feColorMatrix in="SourceAlpha" type="matrix" values="0 0 0 0 0 0 0 0 0 0 0 0 0 0 0 0 0 0 127 0"/>
<feOffset/>
<feGaussianBlur stdDeviation="2.5"/>
<feColorMatrix type="matrix" values="0 0 0 0 0.6 0 0 0 0 0.811765 0 0 0 0 0.921569 0 0 0 1 0"/>
<feBlend mode="normal" in2="BackgroundImageFix" result="effect1_dropShadow"/>
<feBlend mode="normal" in="SourceGraphic" in2="effect1_dropShadow" result="shape"/>
</filter>
</defs>
</svg>
