<svg width="169" height="44" viewBox="0 0 169 44" fill="none" xmlns="http://www.w3.org/2000/svg">
<path d="M162.741 44H6.25926C2.75407 44 0 41.47 0 38.5V5.5C0 2.42 2.87926 0 6.25926 0H162.741C166.246 0 169 2.53 169 5.5V38.5C169 41.58 166.246 44 162.741 44Z" fill="black" fill-opacity="0.2"/>
<path d="M65.1384 12.6261C65.1384 13.3913 64.9458 14.0609 64.4641 14.5392C63.8862 15.1131 63.2119 15.4 62.3449 15.4C61.478 15.4 60.8037 15.1131 60.2258 14.5392C59.6478 13.9653 59.3588 13.2957 59.3588 12.4348C59.3588 11.574 59.6478 10.9044 60.2258 10.3305C60.8037 9.75656 61.478 9.4696 62.3449 9.4696C62.7302 9.4696 63.1156 9.56526 63.5009 9.75656C63.8862 9.94787 64.1751 10.1392 64.3678 10.4261L63.8862 10.9044C63.5009 10.4261 63.0192 10.2348 62.3449 10.2348C61.767 10.2348 61.189 10.4261 60.8037 10.9044C60.3221 11.287 60.1294 11.8609 60.1294 12.5305C60.1294 13.2 60.3221 13.774 60.8037 14.1566C61.2854 14.5392 61.767 14.8261 62.3449 14.8261C63.0192 14.8261 63.5009 14.6348 63.9825 14.1566C64.2715 13.8696 64.4641 13.487 64.4641 13.0087H62.3449V12.2435H65.1384C65.1384 12.3392 65.1384 12.5305 65.1384 12.6261Z" fill="white" stroke="white" stroke-width="0.2" stroke-miterlimit="10"/>
<path d="M69.5694 10.2357H66.9686V12.0531H69.3767V12.7227H66.9686V14.5401H69.5694V15.3053H66.198V9.56616H69.5694V10.2357Z" fill="white" stroke="white" stroke-width="0.2" stroke-miterlimit="10"/>
<path d="M72.7482 15.3053H71.9776V10.2357H70.34V9.56616H74.3857V10.2357H72.7482V15.3053Z" fill="white" stroke="white" stroke-width="0.2" stroke-miterlimit="10"/>
<path d="M77.1792 15.3053V9.56616H77.9498V15.3053H77.1792Z" fill="white" stroke="white" stroke-width="0.2" stroke-miterlimit="10"/>
<path d="M81.2249 15.3053H80.4543V10.2357H78.8167V9.56616H82.7661V10.2357H81.1286V15.3053H81.2249Z" fill="white" stroke="white" stroke-width="0.2" stroke-miterlimit="10"/>
<path d="M90.3759 14.5392C89.798 15.1131 89.1237 15.4 88.2567 15.4C87.3898 15.4 86.7155 15.1131 86.1376 14.5392C85.5596 13.9653 85.2706 13.2957 85.2706 12.4348C85.2706 11.574 85.5596 10.9044 86.1376 10.3305C86.7155 9.75656 87.3898 9.4696 88.2567 9.4696C89.1237 9.4696 89.798 9.75656 90.3759 10.3305C90.9539 10.9044 91.2429 11.574 91.2429 12.4348C91.2429 13.2957 90.9539 13.9653 90.3759 14.5392ZM86.7155 14.0609C87.1008 14.4435 87.6788 14.7305 88.2567 14.7305C88.8347 14.7305 89.4127 14.5392 89.798 14.0609C90.1833 13.6783 90.4723 13.1044 90.4723 12.4348C90.4723 11.7653 90.2796 11.1913 89.798 10.8087C89.4127 10.4261 88.8347 10.1392 88.2567 10.1392C87.6788 10.1392 87.1008 10.3305 86.7155 10.8087C86.3302 11.1913 86.0412 11.7653 86.0412 12.4348C86.0412 13.1044 86.2339 13.6783 86.7155 14.0609Z" fill="white" stroke="white" stroke-width="0.2" stroke-miterlimit="10"/>
<path d="M92.3024 15.3053V9.56616H93.1694L95.9628 14.0618V12.914V9.56616H96.7334V15.3053H95.9628L92.9767 10.6183V11.7662V15.3053H92.3024Z" fill="white" stroke="white" stroke-width="0.2" stroke-miterlimit="10"/>
<path d="M85.078 23.7217C82.7661 23.7217 80.9359 25.4435 80.9359 27.8348C80.9359 30.1304 82.7661 31.9478 85.078 31.9478C87.3898 31.9478 89.22 30.2261 89.22 27.8348C89.22 25.3478 87.3898 23.7217 85.078 23.7217ZM85.078 30.2261C83.8257 30.2261 82.7661 29.1739 82.7661 27.7391C82.7661 26.3043 83.8257 25.2522 85.078 25.2522C86.3302 25.2522 87.3898 26.2087 87.3898 27.7391C87.3898 29.1739 86.3302 30.2261 85.078 30.2261ZM76.1196 23.7217C73.8078 23.7217 71.9776 25.4435 71.9776 27.8348C71.9776 30.1304 73.8078 31.9478 76.1196 31.9478C78.4314 31.9478 80.2616 30.2261 80.2616 27.8348C80.2616 25.3478 78.4314 23.7217 76.1196 23.7217ZM76.1196 30.2261C74.8674 30.2261 73.8078 29.1739 73.8078 27.7391C73.8078 26.3043 74.8674 25.2522 76.1196 25.2522C77.3718 25.2522 78.4314 26.2087 78.4314 27.7391C78.4314 29.1739 77.3718 30.2261 76.1196 30.2261ZM65.4274 24.9652V26.6869H69.5694C69.4731 27.6435 69.0878 28.4087 68.6061 28.8869C68.0282 29.4609 67.0649 30.1304 65.4274 30.1304C62.8266 30.1304 60.9 28.1217 60.9 25.5391C60.9 22.9565 62.9229 20.9478 65.4274 20.9478C66.7759 20.9478 67.8355 21.5217 68.6061 22.1913L69.8584 20.9478C68.7988 19.9913 67.4502 19.2261 65.5237 19.2261C62.0559 19.2261 59.0698 22.0956 59.0698 25.5391C59.0698 28.9826 62.0559 31.8522 65.5237 31.8522C67.4502 31.8522 68.7988 31.2782 69.9547 30.0348C71.1106 28.8869 71.4959 27.2609 71.4959 26.0174C71.4959 25.6348 71.4959 25.2522 71.3996 24.9652H65.4274ZM109.16 26.3043C108.774 25.3478 107.811 23.7217 105.692 23.7217C103.573 23.7217 101.839 25.3478 101.839 27.8348C101.839 30.1304 103.573 31.9478 105.884 31.9478C107.715 31.9478 108.871 30.8 109.256 30.1304L107.907 29.1739C107.426 29.8435 106.848 30.3217 105.884 30.3217C104.921 30.3217 104.343 29.9391 103.862 29.0782L109.352 26.7826L109.16 26.3043ZM103.573 27.6435C103.573 26.113 104.825 25.2522 105.692 25.2522C106.366 25.2522 107.04 25.6348 107.233 26.113L103.573 27.6435ZM99.0453 31.5652H100.875V19.6087H99.0453V31.5652ZM96.1555 24.5826C95.6739 24.1043 94.9033 23.6261 93.94 23.6261C91.9171 23.6261 89.9906 25.4435 89.9906 27.7391C89.9906 30.0348 91.8208 31.7565 93.94 31.7565C94.9033 31.7565 95.6739 31.2782 96.0592 30.8H96.1555V31.3739C96.1555 32.9043 95.2886 33.7652 93.94 33.7652C92.8804 33.7652 92.1098 33 91.9171 32.3304L90.3759 33C90.8575 34.0522 92.0135 35.3913 94.0363 35.3913C96.1555 35.3913 97.8894 34.1478 97.8894 31.1826V23.913H96.1555V24.5826ZM94.0363 30.2261C92.7841 30.2261 91.7245 29.1739 91.7245 27.7391C91.7245 26.3043 92.7841 25.2522 94.0363 25.2522C95.2886 25.2522 96.2518 26.3043 96.2518 27.7391C96.2518 29.1739 95.2886 30.2261 94.0363 30.2261ZM117.54 19.6087H113.205V31.5652H115.035V27.0696H117.54C119.563 27.0696 121.489 25.6348 121.489 23.3391C121.489 21.0435 119.563 19.6087 117.54 19.6087ZM117.636 25.3478H115.035V21.2348H117.636C118.985 21.2348 119.755 22.3826 119.755 23.2435C119.659 24.2956 118.889 25.3478 117.636 25.3478ZM128.714 23.6261C127.365 23.6261 126.017 24.2 125.535 25.4435L127.173 26.113C127.558 25.4435 128.136 25.2522 128.81 25.2522C129.773 25.2522 130.64 25.8261 130.737 26.7826V26.8782C130.448 26.6869 129.677 26.4 128.906 26.4C127.173 26.4 125.439 27.3565 125.439 29.0782C125.439 30.7043 126.884 31.7565 128.425 31.7565C129.677 31.7565 130.255 31.1826 130.737 30.6087H130.833V31.5652H132.567V26.9739C132.374 24.8696 130.737 23.6261 128.714 23.6261ZM128.521 30.2261C127.943 30.2261 127.076 29.9391 127.076 29.1739C127.076 28.2174 128.136 27.9304 129.003 27.9304C129.773 27.9304 130.159 28.1217 130.64 28.313C130.448 29.4609 129.484 30.2261 128.521 30.2261ZM138.635 23.913L136.613 29.0782H136.516L134.397 23.913H132.471L135.649 31.1826L133.819 35.2H135.649L140.562 23.913H138.635ZM122.453 31.5652H124.283V19.6087H122.453V31.5652Z" fill="white"/>
<path d="M29.4976 10.0436C29.2087 10.3305 29.1123 10.8088 29.1123 11.3827V32.5218C29.1123 33.0958 29.305 33.574 29.594 33.861L29.6903 33.9566L41.6348 22.0958V22.0001V21.9044L29.4976 10.0436Z" fill="url(#paint0_linear)"/>
<path d="M45.4879 26.1131L41.5385 22.1914V22.0001V21.9044L45.4879 17.9827L45.5842 18.0783L50.3042 20.7566C51.6528 21.5218 51.6528 22.7653 50.3042 23.5305L45.4879 26.1131Z" fill="url(#paint1_linear)"/>
<path d="M45.5842 26.0174L41.5385 22L29.4977 33.9565C29.9793 34.4348 30.6536 34.4348 31.5205 34.0522L45.5842 26.0174Z" fill="url(#paint2_linear)"/>
<path d="M45.5842 17.9829L31.5205 10.0438C30.6536 9.56554 29.9793 9.66119 29.4977 10.1395L41.5385 22.0003L45.5842 17.9829Z" fill="url(#paint3_linear)"/>
<path opacity="0.2" d="M45.4879 25.9218L31.5205 33.7652C30.7499 34.2435 30.0756 34.1478 29.594 33.7652L29.4977 33.8609L29.594 33.9565C30.0756 34.3391 30.7499 34.4348 31.5205 33.9565L45.4879 25.9218Z" fill="black"/>
<path opacity="0.12" d="M29.4976 33.7653C29.2087 33.4783 29.1123 33.0001 29.1123 32.4261V32.5218C29.1123 33.0957 29.305 33.574 29.594 33.8609V33.7653H29.4976Z" fill="black"/>
<path opacity="0.12" d="M50.3041 23.2435L45.4878 25.9217L45.5842 26.0174L50.3041 23.3391C50.9784 22.9565 51.2674 22.4783 51.2674 22C51.2674 22.4783 50.8821 22.8609 50.3041 23.2435Z" fill="black"/>
<path opacity="0.25" d="M31.5205 10.1392L50.3041 20.7566C50.8821 21.1392 51.2674 21.5218 51.2674 22C51.2674 21.5218 50.9784 21.0435 50.3041 20.6609L31.5205 10.0435C30.1719 9.27831 29.1123 9.85222 29.1123 11.3827V11.4783C29.1123 10.0435 30.1719 9.37396 31.5205 10.1392Z" fill="white"/>
<defs>
<linearGradient id="paint0_linear" x1="40.4785" y1="11.2008" x2="24.4261" y2="27.3663" gradientUnits="userSpaceOnUse">
<stop stop-color="#00A0FF"/>
<stop offset="0.00657445" stop-color="#00A1FF"/>
<stop offset="0.2601" stop-color="#00BEFF"/>
<stop offset="0.5122" stop-color="#00D2FF"/>
<stop offset="0.7604" stop-color="#00DFFF"/>
<stop offset="1" stop-color="#00E3FF"/>
</linearGradient>
<linearGradient id="paint1_linear" x1="52.0711" y1="22.0015" x2="28.7631" y2="22.0015" gradientUnits="userSpaceOnUse">
<stop stop-color="#FFE000"/>
<stop offset="0.4087" stop-color="#FFBD00"/>
<stop offset="0.7754" stop-color="#FFA500"/>
<stop offset="1" stop-color="#FF9C00"/>
</linearGradient>
<linearGradient id="paint2_linear" x1="43.3946" y1="24.1964" x2="21.6263" y2="46.1181" gradientUnits="userSpaceOnUse">
<stop stop-color="#FF3A44"/>
<stop offset="1" stop-color="#C31162"/>
</linearGradient>
<linearGradient id="paint3_linear" x1="26.5089" y1="3.03852" x2="36.2294" y2="12.8275" gradientUnits="userSpaceOnUse">
<stop stop-color="#32A071"/>
<stop offset="0.0685" stop-color="#2DA771"/>
<stop offset="0.4762" stop-color="#15CF74"/>
<stop offset="0.8009" stop-color="#06E775"/>
<stop offset="1" stop-color="#00F076"/>
</linearGradient>
</defs>
</svg>
