<svg width="35" height="35" viewBox="0 0 35 35" fill="none" xmlns="http://www.w3.org/2000/svg">
<path d="M32.9928 12.586C32.9964 12.5655 32.9985 12.5455 32.9995 12.5245C33.0005 12.5 33 12.4765 32.9979 12.452C32.9959 12.431 32.9928 12.411 32.9876 12.3905C32.9819 12.3665 32.9742 12.3435 32.9649 12.3205C32.9602 12.3085 32.9592 12.296 32.9535 12.2845C32.9494 12.276 32.9421 12.2695 32.9375 12.261C32.9328 12.2525 32.9308 12.2435 32.9256 12.235L27.7577 4.235C27.7339 4.1985 27.706 4.1655 27.6745 4.1365C27.674 4.136 27.6735 4.136 27.673 4.1355C27.6285 4.095 27.5758 4.066 27.5195 4.043C27.5122 4.04 27.5076 4.034 27.4998 4.031C27.4941 4.029 27.4879 4.03 27.4823 4.0285C27.4301 4.0115 27.3763 4 27.32 4H7.68204C7.62623 4 7.573 4.0115 7.52183 4.028C7.51615 4.0295 7.51046 4.0285 7.5053 4.0305C7.49755 4.033 7.49289 4.039 7.48566 4.042C7.43191 4.0635 7.38127 4.0915 7.33734 4.1295C7.33476 4.132 7.33114 4.1335 7.32856 4.1355C7.29651 4.1645 7.26809 4.198 7.24432 4.2345L2.07644 12.2345C2.07127 12.2425 2.0692 12.252 2.06455 12.2605C2.0599 12.269 2.05267 12.2755 2.04853 12.284C2.04285 12.2955 2.04181 12.308 2.03665 12.32C2.02734 12.343 2.01959 12.366 2.01391 12.39C2.00926 12.4105 2.00564 12.431 2.00357 12.452C1.99995 12.4765 1.99944 12.5005 2.00047 12.5245C2.0015 12.5455 2.00357 12.5655 2.00719 12.586C2.01132 12.61 2.01804 12.6335 2.02631 12.657C2.03303 12.6765 2.04026 12.6955 2.04957 12.7145C2.05422 12.7235 2.05577 12.7335 2.06093 12.7425C2.0692 12.757 2.08161 12.768 2.09091 12.7815C2.09814 12.792 2.10228 12.8035 2.11106 12.8135L17.0922 30.8065C17.0933 30.808 17.0943 30.809 17.0953 30.81L17.0979 30.8135C17.0995 30.8155 17.1021 30.816 17.1036 30.818C17.146 30.8675 17.1987 30.905 17.2561 30.935C17.2716 30.943 17.286 30.95 17.302 30.9565C17.3646 30.982 17.4307 31 17.5 31C17.5589 31 17.6183 30.99 17.6772 30.9695C17.686 30.9665 17.6917 30.9595 17.7005 30.956C17.7268 30.9455 17.7475 30.9285 17.7713 30.914C17.8106 30.89 17.8473 30.865 17.8778 30.8325C17.885 30.825 17.8958 30.8215 17.9026 30.8135L32.8894 12.8135C32.8977 12.8035 32.9018 12.7915 32.9096 12.7815C32.9194 12.768 32.9313 12.757 32.9395 12.7425C32.9447 12.7335 32.9463 12.7235 32.9509 12.7145C32.9602 12.6955 32.9674 12.677 32.9742 12.657C32.9814 12.6335 32.9886 12.6105 32.9928 12.586ZM18.5863 5.0005H26.5753L24.0637 11.523L18.5863 5.0005ZM23.1325 12.0005H11.868L17.5 5.294L23.1325 12.0005ZM10.9001 11.5665L8.42001 5.0005H16.4142L10.9001 11.5665ZM23.4947 13.0005L17.4095 28.8035L11.4412 13.0005H23.4947ZM27.4368 5.627L31.554 12.001H24.9826L27.4368 5.627ZM7.55853 5.6335L9.96314 12.0005H3.44593L7.55853 5.6335ZM10.3409 13.0005L15.9424 27.8325L3.59321 13.0005H10.3409ZM18.7387 28.2155L24.5975 13.0005H31.4067L18.7387 28.2155Z" fill="#1D1D1D"/>
</svg>
