<svg width="35" height="35" viewBox="0 0 35 35" fill="none" xmlns="http://www.w3.org/2000/svg">
<path d="M27.2213 22.9634L16.4577 17.7617L19.9259 6.19124C20.0346 5.82868 19.832 5.44599 19.4711 5.33182C18.1624 4.918 16.7996 4.70813 15.4203 4.70813C8.02027 4.70804 1.99989 10.7284 1.99989 18.1285C1.99989 25.5287 8.02027 31.5491 15.4203 31.5491C18.0069 31.5491 20.5181 30.8114 22.6824 29.4156C24.7893 28.0569 26.4709 26.1444 27.5454 23.8848C27.709 23.5407 27.5642 23.1291 27.2213 22.9634ZM21.9315 28.2511C19.9915 29.5022 17.7399 30.1636 15.4203 30.1636C8.78427 30.1635 3.38546 24.7647 3.38546 18.1285C3.38546 11.4925 8.78427 6.0936 15.4203 6.0936C16.4286 6.0936 17.4271 6.21858 18.3971 6.46567L14.9609 17.9296C14.8632 18.2555 15.0167 18.6042 15.3231 18.7522L25.9809 23.9028C25.0171 25.663 23.6281 27.1571 21.9315 28.2511Z" fill="#1D1D1D"/>
<path d="M30.3519 8.27535C28.6535 5.99388 26.3293 4.33674 23.6305 3.48324C23.4537 3.42744 23.2617 3.44462 23.0975 3.53136C22.9335 3.6181 22.8111 3.76709 22.7578 3.94481L19.1202 16.0811C19.0104 16.4476 19.2184 16.8337 19.5849 16.9435C19.9512 17.0535 20.3375 16.8454 20.4475 16.4788L23.8771 5.03673C25.9939 5.84941 27.8795 7.27451 29.2404 9.10272C30.7936 11.189 31.6146 13.6709 31.6146 16.28C31.6146 17.8497 31.319 19.3679 30.7349 20.8028L25.3029 18.1777C24.9583 18.0112 24.5441 18.1555 24.3777 18.5001C24.2112 18.8445 24.3555 19.2587 24.6999 19.4253L30.7776 22.3624C30.8725 22.4083 30.9756 22.4314 31.0791 22.4314C31.1567 22.4314 31.2345 22.4184 31.309 22.3921C31.4831 22.3309 31.6255 22.2028 31.7047 22.0361C32.5642 20.2286 33 18.292 33 16.28C33.0001 13.3705 32.0844 10.6026 30.3519 8.27535Z" fill="#1D1D1D"/>
</svg>
