<svg width="35" height="35" viewBox="0 0 35 35" fill="none" xmlns="http://www.w3.org/2000/svg">
<path d="M17.4999 4.42249C17.1646 4.42249 16.8951 4.69252 16.8951 5.02735C16.8951 5.33898 17.1295 5.5983 17.4394 5.62906C17.7981 5.66466 18.1048 5.38524 18.1048 5.02735C18.1048 4.69204 17.8348 4.42249 17.4999 4.42249Z" fill="#1D1D1D"/>
<path d="M29.6094 5.63281C27.9401 5.63281 26.582 4.27475 26.582 2.60547C26.582 2.27113 26.3109 2 25.9766 2H9.02344C8.6891 2 8.41797 2.27113 8.41797 2.60547C8.41797 4.27475 7.0599 5.63281 5.39062 5.63281C5.05629 5.63281 4.78516 5.90394 4.78516 6.23828V16.1189C4.78516 23.8191 9.80419 30.7189 17.3261 32.9745C17.3828 32.9915 17.4414 33 17.5 33C17.5586 33 17.6173 32.9915 17.674 32.9744C25.0329 30.767 30.2148 23.9875 30.2148 16.1189V6.23828C30.2148 5.90394 29.9437 5.63281 29.6094 5.63281ZM29.0039 16.1189C29.0039 23.3511 24.389 29.6143 17.5 31.7614C10.666 29.6315 5.99609 23.3115 5.99609 16.1189V6.80064C7.84949 6.53436 9.31951 5.06434 9.5858 3.21094H25.4142C25.6805 5.06434 27.1505 6.53436 29.0039 6.80064V16.1189Z" fill="#1D1D1D"/>
<path d="M27.4304 7.59998C26.1678 7.04701 25.1678 6.04707 24.6149 4.78443C24.5184 4.56416 24.3007 4.42188 24.0603 4.42188H19.9207C19.5863 4.42188 19.3152 4.693 19.3152 5.02734C19.3152 5.36168 19.5863 5.63281 19.9207 5.63281H23.6774C24.3171 6.88498 25.3299 7.89769 26.582 8.53743V16.1189C26.582 22.0442 23.025 27.1568 17.5 29.2033C11.975 27.1567 8.41797 22.0442 8.41797 16.1189V8.53743C9.67014 7.89769 10.6828 6.88498 11.3226 5.63281H15.0793C15.4137 5.63281 15.6848 5.36168 15.6848 5.02734C15.6848 4.693 15.4137 4.42188 15.0793 4.42188H10.9397C10.6993 4.42188 10.4816 4.56422 10.3851 4.78443C9.83216 6.04707 8.83223 7.04701 7.56959 7.59998C7.34938 7.69649 7.20703 7.91416 7.20703 8.15459V16.1189C7.20703 22.6103 11.222 28.2678 17.298 30.418C17.3633 30.4412 17.4316 30.4527 17.5 30.4527C17.5684 30.4527 17.6367 30.4412 17.702 30.418C23.773 28.2697 27.793 22.6156 27.793 16.1189V8.15459C27.793 7.9141 27.6506 7.69649 27.4304 7.59998Z" fill="#1D1D1D"/>
<path d="M17.5 10.8398C14.4953 10.8398 12.0508 13.2844 12.0508 16.2891C12.0508 19.2938 14.4953 21.7383 17.5 21.7383C20.5047 21.7383 22.9492 19.2938 22.9492 16.2891C22.9492 13.2844 20.5047 10.8398 17.5 10.8398ZM17.5 20.5273C15.163 20.5273 13.2617 18.6261 13.2617 16.2891C13.2617 13.9521 15.163 12.0508 17.5 12.0508C19.837 12.0508 21.7383 13.9521 21.7383 16.2891C21.7383 18.6261 19.837 20.5273 17.5 20.5273Z" fill="#1D1D1D"/>
<path d="M20.3499 14.6499C20.1134 14.4136 19.7302 14.4136 19.4936 14.6499L16.8945 17.2492L16.1117 16.4664C15.8752 16.23 15.4919 16.23 15.2553 16.4664C15.0189 16.7028 15.0189 17.0862 15.2553 17.3227L16.4663 18.5337C16.5846 18.6518 16.7395 18.7109 16.8945 18.7109C17.0495 18.7109 17.2043 18.6518 17.3226 18.5336L20.3499 15.5063C20.5864 15.2698 20.5864 14.8864 20.3499 14.6499Z" fill="#1D1D1D"/>
</svg>
