<svg width="20" height="22" viewBox="0 0 20 22" fill="none" xmlns="http://www.w3.org/2000/svg">
<path d="M17.6978 4.23578L17.0376 3.68977L18.124 2.36244L18.7842 2.90862H18.7837L19.4439 3.45462L18.3577 4.78195C17.6978 4.23578 18.3577 4.78195 17.6978 4.23578ZM14.9945 2.59743L14.2056 2.2661L14.865 0.680115L16.4418 1.34277L15.7829 2.92876C14.9945 2.59743 15.7829 2.92876 14.9945 2.59743ZM11.9368 1.81761L11.0864 1.73083L11.259 0.0209808L12.9599 0.194702L12.7871 1.90472C11.9368 1.81761 12.7871 1.90472 11.9368 1.81761ZM2.30218 17.7213L2.96241 18.2673L1.876 19.5946L1.21578 19.0484H1.21628L0.556056 18.5024L1.64229 17.1751C2.30218 17.7213 1.64229 17.1751 2.30218 17.7213ZM5.00551 19.3596L5.79444 19.6909L5.13505 21.2769L3.55819 20.6143L4.21708 19.0283C5.00551 19.3596 4.21708 19.0283 5.00551 19.3596ZM8.06323 20.1394L8.9136 20.2262L8.74099 21.9361L7.0401 21.7623L7.21287 20.0523C8.06323 20.1394 7.21287 20.0523 8.06323 20.1394ZM10.8335 3.48047H10.1492C6.86498 3.48047 4.18403 6.12691 4.1044 9.41016H4.10256C4.10256 9.43533 4.10307 9.46017 4.10357 9.48518C4.10323 9.51019 4.10256 9.5352 4.10256 9.56021H4.1054C4.18436 11.9314 6.12714 13.8359 8.50427 13.8359C9.80035 13.8359 10.8547 12.7758 10.8547 11.4727V10.5273C10.8547 10.172 11.1423 9.88281 11.4957 9.88281C12.9636 9.88281 14.16 11.0703 14.1869 12.5398C14.1338 14.8984 12.209 16.8008 9.85076 16.8008H9.1665C5.05459 16.8008 1.7094 13.4469 1.7094 9.32422C1.7094 5.13057 5.10266 1.71875 9.2735 1.71875V0C6.79637 0 4.46765 0.969818 2.71618 2.73103C0.964543 4.49208 0 6.83354 0 9.32422C0 14.3945 4.11208 18.5195 9.1665 18.5195H9.85076C13.135 18.5195 15.816 15.8731 15.8956 12.5898H15.8974C15.8974 12.5647 15.8969 12.5398 15.8964 12.5148C15.8968 12.4898 15.8974 12.4648 15.8974 12.4398H15.8946C15.8156 10.0686 13.8729 8.16406 11.4957 8.16406C10.1997 8.16406 9.1453 9.22418 9.1453 10.5273V11.4727C9.1453 11.828 8.85767 12.1172 8.50427 12.1172C7.03643 12.1172 5.84001 10.9297 5.81313 9.46017C5.86622 7.10159 7.79097 5.19922 10.1492 5.19922H10.8335C14.9454 5.19922 18.2906 8.55313 18.2906 12.6758C18.2906 16.8694 14.8973 20.2812 10.7265 20.2812V22C13.2036 22 15.5324 21.0302 17.2838 19.269C19.0355 17.5079 20 15.1665 20 12.6758C20 7.60547 15.8879 3.48047 10.8335 3.48047Z" fill="#000"/>
</svg>
