<svg width="22" height="22" viewBox="0 0 22 22" fill="none" xmlns="http://www.w3.org/2000/svg">
<path d="M7.56317 11C7.56317 9.10501 9.10503 7.56334 11.0001 7.56334C12.8951 7.56334 14.4368 9.10501 14.4368 11C14.4368 12.895 12.8951 14.4367 11.0001 14.4367C9.10503 14.4367 7.56317 12.895 7.56317 11ZM12.7183 11C12.7183 10.0525 11.9476 9.28158 11.0001 9.28158C10.0525 9.28158 9.28161 10.0525 9.28161 11C9.28161 11.9475 10.0525 12.7184 11.0001 12.7184C11.9476 12.7184 12.7183 11.9475 12.7183 11ZM19.42 13.5774C17.9989 13.5774 16.8426 12.4213 16.8426 11C16.8426 9.57867 17.9989 8.42254 19.42 8.42254C20.8414 8.42254 21.9977 9.57867 21.9977 11C21.9977 12.4213 20.8414 13.5774 19.42 13.5774ZM19.42 10.1408C18.9464 10.1408 18.5608 10.5262 18.5608 11C18.5608 11.4737 18.9464 11.8592 19.42 11.8592C19.8939 11.8592 20.2793 11.4737 20.2793 11C20.2793 10.5262 19.8939 10.1408 19.42 10.1408ZM2.57989 13.5774C1.15871 13.5774 0.00239781 12.4213 0.00239781 11C0.00239781 9.57867 1.15871 8.42254 2.57989 8.42254C4.00124 8.42254 5.15755 9.57867 5.15755 11C5.15755 12.4213 4.00124 13.5774 2.57989 13.5774ZM2.57989 10.1408C2.10622 10.1408 1.72067 10.5262 1.72067 11C1.72067 11.4737 2.10622 11.8592 2.57989 11.8592C3.05373 11.8592 3.43911 11.4737 3.43911 11C3.43911 10.5262 3.05373 10.1408 2.57989 10.1408ZM0.291602 14.634C-0.331287 17.1695 0.0480528 19.2718 1.38816 20.6117C2.86994 22.0935 5.28378 22.401 8.18505 21.477C9.11175 21.1819 10.0571 20.7708 10.9999 20.2579C11.9429 20.7708 12.8884 21.1819 13.8149 21.477C16.7162 22.4008 19.13 22.0935 20.6118 20.6117C21.9519 19.2718 22.3312 17.1695 21.7083 14.634C21.2238 14.9404 20.674 15.1524 20.0851 15.2443C20.2588 16.0288 20.3174 16.762 20.2536 17.3993C20.1695 18.2402 19.8813 18.9123 19.3967 19.3967C18.9123 19.8811 18.2402 20.1695 17.3993 20.2535C17.2315 20.2703 17.0567 20.2787 16.8763 20.2787C16.1138 20.2787 15.2468 20.1297 14.3362 19.8396C13.8046 19.6703 13.2648 19.4576 12.722 19.2048C13.9445 18.3748 15.1404 17.384 16.2623 16.2622C16.7155 15.8091 17.1469 15.3437 17.5552 14.8695C17.0312 14.6161 16.5661 14.2589 16.1866 13.8252C15.8259 14.2401 15.446 14.6485 15.0472 15.0471C13.7667 16.3276 12.3902 17.421 10.9999 18.2745C9.60976 17.421 8.23322 16.3278 6.9527 15.0471C6.55406 14.6485 6.17388 14.2403 5.81301 13.8255C5.4335 14.2591 4.96856 14.6162 4.44453 14.8697C4.85308 15.3439 5.28462 15.8091 5.73764 16.2623C6.85955 17.384 8.05547 18.3748 9.27792 19.2048C8.7351 19.4576 8.19529 19.6704 7.66371 19.8396C6.53778 20.1983 5.47848 20.3413 4.60063 20.2535C3.75971 20.1695 3.08764 19.8811 2.60322 19.3967C2.11864 18.9121 1.83044 18.2401 1.74635 17.3993C1.68257 16.762 1.74115 16.0288 1.91487 15.2443C1.32589 15.1524 0.776183 14.9402 0.291602 14.634ZM21.7085 7.36595C22.3312 4.83046 21.9519 2.72818 20.6119 1.38826C19.691 0.467287 18.4098 0.000167847 16.8758 0C15.9412 0 14.9131 0.17322 13.8149 0.523012C12.8884 0.818087 11.943 1.22914 11.0001 1.74225C10.0571 1.22914 9.11175 0.818087 8.18522 0.523012C7.08715 0.173388 6.05874 0 5.12432 0C3.59001 0 2.30915 0.467287 1.38816 1.38826C0.0480528 2.72818 -0.331287 4.83046 0.291602 7.36595C0.776183 7.05963 1.32589 6.84747 1.91487 6.75566C1.74115 5.97098 1.68257 5.23799 1.74635 4.60068C1.83044 3.75977 2.11864 3.08771 2.60322 2.6033C3.08764 2.11873 3.75971 1.83054 4.60063 1.74644C5.47848 1.65883 6.53778 1.80183 7.66371 2.16035C8.19546 2.32971 8.7351 2.54237 9.27792 2.79515C8.05547 3.62515 6.85955 4.61595 5.73764 5.73784C5.28462 6.19086 4.85308 6.65613 4.4447 7.13029C4.96872 7.38391 5.43367 7.74075 5.81317 8.17447C6.17405 7.75972 6.55406 7.35151 6.9527 6.95288C8.23339 5.67238 9.60976 4.57902 11.0001 3.72552C12.3902 4.57902 13.7667 5.67221 15.0472 6.95288C15.446 7.35151 15.8261 7.75972 16.1868 8.17463C16.5663 7.74092 17.0312 7.38391 17.5552 7.13029C17.1469 6.65613 16.7155 6.19086 16.2623 5.73767C15.1406 4.61595 13.9445 3.62515 12.7222 2.79515C13.265 2.54237 13.8046 2.32971 14.3364 2.16035C15.4623 1.80167 16.5216 1.65866 17.3995 1.74644C18.2402 1.83054 18.9123 2.11873 19.3969 2.6033C19.8813 3.08771 20.1697 3.75977 20.2538 4.60068C20.3174 5.23799 20.2588 5.97098 20.0852 6.75566C20.6742 6.84764 21.2238 7.0598 21.7085 7.36595Z" fill="#000"/>
</svg>
