<svg  width="22" height="22" version="1.1" id="Capa_1" xmlns="http://www.w3.org/2000/svg" xmlns:xlink="http://www.w3.org/1999/xlink" x="0px" y="0px"
	 viewBox="0 0 512 512" style="enable-background:new 0 0 512 512;" xml:space="preserve">
<g>
	<g>
		<path d="M60.075,345.339c-1.86-1.87-4.44-2.93-7.07-2.93c-2.63,0-5.21,1.06-7.07,2.93c-1.86,1.86-2.93,4.43-2.93,7.07
			c0,2.63,1.07,5.21,2.93,7.069c1.86,1.86,4.44,2.931,7.07,2.931c2.63-0.001,5.21-1.071,7.07-2.931
			c1.86-1.859,2.93-4.439,2.93-7.069C63.005,349.767,61.935,347.199,60.075,345.339z"/>
	</g>
</g>
<g>
	<g>
		<path d="M511.659,189.197c-1.416-5.339-6.889-8.521-12.228-7.104l-9.438,2.501v-15.542c6.603-3.15,12.262-8.178,16.256-14.687
			c7.086-11.544,7.657-25.645,1.525-37.725l-17.781-35.03V28.007c0-15.439-12.561-27.999-27.999-27.999H50.006
			c-15.439,0-27.999,12.561-27.999,27.999v53.605l-17.782,35.03c-6.131,12.079-5.561,26.181,1.525,37.725
			c3.995,6.509,9.654,11.537,16.257,14.687v15.531l-9.437-2.503c-5.337-1.414-10.813,1.764-12.229,7.103
			c-1.416,5.338,1.764,10.813,7.103,12.229l115.204,30.554l-4.322,16.131c-0.003,0.012-0.006,0.024-0.01,0.036L80.208,390.349
			l-67.613-18.117c-5.336-1.432-10.818,1.736-12.248,7.071c-1.43,5.334,1.736,10.817,7.071,12.247l14.588,3.909v106.535
			c0,5.522,4.477,10,10,10h447.987c5.523,0,10-4.478,10-10V395.455l14.586-3.905c5.335-1.429,8.502-6.911,7.073-12.246
			c-1.429-5.335-6.911-8.5-12.244-7.074l-67.676,18.12l-42.439-158.383l115.263-30.543
			C509.892,200.011,513.074,194.536,511.659,189.197z M42.006,28.007L42.006,28.007c0-4.411,3.589-8,8-8h411.988
			c4.411,0,8,3.589,8,8v9h-62.877c-5.523,0-10,4.478-10,10s4.477,10,10,10h62.877v17H42.006V28.007z M421.995,94.005v27.492
			c0,17.262-14.044,31.306-31.306,31.306h-5.386c-17.262,0-31.306-14.044-31.306-31.306V94.005H421.995z M333.997,94.005v27.492
			c0,17.262-14.044,31.306-31.306,31.306h-5.386c-17.263,0-31.306-14.044-31.306-31.306V94.005H333.997z M246,94.005v27.492
			c0,17.262-14.044,31.306-31.306,31.306h-5.386c-17.263,0-31.306-14.044-31.306-31.306V94.005H246z M158.002,94.005v27.492
			c0,17.262-14.044,31.306-31.306,31.306h-5.386c-17.262,0-31.306-14.044-31.306-31.306V94.005H158.002z M22.795,143.906
			c-3.472-5.657-3.741-12.294-0.737-18.21l16.087-31.689h31.861v27.492c0,17.263-14.044,31.306-31.306,31.306
			C32.064,152.804,26.267,149.561,22.795,143.906z M42.006,491.994v-19.979h49.64c5.523,0,10-4.478,10-10s-4.477-10-10-10h-49.64
			v-51.199l42.685,11.438c0.852,0.229,1.722,0.341,2.588,0.341c1.74,0,3.467-0.454,5-1.34c1.164-0.672,2.167-1.566,2.964-2.616
			l35.781,9.762c-0.455,3.759-0.195,7.608,0.815,11.376c2.074,7.74,7.038,14.21,13.977,18.216c4.623,2.669,9.753,4.032,14.952,4.032
			c2.067,0,4.143-0.224,6.204-0.659c2.221,6.775,6.839,12.79,13.485,16.627c4.623,2.669,9.753,4.032,14.952,4.032
			c2.062,0,4.133-0.223,6.188-0.655c2.3,7.033,7.044,12.896,13.5,16.622c4.357,2.516,9.167,3.855,14.059,4.003H42.006z
			 M152.155,417.013l12-20.784c1.335-2.313,3.492-3.968,6.072-4.659c0.861-0.23,1.735-0.345,2.604-0.345
			c1.732,0,3.443,0.454,4.984,1.344c4.774,2.758,6.417,8.886,3.66,13.661l-12,20.783c-1.335,2.313-3.492,3.969-6.071,4.659
			c-2.58,0.693-5.275,0.336-7.589-0.999c-2.313-1.336-3.967-3.492-4.659-6.071C150.465,422.021,150.82,419.326,152.155,417.013z
			 M186.794,437.012l12-20.783c1.851-3.205,5.218-4.999,8.678-4.999c1.695,0,3.413,0.432,4.983,1.338
			c4.774,2.758,6.417,8.886,3.66,13.661l-12,20.783c-1.336,2.313-3.493,3.969-6.073,4.659c-2.579,0.692-5.274,0.337-7.588-0.999
			C185.68,447.915,184.038,441.787,186.794,437.012z M230.939,491.993c1.766-0.052,3.537-0.256,5.296-0.626
			c0.069,0.21,0.145,0.417,0.218,0.626H230.939z M250.755,446.228l-12,20.783c-1.336,2.313-3.492,3.969-6.072,4.659
			c-2.581,0.692-5.275,0.336-7.588-0.999c-2.313-1.336-3.968-3.492-4.659-6.072c-0.691-2.58-0.338-5.275,0.998-7.588l12-20.783
			c1.851-3.205,5.218-4.999,8.678-4.999c1.695,0,3.413,0.432,4.983,1.338C251.869,435.325,253.512,441.453,250.755,446.228z
			 M285.395,466.227l-12,20.783c-1.336,2.313-3.492,3.969-6.072,4.659c-0.645,0.173-1.297,0.281-1.948,0.324h-1.18v0
			c-1.552-0.083-3.076-0.523-4.462-1.323c-2.313-1.336-3.967-3.492-4.659-6.071c-0.691-2.58-0.336-5.275,0.999-7.589l12-20.783
			c1.851-3.205,5.218-4.998,8.678-4.998c1.692,0,3.407,0.43,4.976,1.333l0.017,0.01C286.511,455.333,288.15,461.455,285.395,466.227
			z M311.755,481.539l-0.058,0.102c-2.743,4.753-8.848,6.396-13.607,3.661l-0.462-0.265l5.086-8.81
			c1.739-3.013,2.888-6.206,3.495-9.446l1.931,1.121C312.884,470.657,314.512,476.763,311.755,481.539z M424.652,412.599
			c0.856,0,1.727-0.111,2.593-0.343l42.749-11.446v91.183h-0.001H328.794c0.077-0.128,0.161-0.248,0.236-0.378l0.058-0.102
			c3.828-6.629,4.819-14.136,3.36-21.105c7.03-2.296,12.888-7.035,16.615-13.49c3.831-6.635,4.823-14.14,3.365-21.106
			c1.82-0.595,3.561-1.351,5.206-2.26l60.016-23.833C419.496,411.532,422.004,412.599,424.652,412.599z M411.14,390.783
			l-38.111,15.136c-0.076-1.599-0.275-3.187-0.602-4.748c7.027-2.298,12.885-7.04,16.633-13.534
			c8.264-14.313,3.342-32.681-10.971-40.944l-41.086-23.721c-4.782-2.762-10.899-1.123-13.66,3.66
			c-2.762,4.783-1.123,10.898,3.66,13.66l41.086,23.721c4.763,2.75,6.4,8.862,3.625,13.67c-1.332,2.308-3.483,3.957-6.056,4.646
			c-2.572,0.69-5.261,0.338-7.569-0.996l-41.086-23.72c-4.783-2.76-10.899-1.123-13.66,3.66c-2.762,4.783-1.123,10.899,3.66,13.66
			l41.086,23.72c4.763,2.75,6.401,8.862,3.694,13.552c-0.015,0.024-0.055,0.094-0.069,0.118c-0.771,1.335-1.821,2.441-3.063,3.277
			l-0.046,0.018c-0.68,0.27-1.31,0.61-1.894,1.002c-0.343,0.134-0.693,0.254-1.054,0.35c-2.572,0.691-5.26,0.336-7.568-0.996
			l-41.086-23.721c-4.782-2.761-10.899-1.124-13.66,3.66c-2.762,4.783-1.123,10.898,3.66,13.66l41.086,23.721
			c4.763,2.75,6.4,8.862,3.651,13.625c-1.334,2.312-3.49,3.963-6.069,4.65c-2.578,0.688-5.269,0.329-7.577-1.011l-26.341-15.299
			c-0.003-0.001-0.005-0.002-0.008-0.004c-0.005-0.003-0.009-0.006-0.014-0.009c0,0,0,0-0.001,0
			c-6.649-3.839-14.171-4.831-21.151-3.363c-2.219-6.779-6.839-12.798-13.488-16.636h-0.001c-6.649-3.839-14.171-4.83-21.151-3.363
			c-2.219-6.779-6.839-12.798-13.488-16.636c-6.65-3.839-14.172-4.831-21.152-3.364c-2.22-6.779-6.839-12.797-13.488-16.635
			c-6.94-4.008-15.025-5.071-22.764-2.997c-7.741,2.074-14.21,7.039-18.215,13.979l-7.859,13.612l-37.841-10.324l35.167-131.245
			l66.696-23.703c6.607-2.348,13.833-1.606,19.825,2.032l26.21,15.914l-20.274,32.702c-8.032,12.955-6.071,29.487,4.769,40.205
			c6.302,6.23,14.566,9.344,22.831,9.344c8.298-0.001,16.597-3.14,22.903-9.414l50.454-50.188
			c3.916-3.896,3.933-10.227,0.038-14.143c-3.896-3.916-10.227-3.932-14.142-0.037l-50.453,50.188
			c-4.836,4.813-12.718,4.823-17.568,0.028c-4.164-4.118-4.917-10.469-1.833-15.445l27.424-44.236
			c5.642-9.1,14.339-15.986,24.49-19.391l18.732-6.282c7.351-2.467,15.443-1.703,22.202,2.092l34.017,19.098L411.14,390.783z
			 M469.993,189.895l-95.517,25.311c-2.568,0.681-4.76,2.354-6.092,4.654c-0.274,0.474-0.497,0.97-0.689,1.475l-19.297-10.835
			c-11.676-6.555-25.655-7.873-38.352-3.614l-18.732,6.282c-12.518,4.198-23.485,12.096-31.46,22.519l-26.649-16.182
			c-11.155-6.772-24.604-8.153-36.901-3.782l-53.713,19.089l1.971-7.355c0.688-2.565,0.326-5.3-1.005-7.599
			c-1.331-2.299-3.522-3.974-6.09-4.655l-95.46-25.317v-17.203c15.565-0.996,29.263-8.957,37.999-20.799
			c9.351,12.676,24.381,20.917,41.306,20.917h5.386c16.925,0,31.956-8.242,41.306-20.917c9.351,12.676,24.381,20.917,41.306,20.917
			h5.386c16.924,0,31.956-8.242,41.306-20.917c9.351,12.676,24.381,20.917,41.306,20.917h5.386c16.924,0,31.956-8.242,41.306-20.917
			c9.351,12.676,24.381,20.917,41.306,20.917h5.386c16.924,0,31.956-8.242,41.306-20.917c8.736,11.843,22.433,19.803,37.999,20.799
			V189.895z M473.3,152.803c-17.263,0-31.306-14.044-31.306-31.306V94.005h31.861l16.087,31.689
			c3.003,5.918,2.735,12.555-0.737,18.211C485.733,149.56,479.936,152.803,473.3,152.803z"/>
	</g>
</g>
<g>
	<g>
		<path d="M466.003,345.338c-1.86-1.87-4.44-2.93-7.07-2.93c-2.63,0-5.21,1.06-7.07,2.93c-1.86,1.86-2.93,4.43-2.93,7.07
			c0,2.63,1.07,5.199,2.93,7.069c1.86,1.86,4.44,2.931,7.07,2.931c2.63,0,5.21-1.07,7.07-2.931c1.86-1.87,2.93-4.439,2.93-7.069
			C468.933,349.766,467.863,347.198,466.003,345.338z"/>
	</g>
</g>
<g>
	<g>
		<path d="M134.913,454.945c-1.86-1.861-4.44-2.931-7.07-2.931c-2.63,0-5.21,1.07-7.07,2.931c-1.86,1.859-2.93,4.439-2.93,7.069
			c0,2.63,1.07,5.21,2.93,7.07c1.86,1.86,4.44,2.93,7.07,2.93c2.64,0,5.21-1.069,7.07-2.93c1.86-1.86,2.93-4.44,2.93-7.07
			C137.843,459.384,136.773,456.804,134.913,454.945z"/>
	</g>
</g>
<g>
	<g>
		<path d="M377.986,39.937c-1.86-1.86-4.44-2.93-7.07-2.93s-5.21,1.069-7.07,2.93c-1.86,1.86-2.93,4.44-2.93,7.07
			s1.07,5.21,2.93,7.069c1.86,1.861,4.44,2.931,7.07,2.931s5.21-1.07,7.07-2.931c1.86-1.859,2.93-4.439,2.93-7.069
			S379.846,41.796,377.986,39.937z"/>
	</g>
</g>
<g>
</g>
<g>
</g>
<g>
</g>
<g>
</g>
<g>
</g>
<g>
</g>
<g>
</g>
<g>
</g>
<g>
</g>
<g>
</g>
<g>
</g>
<g>
</g>
<g>
</g>
<g>
</g>
<g>
</g>
</svg>
