<svg width="22" height="22" viewBox="0 0 22 22" fill="none" xmlns="http://www.w3.org/2000/svg">
<path d="M21.4461 0.552769C20.8185 -0.0734655 19.7879 -0.169641 18.4657 0.274648C17.5265 0.590199 16.572 1.1409 16.0339 1.67784L16.0303 1.68137C16.0046 1.70755 14.7774 2.94642 13.3102 4.42565C11.6893 5.7315 9.23959 5.75953 7.06089 5.78387C6.31778 5.79209 5.61588 5.79998 4.95973 5.85503C3.65029 5.9648 2.41805 6.53531 1.48992 7.46149L1.02871 7.92172L4.20972 13.5624L3.14484 14.6012L7.39762 18.845L8.44921 17.8193L14.1078 20.9726L14.6363 20.4452C15.5848 19.4988 16.1585 18.2428 16.2519 16.9086C16.2902 16.359 16.3059 15.764 16.3222 15.1341C16.3841 12.773 16.4614 9.83903 17.911 8.35443C19.2536 7.01552 20.3184 5.95339 20.3186 5.95339C20.8565 5.41645 21.4086 4.46409 21.7248 3.52684C22.17 2.2074 22.0736 1.179 21.4461 0.552769V0.552769ZM18.9629 1.91853C19.8004 1.62715 20.1815 1.72669 20.2293 1.76529C20.2695 1.81464 20.3694 2.19498 20.0774 3.03068C19.9506 3.39357 19.7836 3.74118 19.6125 4.03541L17.9561 2.38246C18.2509 2.21176 18.5993 2.04509 18.9629 1.91853V1.91853ZM5.59065 14.6151L6.85333 13.3836L6.86022 13.3767C7.10344 13.134 7.42672 13.0004 7.77069 13.0004C8.11466 13.0004 8.43794 13.134 8.68116 13.3767C8.92438 13.6193 9.05827 13.942 9.05827 14.2851C9.05827 14.6268 8.92539 14.9483 8.68419 15.1906L7.41142 16.432L5.59065 14.6151ZM14.6032 15.0894C14.5872 15.7001 14.5722 16.2771 14.5364 16.7892C14.4846 17.5292 14.2187 18.2347 13.7763 18.8225L9.73157 16.5685L9.89002 16.4141L9.89708 16.4072C10.4649 15.8404 10.7778 15.0867 10.7778 14.2853C10.7778 13.4836 10.4649 12.73 9.89708 12.1634C9.32907 11.5966 8.57385 11.2844 7.77069 11.2844C6.96922 11.2844 6.21551 11.5952 5.648 12.1597L5.48283 12.3208L3.1943 8.26296C3.75306 7.86634 4.41274 7.62296 5.10371 7.56505C5.69762 7.51537 6.36925 7.50782 7.08023 7.49976C8.13434 7.48801 9.29594 7.47492 10.4441 7.31227C9.79667 7.96318 9.23185 8.53 8.84919 8.91185L10.0653 10.1252C10.9604 9.23176 16.2049 3.94595 16.6455 3.50149L18.4945 5.34663C18.0615 5.77833 12.9437 10.883 11.9294 11.895L13.1455 13.1085C13.5684 12.6864 14.1734 12.0828 14.8548 11.403C14.6672 12.6448 14.6336 13.9284 14.6032 15.0894ZM4.6827 18.5405L1.21592 22L0 20.7866L3.46678 17.3272L4.6827 18.5405ZM5.61621 19.558L6.83213 20.7714L5.60108 22L4.38499 20.7866L5.61621 19.558ZM2.49088 16.4359L1.25814 17.6662L0.0420501 16.4528L1.27496 15.2225L2.49088 16.4359Z" fill="#000"/>
</svg>
