<svg width="22" height="22" viewBox="0 0 22 22" fill="none" xmlns="http://www.w3.org/2000/svg">
<g clip-path="url(#clip0)">
<path d="M22 11C22 13.9382 20.8558 16.7006 18.7782 18.7782C16.7006 20.8558 13.9382 22 11 22C9.89305 22 8.81111 21.8374 7.7812 21.5238C8.40627 21.1262 9.05231 20.6799 9.71161 20.1915C10.1329 20.2502 10.5628 20.2812 11 20.2812C16.1176 20.2812 20.2812 16.1176 20.2812 11C20.2812 10.5633 20.2502 10.1336 20.1915 9.71262C20.6824 9.05013 21.1279 8.40459 21.524 7.78171C21.8375 8.81145 22 9.89322 22 11ZM13.8682 14.326C11.2649 16.9 8.56908 19.0677 6.25145 20.4483C4.51894 21.4803 3.12212 21.9975 2.07442 21.9975C1.44382 21.9975 0.939774 21.8103 0.564636 21.4354C-0.379166 20.4914 -0.132935 18.7275 1.29578 16.1903C0.449326 14.6126 0 12.8409 0 11C0 8.06184 1.14421 5.29942 3.22182 3.22182C5.29942 1.14421 8.06184 0 11 0C12.8409 0 14.6127 0.449326 16.1905 1.29578C18.7275 -0.132599 20.4914 -0.379166 21.4354 0.564636C22.2801 1.40958 22.1717 2.91583 21.1128 5.04144C20.2875 6.69809 18.939 8.65518 17.1991 10.7247C17.4102 11.0984 17.5312 11.5294 17.5312 11.9883C17.5312 13.4099 16.3748 14.5664 14.9531 14.5664C14.5656 14.5664 14.1982 14.48 13.8682 14.326ZM15.8125 11.9883C15.8125 11.5145 15.427 11.1289 14.9531 11.1289C14.4793 11.1289 14.0938 11.5145 14.0938 11.9883C14.0938 12.4621 14.4793 12.8477 14.9531 12.8477C15.427 12.8477 15.8125 12.4621 15.8125 11.9883ZM17.8287 2.37537C18.1585 2.63754 18.4757 2.91936 18.7782 3.22182C19.0806 3.52428 19.3626 3.84167 19.625 4.17183C20.4352 2.50847 20.3024 1.86259 20.22 1.78001C20.1305 1.69072 19.4504 1.58716 17.8287 2.37537ZM1.71875 11C1.71875 14.201 3.34804 17.028 5.82042 18.6971C7.9138 17.3829 10.3075 15.4275 12.6394 13.1241C12.4703 12.7812 12.375 12.3956 12.375 11.9883C12.375 10.5666 13.5315 9.41016 14.9531 9.41016C15.2892 9.41016 15.6102 9.47545 15.9048 9.59294C17.0111 8.27417 17.964 6.98427 18.6968 5.81908C17.0277 3.34737 14.2005 1.71875 11 1.71875C5.88235 1.71875 1.71875 5.88235 1.71875 11ZM4.17183 19.6245C3.84184 19.3623 3.52428 19.0806 3.22182 18.7782C2.91936 18.4757 2.63737 18.1585 2.3752 17.8287C1.58632 19.4518 1.69106 20.131 1.78001 20.22C1.87099 20.3108 2.55278 20.4113 4.17183 19.6245Z" fill="#000"/>
</g>
<defs>
<clipPath id="clip0">
<rect width="22" height="22" fill="white"/>
</clipPath>
</defs>
</svg>
