<svg width="497" height="327" viewBox="0 0 497 327" fill="none" xmlns="http://www.w3.org/2000/svg">
<g opacity="0.7" filter="url(#filter0_d)">
<mask id="path-1-inside-1" fill="white">
<path fill-rule="evenodd" clip-rule="evenodd" d="M-16.1592 166.416C9.53143 175.252 38.9527 166.289 55.0007 142.761C74.2426 114.55 66.9719 76.0824 38.7612 56.8405C10.5504 37.5986 -27.9175 44.8693 -47.1594 73.0801C-63.0762 96.4158 -60.8518 126.77 -43.6403 147.455C-43.4643 147.182 -43.2644 146.904 -43.0386 146.623C-40.8602 143.903 -37.2614 144.697 -35.8374 146.352C-35.3493 146.919 -36.0285 147.412 -36.757 147.241C-39.8548 146.515 -40.7725 149.635 -39.8335 151.624C-38.8224 152.634 -37.7706 153.614 -36.6787 154.562C-36.4133 153.837 -35.9799 153.071 -35.3391 152.271C-33.1072 149.484 -29.041 150.63 -27.8074 152.509C-27.4134 153.109 -28.1393 153.484 -28.815 153.242C-32.515 151.914 -33.4214 157.238 -30.9766 158.536L-31.1745 158.826C-31.0898 158.884 -31.005 158.943 -30.9199 159.001C-30.2565 159.453 -29.5874 159.891 -28.9131 160.314C-28.6777 159.449 -28.2042 158.521 -27.4202 157.542C-25.1884 154.756 -21.1222 155.902 -19.8886 157.78C-19.4946 158.38 -20.2205 158.756 -20.8962 158.514C-24.1668 157.34 -25.2546 161.364 -23.7744 163.21C-22.7087 163.745 -21.6329 164.247 -20.5484 164.716C-20.2861 163.966 -19.8443 163.172 -19.1789 162.341C-16.9471 159.555 -12.8809 160.7 -11.6473 162.579C-11.2533 163.179 -11.9792 163.555 -12.6549 163.312C-15.1455 162.418 -16.3703 164.539 -16.1592 166.416ZM47.1551 136.176C31.1907 159.582 -0.725012 165.614 -24.1306 149.65C-47.5362 133.685 -53.5685 101.77 -37.6041 78.3639C-21.6396 54.9583 10.2761 48.926 33.6817 64.8904C57.0873 80.8549 63.1196 112.771 47.1551 136.176ZM-31.2381 82.2947C-31.626 82.8633 -31.9987 83.4378 -32.3565 84.0176C-25.7118 84.6841 -19.0009 86.1496 -12.3887 88.4326L-11.0449 86.2171L-3.0705 91.054C-2.98572 90.9076 -2.89842 90.7621 -2.80858 90.6175L-12.0808 85.1113L-12.8099 80.5992L-8.2463 80.3478L-0.94754 88.1648C-0.832492 88.0395 -0.71579 87.9164 -0.597492 87.7954L-6.94471 81.1236L-4.77118 79.0558L1.69361 85.8512C2.1911 85.503 2.7055 85.1846 3.234 84.8967L-0.0612273 75.1868L2.77964 74.2227L5.99828 83.7069C6.16187 83.6537 6.32624 83.6031 6.49131 83.5552L2.69725 72.7096L5.04008 68.7852L8.69693 71.527L9.30237 82.9992C9.47328 82.9807 9.64452 82.9648 9.81602 82.9517L9.19492 72.9582L12.1891 72.7721L12.8248 82.9993C13.9254 83.1188 15.0206 83.3514 16.0927 83.7005L20.6099 74.7199L23.29 76.0679L18.8516 84.8917C19.0018 84.9738 19.1512 85.0585 19.2997 85.1458L24.3105 74.9477L28.7507 73.864L29.3623 78.3935L21.6563 86.8246C21.7873 86.9364 21.916 87.05 22.0426 87.1652L28.6918 79.7524L30.9251 81.7556L24.0743 89.3931C24.743 90.2799 25.313 91.2258 25.7813 92.2137L35.237 89.1687L36.1566 92.0243L26.8123 95.0334C26.8563 95.1994 26.8976 95.3661 26.9363 95.5334L37.6707 91.9656L41.5581 94.3695L38.7594 97.9831L27.3377 98.4068C27.3463 98.5783 27.3522 98.7499 27.3554 98.9216L37.3207 98.4586L37.4599 101.455L27.1889 101.933L27.1761 101.658C27.075 102.328 26.9314 102.995 26.7447 103.654L35.5767 107.253L34.4449 110.031L25.6633 106.453C25.5874 106.606 25.5088 106.758 25.4277 106.909L35.6423 110.959L37.0737 115.3L32.6069 116.268L23.783 109.401C23.6759 109.535 23.5671 109.667 23.4566 109.797L31.1992 115.707L29.682 117.695C33.905 122.841 37.4627 128.332 40.3175 134.027C40.8041 133.39 41.2764 132.737 41.7334 132.067C55.4776 111.916 50.2843 84.4393 30.1337 70.695C9.98319 56.9508 -17.4939 62.1442 -31.2381 82.2947ZM-35.6168 90.1547C-18.572 90.6128 19.5173 100.989 35.4524 138.629L38.215 137.46C21.6441 98.3174 -17.8517 87.6311 -35.5362 87.1558L-35.6168 90.1547ZM-37.4548 94.6583C-20.4005 95.1166 15.9979 104.35 31.9304 141.984L34.693 140.815C18.1194 101.666 -19.6993 92.1343 -37.3742 91.6594L-37.4548 94.6583ZM-38.923 99.8253C-21.853 100.284 12.0082 107.804 27.9363 145.428L30.6989 144.259C14.121 105.1 -21.1832 97.301 -38.8424 96.8264L-38.923 99.8253ZM-39.6384 105.095C-31.076 105.325 -19.1818 106.762 -7.45317 112.816C4.24269 118.854 15.8636 129.529 23.8529 148.401L26.6156 147.231C18.3519 127.711 6.23892 116.509 -6.077 110.151C-18.3602 103.81 -30.7557 102.332 -39.5578 102.096L-39.6384 105.095ZM10.1737 138.545C2.7386 119.903 -16.9302 114.575 -25.1894 114.425C-28.8649 119.813 -27.9733 128.153 -27.068 131.649L-26.4455 132.073C-26.2644 131.678 -26.0097 131.266 -25.6686 130.84C-24.3559 129.201 -22.2844 129.44 -21.1569 130.299C-20.5617 130.752 -21.1698 131.214 -21.9176 131.189C-23.5109 131.135 -24.017 132.805 -23.577 134.03L-21.1138 135.71C-20.9424 135.377 -20.7187 135.033 -20.4353 134.679C-19.0725 132.978 -16.7034 133.433 -15.6281 134.469C-15.1111 134.968 -15.7599 135.326 -16.4698 135.218C-17.9011 135.002 -18.5643 136.402 -18.3636 137.586L-15.7647 139.358C-15.5893 139.005 -15.3551 138.639 -15.0531 138.262C-13.6903 136.561 -11.3212 137.016 -10.2459 138.052C-9.72891 138.551 -10.3777 138.909 -11.0876 138.801C-12.5599 138.579 -13.2195 140.066 -12.9621 141.27L-10.042 143.262C-9.86662 142.908 -9.6324 142.543 -9.33043 142.166C-7.96763 140.464 -5.59849 140.92 -4.5232 141.956C-4.0062 142.454 -4.655 142.812 -5.36485 142.705C-6.83721 142.482 -7.49676 143.969 -7.23936 145.173L-5.45722 146.389C-5.45722 146.389 5.77078 145 10.1737 138.545ZM-18.1541 119.183L-19.193 122.736L-16.1344 124.823L-19.8351 124.933L-20.8741 128.486L-22.1223 125.001L-25.8231 125.111L-22.8938 122.846L-24.142 119.361L-21.0834 121.447L-18.1541 119.183ZM-6.99653 127.765L-5.95758 124.212L-8.88689 126.476L-11.9456 124.39L-10.6973 127.875L-13.6266 130.14L-9.92585 130.03L-8.6776 133.515L-7.63864 129.962L-3.93786 129.852L-6.99653 127.765ZM3.17606 133.731L2.1371 137.285L5.19577 139.371L1.49499 139.481L0.456033 143.035L-0.792216 139.549L-4.49299 139.659L-1.56367 137.395L-2.81192 133.91L0.246739 135.996L3.17606 133.731Z"/>
</mask>
<path fill-rule="evenodd" clip-rule="evenodd" d="M-16.1592 166.416C9.53143 175.252 38.9527 166.289 55.0007 142.761C74.2426 114.55 66.9719 76.0824 38.7612 56.8405C10.5504 37.5986 -27.9175 44.8693 -47.1594 73.0801C-63.0762 96.4158 -60.8518 126.77 -43.6403 147.455C-43.4643 147.182 -43.2644 146.904 -43.0386 146.623C-40.8602 143.903 -37.2614 144.697 -35.8374 146.352C-35.3493 146.919 -36.0285 147.412 -36.757 147.241C-39.8548 146.515 -40.7725 149.635 -39.8335 151.624C-38.8224 152.634 -37.7706 153.614 -36.6787 154.562C-36.4133 153.837 -35.9799 153.071 -35.3391 152.271C-33.1072 149.484 -29.041 150.63 -27.8074 152.509C-27.4134 153.109 -28.1393 153.484 -28.815 153.242C-32.515 151.914 -33.4214 157.238 -30.9766 158.536L-31.1745 158.826C-31.0898 158.884 -31.005 158.943 -30.9199 159.001C-30.2565 159.453 -29.5874 159.891 -28.9131 160.314C-28.6777 159.449 -28.2042 158.521 -27.4202 157.542C-25.1884 154.756 -21.1222 155.902 -19.8886 157.78C-19.4946 158.38 -20.2205 158.756 -20.8962 158.514C-24.1668 157.34 -25.2546 161.364 -23.7744 163.21C-22.7087 163.745 -21.6329 164.247 -20.5484 164.716C-20.2861 163.966 -19.8443 163.172 -19.1789 162.341C-16.9471 159.555 -12.8809 160.7 -11.6473 162.579C-11.2533 163.179 -11.9792 163.555 -12.6549 163.312C-15.1455 162.418 -16.3703 164.539 -16.1592 166.416ZM47.1551 136.176C31.1907 159.582 -0.725012 165.614 -24.1306 149.65C-47.5362 133.685 -53.5685 101.77 -37.6041 78.3639C-21.6396 54.9583 10.2761 48.926 33.6817 64.8904C57.0873 80.8549 63.1196 112.771 47.1551 136.176ZM-31.2381 82.2947C-31.626 82.8633 -31.9987 83.4378 -32.3565 84.0176C-25.7118 84.6841 -19.0009 86.1496 -12.3887 88.4326L-11.0449 86.2171L-3.0705 91.054C-2.98572 90.9076 -2.89842 90.7621 -2.80858 90.6175L-12.0808 85.1113L-12.8099 80.5992L-8.2463 80.3478L-0.94754 88.1648C-0.832492 88.0395 -0.71579 87.9164 -0.597492 87.7954L-6.94471 81.1236L-4.77118 79.0558L1.69361 85.8512C2.1911 85.503 2.7055 85.1846 3.234 84.8967L-0.0612273 75.1868L2.77964 74.2227L5.99828 83.7069C6.16187 83.6537 6.32624 83.6031 6.49131 83.5552L2.69725 72.7096L5.04008 68.7852L8.69693 71.527L9.30237 82.9992C9.47328 82.9807 9.64452 82.9648 9.81602 82.9517L9.19492 72.9582L12.1891 72.7721L12.8248 82.9993C13.9254 83.1188 15.0206 83.3514 16.0927 83.7005L20.6099 74.7199L23.29 76.0679L18.8516 84.8917C19.0018 84.9738 19.1512 85.0585 19.2997 85.1458L24.3105 74.9477L28.7507 73.864L29.3623 78.3935L21.6563 86.8246C21.7873 86.9364 21.916 87.05 22.0426 87.1652L28.6918 79.7524L30.9251 81.7556L24.0743 89.3931C24.743 90.2799 25.313 91.2258 25.7813 92.2137L35.237 89.1687L36.1566 92.0243L26.8123 95.0334C26.8563 95.1994 26.8976 95.3661 26.9363 95.5334L37.6707 91.9656L41.5581 94.3695L38.7594 97.9831L27.3377 98.4068C27.3463 98.5783 27.3522 98.7499 27.3554 98.9216L37.3207 98.4586L37.4599 101.455L27.1889 101.933L27.1761 101.658C27.075 102.328 26.9314 102.995 26.7447 103.654L35.5767 107.253L34.4449 110.031L25.6633 106.453C25.5874 106.606 25.5088 106.758 25.4277 106.909L35.6423 110.959L37.0737 115.3L32.6069 116.268L23.783 109.401C23.6759 109.535 23.5671 109.667 23.4566 109.797L31.1992 115.707L29.682 117.695C33.905 122.841 37.4627 128.332 40.3175 134.027C40.8041 133.39 41.2764 132.737 41.7334 132.067C55.4776 111.916 50.2843 84.4393 30.1337 70.695C9.98319 56.9508 -17.4939 62.1442 -31.2381 82.2947ZM-35.6168 90.1547C-18.572 90.6128 19.5173 100.989 35.4524 138.629L38.215 137.46C21.6441 98.3174 -17.8517 87.6311 -35.5362 87.1558L-35.6168 90.1547ZM-37.4548 94.6583C-20.4005 95.1166 15.9979 104.35 31.9304 141.984L34.693 140.815C18.1194 101.666 -19.6993 92.1343 -37.3742 91.6594L-37.4548 94.6583ZM-38.923 99.8253C-21.853 100.284 12.0082 107.804 27.9363 145.428L30.6989 144.259C14.121 105.1 -21.1832 97.301 -38.8424 96.8264L-38.923 99.8253ZM-39.6384 105.095C-31.076 105.325 -19.1818 106.762 -7.45317 112.816C4.24269 118.854 15.8636 129.529 23.8529 148.401L26.6156 147.231C18.3519 127.711 6.23892 116.509 -6.077 110.151C-18.3602 103.81 -30.7557 102.332 -39.5578 102.096L-39.6384 105.095ZM10.1737 138.545C2.7386 119.903 -16.9302 114.575 -25.1894 114.425C-28.8649 119.813 -27.9733 128.153 -27.068 131.649L-26.4455 132.073C-26.2644 131.678 -26.0097 131.266 -25.6686 130.84C-24.3559 129.201 -22.2844 129.44 -21.1569 130.299C-20.5617 130.752 -21.1698 131.214 -21.9176 131.189C-23.5109 131.135 -24.017 132.805 -23.577 134.03L-21.1138 135.71C-20.9424 135.377 -20.7187 135.033 -20.4353 134.679C-19.0725 132.978 -16.7034 133.433 -15.6281 134.469C-15.1111 134.968 -15.7599 135.326 -16.4698 135.218C-17.9011 135.002 -18.5643 136.402 -18.3636 137.586L-15.7647 139.358C-15.5893 139.005 -15.3551 138.639 -15.0531 138.262C-13.6903 136.561 -11.3212 137.016 -10.2459 138.052C-9.72891 138.551 -10.3777 138.909 -11.0876 138.801C-12.5599 138.579 -13.2195 140.066 -12.9621 141.27L-10.042 143.262C-9.86662 142.908 -9.6324 142.543 -9.33043 142.166C-7.96763 140.464 -5.59849 140.92 -4.5232 141.956C-4.0062 142.454 -4.655 142.812 -5.36485 142.705C-6.83721 142.482 -7.49676 143.969 -7.23936 145.173L-5.45722 146.389C-5.45722 146.389 5.77078 145 10.1737 138.545ZM-18.1541 119.183L-19.193 122.736L-16.1344 124.823L-19.8351 124.933L-20.8741 128.486L-22.1223 125.001L-25.8231 125.111L-22.8938 122.846L-24.142 119.361L-21.0834 121.447L-18.1541 119.183ZM-6.99653 127.765L-5.95758 124.212L-8.88689 126.476L-11.9456 124.39L-10.6973 127.875L-13.6266 130.14L-9.92585 130.03L-8.6776 133.515L-7.63864 129.962L-3.93786 129.852L-6.99653 127.765ZM3.17606 133.731L2.1371 137.285L5.19577 139.371L1.49499 139.481L0.456033 143.035L-0.792216 139.549L-4.49299 139.659L-1.56367 137.395L-2.81192 133.91L0.246739 135.996L3.17606 133.731Z" fill="#DFFDF8"/>
<path d="M-16.1592 166.416L-17.1529 166.528L-17.0822 167.156L-16.4844 167.362L-16.1592 166.416ZM-43.6403 147.455L-44.409 148.095L-43.5377 149.142L-42.7997 147.997L-43.6403 147.455ZM-43.0386 146.623L-42.2582 147.248L-43.0386 146.623ZM-35.8374 146.352L-36.5954 147.004L-35.8374 146.352ZM-36.757 147.241L-36.5288 146.267L-36.5288 146.267L-36.757 147.241ZM-39.8335 151.624L-40.7378 152.051L-40.6634 152.209L-40.5402 152.332L-39.8335 151.624ZM-36.6787 154.562L-37.3344 155.318L-36.2382 156.269L-35.7396 154.906L-36.6787 154.562ZM-35.3391 152.271L-34.5586 152.896L-34.5586 152.896L-35.3391 152.271ZM-27.8074 152.509L-28.6433 153.058L-28.6433 153.058L-27.8074 152.509ZM-28.815 153.242L-28.4773 152.301L-28.4773 152.301L-28.815 153.242ZM-30.9766 158.536L-30.1505 159.1L-29.5209 158.177L-30.5078 157.653L-30.9766 158.536ZM-31.1745 158.826L-32.0006 158.263L-32.5613 159.085L-31.742 159.649L-31.1745 158.826ZM-28.9131 160.314L-29.4446 161.161L-28.302 161.878L-27.9481 160.577L-28.9131 160.314ZM-27.4202 157.542L-28.2007 156.917L-28.2007 156.917L-27.4202 157.542ZM-19.8886 157.78L-20.7245 158.329L-19.8886 157.78ZM-20.8962 158.514L-20.5585 157.572L-20.8962 158.514ZM-23.7744 163.21L-24.5545 163.836L-24.4182 164.006L-24.2234 164.104L-23.7744 163.21ZM-20.5484 164.716L-20.9451 165.634L-19.9589 166.06L-19.6044 165.046L-20.5484 164.716ZM-19.1789 162.341L-19.9594 161.716L-19.9594 161.716L-19.1789 162.341ZM-11.6473 162.579L-10.8114 162.03L-11.6473 162.579ZM-12.6549 163.312L-12.9927 164.253L-12.9927 164.253L-12.6549 163.312ZM-32.3565 84.0176L-33.2075 83.4925L-34.0471 84.853L-32.4563 85.0126L-32.3565 84.0176ZM-12.3887 88.4326L-12.7151 89.3779L-11.9522 89.6413L-11.5337 88.9512L-12.3887 88.4326ZM-11.0449 86.2171L-10.5263 85.3621L-11.3813 84.8435L-11.8999 85.6985L-11.0449 86.2171ZM-3.0705 91.054L-3.58911 91.909L-2.71662 92.4382L-2.20517 91.5552L-3.0705 91.054ZM-2.80858 90.6175L-1.95916 91.1452L-1.42075 90.2786L-2.29798 89.7577L-2.80858 90.6175ZM-12.0808 85.1113L-13.068 85.2708L-12.9935 85.7324L-12.5914 85.9711L-12.0808 85.1113ZM-12.8099 80.5992L-12.865 79.6007L-13.9744 79.6619L-13.7971 80.7587L-12.8099 80.5992ZM-8.2463 80.3478L-7.51538 79.6653L-7.83447 79.3235L-8.30132 79.3493L-8.2463 80.3478ZM-0.94754 88.1648L-1.67846 88.8472L-0.941552 89.6364L-0.211091 88.8412L-0.94754 88.1648ZM-0.597492 87.7954L0.117451 88.4946L0.791859 87.805L0.127019 87.1062L-0.597492 87.7954ZM-6.94471 81.1236L-7.63398 80.3991L-8.35849 81.0884L-7.66922 81.8129L-6.94471 81.1236ZM-4.77118 79.0558L-4.04667 78.3666L-4.73594 77.6421L-5.46045 78.3313L-4.77118 79.0558ZM1.69361 85.8512L0.9691 86.5405L1.56216 87.1639L2.26706 86.6705L1.69361 85.8512ZM3.234 84.8967L3.71247 85.7748L4.45139 85.3721L4.18096 84.5753L3.234 84.8967ZM-0.0612273 75.1868L-0.382594 74.2399L-1.32955 74.5612L-1.00818 75.5082L-0.0612273 75.1868ZM2.77964 74.2227L3.72659 73.9014L3.40523 72.9544L2.45827 73.2758L2.77964 74.2227ZM5.99828 83.7069L5.05132 84.0282L5.36855 84.963L6.30736 84.6579L5.99828 83.7069ZM6.49131 83.5552L6.77031 84.5155L7.78367 84.2211L7.43522 83.225L6.49131 83.5552ZM2.69725 72.7096L1.83862 72.197L1.59895 72.5985L1.75334 73.0398L2.69725 72.7096ZM5.04008 68.7852L5.63996 67.9851L4.75098 67.3186L4.18145 68.2726L5.04008 68.7852ZM8.69693 71.527L9.69554 71.4743L9.6709 71.0074L9.29681 70.7269L8.69693 71.527ZM9.30237 82.9992L8.30376 83.0519L8.35945 84.1071L9.40999 83.9934L9.30237 82.9992ZM9.81602 82.9517L9.8923 83.9488L10.8753 83.8736L10.8141 82.8897L9.81602 82.9517ZM9.19492 72.9582L9.13289 71.9601L8.13482 72.0221L8.19685 73.0202L9.19492 72.9582ZM12.1891 72.7721L13.1872 72.71L13.1252 71.712L12.1271 71.774L12.1891 72.7721ZM12.8248 82.9993L11.8267 83.0613L11.879 83.9024L12.7168 83.9934L12.8248 82.9993ZM16.0927 83.7005L15.7831 84.6514L16.6 84.9174L16.986 84.1499L16.0927 83.7005ZM20.6099 74.7199L21.0593 73.8265L20.1659 73.3771L19.7166 74.2705L20.6099 74.7199ZM23.29 76.0679L24.1834 76.5173L24.6327 75.6239L23.7394 75.1746L23.29 76.0679ZM18.8516 84.8917L17.9583 84.4424L17.524 85.3059L18.3722 85.7693L18.8516 84.8917ZM19.2997 85.1458L18.7929 86.0078L19.722 86.554L20.1972 85.5867L19.2997 85.1458ZM24.3105 74.9477L24.0734 73.9762L23.6191 74.0871L23.4129 74.5067L24.3105 74.9477ZM28.7507 73.864L29.7417 73.7302L29.593 72.6291L28.5136 72.8925L28.7507 73.864ZM29.3623 78.3935L30.1005 79.0681L30.4159 78.723L30.3533 78.2596L29.3623 78.3935ZM21.6563 86.8246L20.9182 86.1499L20.2205 86.9133L21.0069 87.585L21.6563 86.8246ZM22.0426 87.1652L21.3695 87.9047L22.1144 88.5828L22.787 87.8329L22.0426 87.1652ZM28.6918 79.7524L29.3596 79.008L28.6151 78.3403L27.9474 79.0847L28.6918 79.7524ZM30.9251 81.7556L31.6695 82.4233L32.3372 81.6789L31.5928 81.0111L30.9251 81.7556ZM24.0743 89.3931L23.3299 88.7254L22.7803 89.3381L23.2759 89.9952L24.0743 89.3931ZM25.7813 92.2137L24.8776 92.642L25.2531 93.4343L26.0878 93.1655L25.7813 92.2137ZM35.237 89.1687L36.1889 88.8622L35.8824 87.9103L34.9305 88.2169L35.237 89.1687ZM36.1566 92.0243L36.4631 92.9762L37.415 92.6697L37.1084 91.7178L36.1566 92.0243ZM26.8123 95.0334L26.5058 94.0815L25.6029 94.3722L25.8456 95.2892L26.8123 95.0334ZM26.9363 95.5334L25.962 95.7588L26.2095 96.8287L27.2517 96.4823L26.9363 95.5334ZM37.6707 91.9656L38.1967 91.1151L37.799 90.8692L37.3553 91.0167L37.6707 91.9656ZM41.5581 94.3695L42.3487 94.9818L43.029 94.1034L42.084 93.519L41.5581 94.3695ZM38.7594 97.9831L38.7965 98.9824L39.2637 98.965L39.55 98.5954L38.7594 97.9831ZM27.3377 98.4068L27.3006 97.4075L26.2881 97.4451L26.3389 98.457L27.3377 98.4068ZM27.3554 98.9216L26.3556 98.9403L26.3748 99.9683L27.4018 99.9206L27.3554 98.9216ZM37.3207 98.4586L38.3196 98.4122L38.2732 97.4133L37.2742 97.4597L37.3207 98.4586ZM37.4599 101.455L37.5063 102.454L38.5052 102.408L38.4588 101.409L37.4599 101.455ZM27.1889 101.933L26.19 101.979L26.2364 102.978L27.2353 102.932L27.1889 101.933ZM27.1761 101.658L28.1751 101.611L26.1873 101.508L27.1761 101.658ZM26.7447 103.654L25.7825 103.382L25.5387 104.243L26.3674 104.58L26.7447 103.654ZM35.5767 107.253L36.5028 107.63L36.8801 106.704L35.954 106.326L35.5767 107.253ZM34.4449 110.031L34.0676 110.957L34.9937 111.334L35.371 110.408L34.4449 110.031ZM25.6633 106.453L26.0405 105.527L25.1809 105.177L24.7678 106.008L25.6633 106.453ZM25.4277 106.909L24.5467 106.436L24.0158 107.425L25.0591 107.839L25.4277 106.909ZM35.6423 110.959L36.5919 110.646L36.4455 110.202L36.0109 110.03L35.6423 110.959ZM37.0737 115.3L37.2855 116.277L38.3714 116.042L38.0234 114.987L37.0737 115.3ZM32.6069 116.268L31.9927 117.057L32.3617 117.344L32.8186 117.245L32.6069 116.268ZM23.783 109.401L24.3971 108.612L23.6177 108.005L23.0015 108.777L23.783 109.401ZM23.4566 109.797L22.695 109.149L22.0116 109.952L22.8498 110.592L23.4566 109.797ZM31.1992 115.707L31.9941 116.314L32.6009 115.519L31.806 114.912L31.1992 115.707ZM29.682 117.695L28.8871 117.088L28.4069 117.717L28.909 118.329L29.682 117.695ZM40.3175 134.027L39.4235 134.475L40.1406 135.906L41.1121 134.634L40.3175 134.027ZM35.4524 138.629L34.5315 139.019L34.9214 139.94L35.8423 139.55L35.4524 138.629ZM-35.6168 90.1547L-36.6164 90.1279L-36.6433 91.1275L-35.6436 91.1544L-35.6168 90.1547ZM38.215 137.46L38.6049 138.381L39.5258 137.991L39.1359 137.07L38.215 137.46ZM-35.5362 87.1558L-35.5093 86.1562L-36.509 86.1293L-36.5358 87.129L-35.5362 87.1558ZM31.9304 141.984L31.0095 142.374L31.3994 143.295L32.3202 142.905L31.9304 141.984ZM-37.4548 94.6583L-38.4545 94.6314L-38.4813 95.631L-37.4817 95.6579L-37.4548 94.6583ZM34.693 140.815L35.0829 141.736L36.0037 141.346L35.6139 140.425L34.693 140.815ZM-37.3742 91.6594L-37.3474 90.6597L-38.347 90.6329L-38.3739 91.6325L-37.3742 91.6594ZM27.9363 145.428L27.0154 145.818L27.4052 146.739L28.3261 146.349L27.9363 145.428ZM-38.923 99.8253L-39.9226 99.7985L-39.9495 100.798L-38.9499 100.825L-38.923 99.8253ZM30.6989 144.259L31.0888 145.18L32.0096 144.79L31.6198 143.869L30.6989 144.259ZM-38.8424 96.8264L-38.8156 95.8268L-39.8152 95.7999L-39.8421 96.7995L-38.8424 96.8264ZM-7.45317 112.816L-6.99445 111.928L-7.45317 112.816ZM-39.6384 105.095L-40.6381 105.068L-40.6649 106.067L-39.6653 106.094L-39.6384 105.095ZM23.8529 148.401L22.9321 148.79L23.3219 149.711L24.2428 149.321L23.8529 148.401ZM26.6156 147.231L27.0054 148.152L27.9263 147.762L27.5364 146.841L26.6156 147.231ZM-6.077 110.151L-5.61828 109.262L-6.077 110.151ZM-39.5578 102.096L-39.531 101.096L-40.5306 101.069L-40.5575 102.069L-39.5578 102.096ZM-25.1894 114.425L-25.1712 113.425L-25.7112 113.415L-26.0155 113.861L-25.1894 114.425ZM10.1737 138.545L10.9998 139.108L11.2997 138.669L11.1026 138.174L10.1737 138.545ZM-27.068 131.649L-28.0361 131.899L-27.9419 132.263L-27.6315 132.475L-27.068 131.649ZM-26.4455 132.073L-27.0089 132.899L-26.0296 133.567L-25.5362 132.49L-26.4455 132.073ZM-25.6686 130.84L-26.4491 130.215L-26.4491 130.215L-25.6686 130.84ZM-21.1569 130.299L-21.7629 131.094L-21.7629 131.094L-21.1569 130.299ZM-21.9176 131.189L-21.884 130.189L-21.884 130.189L-21.9176 131.189ZM-23.577 134.03L-24.5181 134.368L-24.4084 134.673L-24.1405 134.856L-23.577 134.03ZM-21.1138 135.71L-21.6773 136.536L-20.7425 137.174L-20.2247 136.167L-21.1138 135.71ZM-20.4353 134.679L-21.2158 134.054L-21.2158 134.054L-20.4353 134.679ZM-15.6281 134.469L-16.3219 135.19L-16.3219 135.19L-15.6281 134.469ZM-16.4698 135.218L-16.6193 136.207L-16.6193 136.207L-16.4698 135.218ZM-18.3636 137.586L-19.3496 137.753L-19.2785 138.172L-18.9271 138.412L-18.3636 137.586ZM-15.7647 139.358L-16.3282 140.184L-15.3795 140.832L-14.869 139.803L-15.7647 139.358ZM-15.0531 138.262L-15.8336 137.637L-15.8336 137.637L-15.0531 138.262ZM-10.2459 138.052L-9.55206 137.332L-9.55206 137.332L-10.2459 138.052ZM-11.0876 138.801L-10.938 137.812L-10.938 137.812L-11.0876 138.801ZM-12.9621 141.27L-13.9399 141.479L-13.8562 141.871L-13.5255 142.096L-12.9621 141.27ZM-10.042 143.262L-10.6055 144.088L-9.65679 144.735L-9.14625 143.706L-10.042 143.262ZM-9.33043 142.166L-8.54996 142.791L-8.54995 142.791L-9.33043 142.166ZM-4.5232 141.956L-3.82936 141.236L-3.82937 141.236L-4.5232 141.956ZM-5.36485 142.705L-5.21533 141.716L-5.21534 141.716L-5.36485 142.705ZM-7.23936 145.173L-8.21726 145.382L-8.13356 145.774L-7.80285 145.999L-7.23936 145.173ZM-5.45722 146.389L-6.02071 147.215L-5.70897 147.428L-5.33447 147.381L-5.45722 146.389ZM-19.193 122.736L-20.1528 122.456L-20.3567 123.153L-19.7565 123.562L-19.193 122.736ZM-18.1541 119.183L-17.1942 119.463L-16.3306 116.509L-18.7656 118.391L-18.1541 119.183ZM-16.1344 124.823L-16.1046 125.822L-13.0283 125.731L-15.5709 123.996L-16.1344 124.823ZM-19.8351 124.933L-19.8649 123.933L-20.5911 123.955L-20.795 124.652L-19.8351 124.933ZM-20.8741 128.486L-21.8155 128.823L-20.7779 131.721L-19.9143 128.767L-20.8741 128.486ZM-22.1223 125.001L-21.1809 124.663L-21.4258 123.979L-22.1521 124.001L-22.1223 125.001ZM-25.8231 125.111L-26.4347 124.319L-28.8697 126.202L-25.7934 126.11L-25.8231 125.111ZM-22.8938 122.846L-22.2822 123.638L-21.7074 123.193L-21.9524 122.509L-22.8938 122.846ZM-24.142 119.361L-23.5786 118.535L-26.1211 116.8L-25.0835 119.698L-24.142 119.361ZM-21.0834 121.447L-21.6469 122.273L-21.0466 122.682L-20.4718 122.238L-21.0834 121.447ZM-5.95758 124.212L-4.99776 124.492L-4.13411 121.538L-6.56915 123.421L-5.95758 124.212ZM-6.99653 127.765L-7.95635 127.485L-8.16023 128.182L-7.56002 128.592L-6.99653 127.765ZM-8.88689 126.476L-9.45037 127.302L-8.85016 127.712L-8.27532 127.267L-8.88689 126.476ZM-11.9456 124.39L-11.3821 123.564L-13.9246 121.829L-12.887 124.727L-11.9456 124.39ZM-10.6973 127.875L-10.0857 128.667L-9.51091 128.222L-9.75585 127.538L-10.6973 127.875ZM-13.6266 130.14L-14.2382 129.349L-16.6732 131.231L-13.5969 131.139L-13.6266 130.14ZM-9.92585 130.03L-8.9844 129.693L-9.22935 129.009L-9.95557 129.03L-9.92585 130.03ZM-8.6776 133.515L-9.61905 133.853L-8.58143 136.75L-7.71779 133.796L-8.6776 133.515ZM-7.63864 129.962L-7.66836 128.962L-8.39458 128.984L-8.59846 129.681L-7.63864 129.962ZM-3.93786 129.852L-3.90814 130.851L-0.83182 130.76L-3.37438 129.026L-3.93786 129.852ZM2.1371 137.285L1.17728 137.005L0.973406 137.702L1.57362 138.111L2.1371 137.285ZM3.17606 133.731L4.13589 134.012L4.99953 131.058L2.5645 132.94L3.17606 133.731ZM5.19577 139.371L5.22549 140.371L8.30181 140.279L5.75925 138.545L5.19577 139.371ZM1.49499 139.481L1.46527 138.482L0.739056 138.503L0.535175 139.201L1.49499 139.481ZM0.456033 143.035L-0.485416 143.372L0.552204 146.27L1.41585 143.316L0.456033 143.035ZM-0.792216 139.549L0.149234 139.212L-0.0957122 138.528L-0.821935 138.55L-0.792216 139.549ZM-4.49299 139.659L-5.10456 138.868L-7.5396 140.75L-4.46327 140.659L-4.49299 139.659ZM-1.56367 137.395L-0.952108 138.186L-0.377274 137.742L-0.622225 137.058L-1.56367 137.395ZM-2.81192 133.91L-2.24844 133.083L-4.791 131.349L-3.75337 134.247L-2.81192 133.91ZM0.246739 135.996L-0.316744 136.822L0.28347 137.231L0.858306 136.787L0.246739 135.996ZM54.1746 142.198C38.3869 165.344 9.44157 174.164 -15.8339 165.471L-16.4844 167.362C9.6213 176.34 39.5185 167.234 55.8268 143.325L54.1746 142.198ZM38.1977 57.6667C65.9522 76.5974 73.1053 114.443 54.1746 142.198L55.8268 143.325C75.3799 114.658 67.9916 75.5675 39.3246 56.0144L38.1977 57.6667ZM-46.3333 73.6435C-27.4026 45.8891 10.4432 38.736 38.1977 57.6667L39.3246 56.0144C10.6576 36.4613 -28.4325 43.8496 -47.9856 72.5166L-46.3333 73.6435ZM-42.8716 146.815C-59.8051 126.464 -61.9918 96.6006 -46.3333 73.6435L-47.9856 72.5166C-64.1606 96.2309 -61.8985 127.075 -44.409 148.095L-42.8716 146.815ZM-43.8191 145.997C-44.065 146.304 -44.2852 146.61 -44.4809 146.913L-42.7997 147.997C-42.6435 147.754 -42.4638 147.504 -42.2582 147.248L-43.8191 145.997ZM-35.0793 145.7C-35.9895 144.642 -37.5134 143.925 -39.1067 143.848C-40.7421 143.769 -42.5087 144.361 -43.8191 145.997L-42.2582 147.248C-41.3902 146.164 -40.2682 145.794 -39.2035 145.846C-38.0968 145.899 -37.1093 146.407 -36.5954 147.004L-35.0793 145.7ZM-36.9853 148.214C-36.3824 148.356 -35.6811 148.257 -35.1873 147.83C-34.9245 147.603 -34.6974 147.254 -34.6741 146.806C-34.6509 146.361 -34.8372 145.981 -35.0793 145.7L-36.5954 147.004C-36.5935 147.006 -36.6817 146.901 -36.6714 146.702C-36.6609 146.501 -36.5576 146.371 -36.4947 146.317C-36.4383 146.268 -36.4067 146.268 -36.4293 146.272C-36.4464 146.276 -36.4822 146.278 -36.5288 146.267L-36.9853 148.214ZM-38.9292 151.197C-39.2767 150.461 -39.2636 149.518 -38.9263 148.884C-38.7675 148.586 -38.5492 148.375 -38.2763 148.256C-38.0032 148.137 -37.5913 148.072 -36.9853 148.214L-36.5288 146.267C-37.4717 146.046 -38.3362 146.1 -39.077 146.423C-39.818 146.747 -40.3513 147.305 -40.6918 147.944C-41.353 149.187 -41.3293 150.798 -40.7378 152.051L-38.9292 151.197ZM-36.0231 153.807C-37.0974 152.875 -38.1321 151.91 -39.1268 150.917L-40.5402 152.332C-39.5127 153.358 -38.4439 154.354 -37.3344 155.318L-36.0231 153.807ZM-36.1195 151.646C-36.8173 152.517 -37.3096 153.376 -37.6179 154.219L-35.7396 154.906C-35.517 154.297 -35.1426 153.625 -34.5586 152.896L-36.1195 151.646ZM-26.9715 151.96C-27.7859 150.72 -29.409 149.847 -31.0804 149.647C-32.8017 149.442 -34.7461 149.931 -36.1195 151.646L-34.5586 152.896C-33.7002 151.824 -32.4956 151.493 -31.3174 151.633C-30.0893 151.78 -29.0626 152.419 -28.6433 153.058L-26.9715 151.96ZM-29.1528 154.183C-28.5898 154.385 -27.9034 154.374 -27.3713 154.034C-27.0881 153.853 -26.8111 153.546 -26.7231 153.107C-26.6351 152.668 -26.7703 152.266 -26.9715 151.96L-28.6433 153.058C-28.6475 153.051 -28.7258 152.922 -28.6841 152.714C-28.6425 152.507 -28.5153 152.391 -28.4489 152.349C-28.3882 152.31 -28.3594 152.315 -28.3838 152.316C-28.4025 152.317 -28.437 152.315 -28.4773 152.301L-29.1528 154.183ZM-30.5078 157.653C-31.1628 157.305 -31.545 156.24 -31.2394 155.182C-31.0996 154.698 -30.8446 154.361 -30.5515 154.189C-30.285 154.033 -29.8518 153.932 -29.1528 154.183L-28.4773 152.301C-29.6283 151.888 -30.6959 151.955 -31.5635 152.464C-32.4045 152.957 -32.9171 153.783 -33.1608 154.627C-33.6222 156.224 -33.2352 158.469 -31.4454 159.419L-30.5078 157.653ZM-30.3483 159.39L-30.1505 159.1L-31.8027 157.973L-32.0006 158.263L-30.3483 159.39ZM-30.3564 158.175C-30.4401 158.117 -30.5236 158.06 -30.6069 158.003L-31.742 159.649C-31.656 159.709 -31.5698 159.768 -31.4834 159.827L-30.3564 158.175ZM-28.3815 159.467C-29.0451 159.051 -29.7035 158.62 -30.3564 158.175L-31.4834 159.827C-30.8095 160.286 -30.1298 160.731 -29.4446 161.161L-28.3815 159.467ZM-28.2007 156.917C-29.0543 157.983 -29.6006 159.031 -29.878 160.052L-27.9481 160.577C-27.7549 159.866 -27.3541 159.059 -26.6398 158.168L-28.2007 156.917ZM-19.0527 157.231C-19.8671 155.991 -21.4902 155.118 -23.1616 154.919C-24.8829 154.714 -26.8273 155.203 -28.2007 156.917L-26.6398 158.168C-25.7814 157.096 -24.5768 156.764 -23.3986 156.905C-22.1705 157.052 -21.1437 157.691 -20.7245 158.329L-19.0527 157.231ZM-21.234 159.455C-20.671 159.657 -19.9846 159.646 -19.4525 159.305C-19.1693 159.124 -18.8923 158.818 -18.8043 158.379C-18.7162 157.939 -18.8515 157.538 -19.0527 157.231L-20.7245 158.329C-20.7287 158.323 -20.8069 158.194 -20.7653 157.986C-20.7237 157.778 -20.5965 157.663 -20.5301 157.621C-20.4694 157.582 -20.4406 157.586 -20.465 157.588C-20.4837 157.589 -20.5182 157.587 -20.5585 157.572L-21.234 159.455ZM-22.9942 162.584C-23.4644 161.998 -23.57 160.942 -23.2066 160.143C-23.0373 159.771 -22.797 159.527 -22.5255 159.405C-22.2654 159.289 -21.8568 159.231 -21.234 159.455L-20.5585 157.572C-21.5709 157.209 -22.5248 157.214 -23.3423 157.58C-24.1483 157.94 -24.7007 158.598 -25.0271 159.315C-25.6552 160.696 -25.5646 162.576 -24.5545 163.836L-22.9942 162.584ZM-20.1517 163.798C-21.2186 163.337 -22.2769 162.843 -23.3254 162.316L-24.2234 164.104C-23.1404 164.648 -22.0472 165.158 -20.9451 165.634L-20.1517 163.798ZM-19.9594 161.716C-20.6838 162.62 -21.187 163.512 -21.4924 164.386L-19.6044 165.046C-19.3853 164.419 -19.0048 163.723 -18.3984 162.966L-19.9594 161.716ZM-10.8114 162.03C-11.6258 160.79 -13.2489 159.917 -14.9203 159.718C-16.6416 159.512 -18.586 160.001 -19.9594 161.716L-18.3984 162.966C-17.54 161.895 -16.3354 161.563 -15.1572 161.704C-13.9292 161.85 -12.9024 162.49 -12.4832 163.128L-10.8114 162.03ZM-12.9927 164.253C-12.4297 164.456 -11.7432 164.444 -11.2111 164.104C-10.928 163.923 -10.651 163.617 -10.563 163.177C-10.4749 162.738 -10.6102 162.337 -10.8114 162.03L-12.4832 163.128C-12.4874 163.122 -12.5656 162.992 -12.524 162.784C-12.4824 162.577 -12.3552 162.462 -12.2888 162.419C-12.2281 162.38 -12.1992 162.385 -12.2237 162.387C-12.2424 162.388 -12.2769 162.385 -12.3171 162.371L-12.9927 164.253ZM-15.1654 166.305C-15.2462 165.587 -15.038 164.893 -14.6788 164.496C-14.388 164.175 -13.8983 163.928 -12.9927 164.253L-12.3171 162.371C-13.9021 161.802 -15.2702 162.169 -16.1616 163.154C-16.9847 164.063 -17.2833 165.369 -17.1529 166.528L-15.1654 166.305ZM-24.6941 150.476C-0.832238 166.751 31.7056 160.602 47.9813 136.74L46.329 135.613C30.6758 158.562 -0.617787 164.477 -23.5671 148.824L-24.6941 150.476ZM-38.4302 77.8004C-54.7058 101.662 -48.556 134.2 -24.6941 150.476L-23.5671 148.824C-46.5165 133.17 -52.4312 101.877 -36.7779 78.9274L-38.4302 77.8004ZM34.2452 64.0643C10.3833 47.7887 -22.1546 53.9385 -38.4302 77.8004L-36.7779 78.9274C-21.1247 55.978 10.1689 50.0633 33.1182 65.7166L34.2452 64.0643ZM47.9813 136.74C64.2569 112.878 58.107 80.3399 34.2452 64.0643L33.1182 65.7166C56.0676 81.3698 61.9822 112.663 46.329 135.613L47.9813 136.74ZM-31.5055 84.5427C-31.1557 83.9759 -30.7913 83.4142 -30.412 82.8582L-32.0643 81.7312C-32.4607 82.3124 -32.8418 82.8997 -33.2075 83.4925L-31.5055 84.5427ZM-12.0623 87.4874C-18.7469 85.1794 -25.5339 83.6969 -32.2567 83.0226L-32.4563 85.0126C-25.8898 85.6712 -19.2548 87.1198 -12.7151 89.3779L-12.0623 87.4874ZM-11.8999 85.6985L-13.2437 87.914L-11.5337 88.9512L-10.1899 86.7357L-11.8999 85.6985ZM-2.55189 90.199L-10.5263 85.3621L-11.5635 87.0721L-3.58911 91.909L-2.55189 90.199ZM-3.65799 90.0898C-3.75329 90.2431 -3.84589 90.3975 -3.93583 90.5528L-2.20517 91.5552C-2.12554 91.4177 -2.04354 91.281 -1.95916 91.1452L-3.65799 90.0898ZM-12.5914 85.9711L-3.31917 91.4773L-2.29798 89.7577L-11.5703 84.2514L-12.5914 85.9711ZM-13.7971 80.7587L-13.068 85.2708L-11.0937 84.9517L-11.8227 80.4397L-13.7971 80.7587ZM-8.30132 79.3493L-12.865 79.6007L-12.7549 81.5977L-8.19128 81.3462L-8.30132 79.3493ZM-0.216621 87.4823L-7.51538 79.6653L-8.97722 81.0302L-1.67846 88.8472L-0.216621 87.4823ZM-1.31244 87.0963C-1.43802 87.2247 -1.56189 87.3553 -1.68399 87.4883L-0.211091 88.8412C-0.103096 88.7237 0.00643417 88.6081 0.117451 88.4946L-1.31244 87.0963ZM-7.66922 81.8129L-1.322 88.4847L0.127019 87.1062L-6.2202 80.4344L-7.66922 81.8129ZM-5.46045 78.3313L-7.63398 80.3991L-6.25545 81.8481L-4.08192 79.7803L-5.46045 78.3313ZM2.41812 85.162L-4.04667 78.3666L-5.49569 79.7451L0.9691 86.5405L2.41812 85.162ZM2.75554 84.0186C2.19451 84.3243 1.64839 84.6622 1.12016 85.032L2.26706 86.6705C2.73381 86.3438 3.21649 86.045 3.71247 85.7748L2.75554 84.0186ZM-1.00818 75.5082L2.28705 85.218L4.18096 84.5753L0.885727 74.8655L-1.00818 75.5082ZM2.45827 73.2758L-0.382594 74.2399L0.260139 76.1338L3.101 75.1697L2.45827 73.2758ZM6.94523 83.3855L3.72659 73.9014L1.83268 74.5441L5.05132 84.0282L6.94523 83.3855ZM6.21232 82.5949C6.03719 82.6458 5.86279 82.6994 5.68919 82.7558L6.30736 84.6579C6.46095 84.608 6.61529 84.5605 6.77031 84.5155L6.21232 82.5949ZM1.75334 73.0398L5.5474 83.8854L7.43522 83.225L3.64117 72.3794L1.75334 73.0398ZM4.18145 68.2726L1.83862 72.197L3.55589 73.2222L5.89871 69.2978L4.18145 68.2726ZM9.29681 70.7269L5.63996 67.9851L4.4402 69.5853L8.09705 72.3271L9.29681 70.7269ZM10.301 82.9465L9.69554 71.4743L7.69832 71.5797L8.30376 83.0519L10.301 82.9465ZM9.73975 81.9546C9.55776 81.9686 9.37607 81.9853 9.19475 82.005L9.40999 83.9934C9.57048 83.976 9.73128 83.9611 9.8923 83.9488L9.73975 81.9546ZM8.19685 73.0202L8.81795 83.0138L10.8141 82.8897L10.193 72.8961L8.19685 73.0202ZM12.1271 71.774L9.13289 71.9601L9.25695 73.9562L12.2512 73.7701L12.1271 71.774ZM13.8228 82.9372L13.1872 72.71L11.1911 72.8341L11.8267 83.0613L13.8228 82.9372ZM16.4023 82.7496C15.2638 82.379 14.101 82.132 12.9327 82.0051L12.7168 83.9934C13.7497 84.1056 14.7773 84.3239 15.7831 84.6514L16.4023 82.7496ZM19.7166 74.2705L15.1993 83.2512L16.986 84.1499L21.5033 75.1692L19.7166 74.2705ZM23.7394 75.1746L21.0593 73.8265L20.1606 75.6132L22.8406 76.9613L23.7394 75.1746ZM19.745 85.3411L24.1834 76.5173L22.3966 75.6186L17.9583 84.4424L19.745 85.3411ZM19.8065 84.2837C19.649 84.1911 19.4905 84.1012 19.3311 84.0142L18.3722 85.7693C18.5132 85.8464 18.6535 85.9259 18.7929 86.0078L19.8065 84.2837ZM23.4129 74.5067L18.4022 84.7048L20.1972 85.5867L25.208 75.3887L23.4129 74.5067ZM28.5136 72.8925L24.0734 73.9762L24.5476 75.9192L28.9878 74.8355L28.5136 72.8925ZM30.3533 78.2596L29.7417 73.7302L27.7597 73.9978L28.3713 78.5273L30.3533 78.2596ZM22.3945 87.4992L30.1005 79.0681L28.6242 77.7188L20.9182 86.1499L22.3945 87.4992ZM22.7158 86.4257C22.5814 86.3034 22.4447 86.1828 22.3058 86.0642L21.0069 87.585C21.1298 87.69 21.2507 87.7966 21.3695 87.9047L22.7158 86.4257ZM27.9474 79.0847L21.2982 86.4975L22.787 87.8329L29.4362 80.4201L27.9474 79.0847ZM31.5928 81.0111L29.3596 79.008L28.0241 80.4968L30.2573 82.5L31.5928 81.0111ZM24.8187 90.0608L31.6695 82.4233L30.1807 81.0878L23.3299 88.7254L24.8187 90.0608ZM26.6849 91.7854C26.1879 90.7368 25.5827 89.7326 24.8727 88.791L23.2759 89.9952C23.9032 90.8271 24.4381 91.7147 24.8776 92.642L26.6849 91.7854ZM34.9305 88.2169L25.4747 91.2618L26.0878 93.1655L35.5435 90.1206L34.9305 88.2169ZM37.1084 91.7178L36.1889 88.8622L34.2851 89.4752L35.2047 92.3308L37.1084 91.7178ZM27.1188 95.9852L36.4631 92.9762L35.8501 91.0725L26.5058 94.0815L27.1188 95.9852ZM27.9106 95.308C27.8695 95.1305 27.8257 94.9537 27.779 94.7775L25.8456 95.2892C25.8869 95.4451 25.9257 95.6017 25.962 95.7588L27.9106 95.308ZM37.3553 91.0167L26.6209 94.5844L27.2517 96.4823L37.9861 92.9146L37.3553 91.0167ZM42.084 93.519L38.1967 91.1151L37.1448 92.8161L41.0321 95.22L42.084 93.519ZM39.55 98.5954L42.3487 94.9818L40.7675 93.7572L37.9688 97.3707L39.55 98.5954ZM27.3747 99.4061L38.7965 98.9824L38.7223 96.9837L27.3006 97.4075L27.3747 99.4061ZM28.3552 98.9029C28.3518 98.7207 28.3455 98.5386 28.3364 98.3567L26.3389 98.457C26.347 98.6179 26.3526 98.7791 26.3556 98.9403L28.3552 98.9029ZM37.2742 97.4597L27.309 97.9227L27.4018 99.9206L37.3671 99.4575L37.2742 97.4597ZM38.4588 101.409L38.3196 98.4122L36.3217 98.505L36.461 101.502L38.4588 101.409ZM27.2353 102.932L37.5063 102.454L37.4135 100.456L27.1425 100.934L27.2353 102.932ZM26.1772 101.704L26.19 101.979L28.1878 101.886L28.1751 101.611L26.1772 101.704ZM27.7069 103.927C27.9051 103.227 28.0576 102.518 28.1649 101.807L26.1873 101.508C26.0924 102.137 25.9577 102.763 25.7825 103.382L27.7069 103.927ZM35.954 106.326L27.122 102.728L26.3674 104.58L35.1995 108.179L35.954 106.326ZM35.371 110.408L36.5028 107.63L34.6507 106.875L33.5188 109.654L35.371 110.408ZM25.286 107.379L34.0676 110.957L34.8222 109.105L26.0405 105.527L25.286 107.379ZM26.3088 107.382C26.3949 107.222 26.4782 107.06 26.5587 106.898L24.7678 106.008C24.6965 106.151 24.6228 106.294 24.5467 106.436L26.3088 107.382ZM36.0109 110.03L25.7963 105.979L25.0591 107.839L35.2736 111.889L36.0109 110.03ZM38.0234 114.987L36.5919 110.646L34.6926 111.273L36.1241 115.613L38.0234 114.987ZM32.8186 117.245L37.2855 116.277L36.862 114.323L32.3951 115.291L32.8186 117.245ZM23.1688 110.19L31.9927 117.057L33.221 115.479L24.3971 108.612L23.1688 110.19ZM24.2182 110.445C24.3354 110.307 24.4509 110.167 24.5644 110.025L23.0015 108.777C22.901 108.903 22.7988 109.027 22.695 109.149L24.2182 110.445ZM31.806 114.912L24.0634 109.002L22.8498 110.592L30.5925 116.502L31.806 114.912ZM30.4769 118.302L31.9941 116.314L30.4043 115.1L28.8871 117.088L30.4769 118.302ZM41.2115 133.579C38.3229 127.817 34.7245 122.264 30.4551 117.06L28.909 118.329C33.0854 123.419 36.6024 128.847 39.4235 134.475L41.2115 133.579ZM40.9073 131.503C40.4604 132.159 39.9987 132.798 39.5229 133.42L41.1121 134.634C41.6096 133.983 42.0924 133.315 42.5595 132.63L40.9073 131.503ZM29.5702 71.5212C49.2645 84.9542 54.3403 111.809 40.9073 131.503L42.5595 132.63C56.6149 112.024 51.304 83.9243 30.6972 69.8689L29.5702 71.5212ZM-30.412 82.8582C-16.979 63.1639 9.87597 58.0882 29.5702 71.5212L30.6972 69.8689C10.0904 55.8135 -18.0088 61.1244 -32.0643 81.7312L-30.412 82.8582ZM36.3733 138.24C20.2263 100.099 -18.3315 89.6189 -35.5899 89.1551L-35.6436 91.1544C-18.8125 91.6067 18.8082 101.879 34.5315 139.019L36.3733 138.24ZM37.8252 136.539L35.0626 137.709L35.8423 139.55L38.6049 138.381L37.8252 136.539ZM-35.563 88.1555C-18.0914 88.625 20.9353 99.2081 37.2942 137.85L39.1359 137.07C22.3529 97.4266 -17.612 86.6371 -35.5093 86.1562L-35.563 88.1555ZM-34.6171 90.1816L-34.5365 87.1827L-36.5358 87.129L-36.6164 90.1279L-34.6171 90.1816ZM32.8513 141.594C16.7052 103.456 -20.1663 94.1225 -37.428 93.6586L-37.4817 95.6579C-20.6346 96.1106 15.2907 105.244 31.0095 142.374L32.8513 141.594ZM34.3032 139.894L31.5405 141.063L32.3202 142.905L35.0829 141.736L34.3032 139.894ZM-37.4011 92.659C-19.9326 93.1284 17.4124 102.561 33.7721 141.205L35.6139 140.425C18.8265 100.771 -19.466 91.1402 -37.3474 90.6597L-37.4011 92.659ZM-36.4552 94.6851L-36.3746 91.6862L-38.3739 91.6325L-38.4545 94.6314L-36.4552 94.6851ZM28.8571 145.039C12.7126 106.903 -21.6292 99.2897 -38.8961 98.8257L-38.9499 100.825C-22.0767 101.278 11.3037 108.706 27.0154 145.818L28.8571 145.039ZM30.309 143.338L27.5464 144.508L28.3261 146.349L31.0888 145.18L30.309 143.338ZM-38.8693 97.826C-21.406 98.2953 13.4168 106.002 29.778 144.649L31.6198 143.869C14.8251 104.198 -20.9604 96.3066 -38.8156 95.8268L-38.8693 97.826ZM-37.9234 99.8522L-37.8428 96.8533L-39.8421 96.7995L-39.9226 99.7985L-37.9234 99.8522ZM-6.99445 111.928C-18.9079 105.778 -30.9692 104.327 -39.6116 104.095L-39.6653 106.094C-31.1827 106.322 -19.4557 107.746 -7.91189 113.705L-6.99445 111.928ZM24.7738 148.011C16.693 128.923 4.9081 118.072 -6.99445 111.928L-7.91189 113.705C3.57728 119.636 15.0342 130.135 22.9321 148.79L24.7738 148.011ZM26.2257 146.31L23.4631 147.48L24.2428 149.321L27.0054 148.152L26.2257 146.31ZM-6.53572 111.039C5.5735 117.291 17.5225 128.317 25.6947 147.621L27.5364 146.841C19.1813 127.105 6.90433 115.727 -5.61828 109.262L-6.53572 111.039ZM-39.5847 103.095C-30.8624 103.33 -18.634 104.794 -6.53572 111.039L-5.61828 109.262C-18.0863 102.826 -30.6489 101.335 -39.531 101.096L-39.5847 103.095ZM-38.6388 105.121L-38.5582 102.123L-40.5575 102.069L-40.6381 105.068L-38.6388 105.121ZM-25.2076 115.424C-21.236 115.497 -14.4096 116.826 -7.67064 120.432C-0.94828 124.029 5.63397 129.862 9.24486 138.915L11.1026 138.174C7.27833 128.586 0.308614 122.434 -6.72702 118.669C-13.7461 114.913 -20.8836 113.503 -25.1712 113.425L-25.2076 115.424ZM-26.0999 131.398C-26.5299 129.737 -26.9666 126.876 -26.8472 123.785C-26.7275 120.683 -26.0522 117.464 -24.3633 114.988L-26.0155 113.861C-28.0021 116.774 -28.7188 120.419 -28.8457 123.708C-28.9731 127.007 -28.5114 130.064 -28.0361 131.899L-26.0999 131.398ZM-25.882 131.247L-26.5045 130.822L-27.6315 132.475L-27.0089 132.899L-25.882 131.247ZM-26.4491 130.215C-26.8348 130.697 -27.1352 131.178 -27.3547 131.657L-25.5362 132.49C-25.3936 132.178 -25.1847 131.836 -24.8881 131.465L-26.4491 130.215ZM-20.5509 129.503C-21.993 128.405 -24.7119 128.046 -26.4491 130.215L-24.8881 131.465C-24 130.357 -22.5759 130.475 -21.7629 131.094L-20.5509 129.503ZM-21.9513 132.188C-21.4219 132.206 -20.7687 132.067 -20.331 131.635C-20.0859 131.393 -19.8587 130.994 -19.9292 130.493C-19.995 130.026 -20.2895 129.702 -20.5509 129.503L-21.7629 131.094C-21.7267 131.122 -21.874 131.026 -21.9097 130.772C-21.9502 130.484 -21.8102 130.285 -21.7362 130.212C-21.6735 130.15 -21.6417 130.152 -21.6924 130.168C-21.7333 130.18 -21.8007 130.192 -21.884 130.189L-21.9513 132.188ZM-22.6359 133.692C-22.7751 133.304 -22.7513 132.86 -22.6083 132.563C-22.5419 132.424 -22.4596 132.336 -22.3746 132.282C-22.2943 132.231 -22.1659 132.181 -21.9513 132.188L-21.884 130.189C-23.1104 130.148 -23.9838 130.807 -24.4113 131.697C-24.8097 132.527 -24.8189 133.531 -24.5181 134.368L-22.6359 133.692ZM-20.5503 134.884L-23.0135 133.204L-24.1405 134.856L-21.6773 136.536L-20.5503 134.884ZM-21.2158 134.054C-21.5362 134.454 -21.7978 134.854 -22.0029 135.252L-20.2247 136.167C-20.087 135.9 -19.9012 135.612 -19.6549 135.304L-21.2158 134.054ZM-14.9343 133.749C-15.6613 133.049 -16.7623 132.587 -17.8896 132.548C-19.0498 132.509 -20.3066 132.919 -21.2158 134.054L-19.6549 135.304C-19.2013 134.738 -18.592 134.525 -17.9581 134.547C-17.2914 134.57 -16.6702 134.854 -16.3219 135.19L-14.9343 133.749ZM-16.6193 136.207C-16.1158 136.283 -15.4709 136.229 -14.9927 135.874C-14.7258 135.676 -14.4378 135.315 -14.4417 134.804C-14.4454 134.327 -14.7045 133.971 -14.9343 133.749L-16.3219 135.19C-16.2932 135.217 -16.4395 135.093 -16.4416 134.819C-16.444 134.512 -16.2656 134.328 -16.185 134.268C-16.1148 134.216 -16.0839 134.222 -16.1356 134.231C-16.177 134.238 -16.2427 134.241 -16.3202 134.229L-16.6193 136.207ZM-17.3777 137.419C-17.4412 137.044 -17.3564 136.667 -17.2013 136.438C-17.1298 136.333 -17.0537 136.273 -16.9811 136.239C-16.9127 136.208 -16.8016 136.179 -16.6193 136.207L-16.3202 134.229C-17.4435 134.06 -18.3359 134.549 -18.8561 135.315C-19.3402 136.028 -19.4868 136.943 -19.3496 137.753L-17.3777 137.419ZM-15.2012 138.532L-17.8002 136.76L-18.9271 138.412L-16.3282 140.184L-15.2012 138.532ZM-15.8336 137.637C-16.1751 138.063 -16.4497 138.489 -16.6604 138.914L-14.869 139.803C-14.729 139.521 -14.5352 139.215 -14.2727 138.887L-15.8336 137.637ZM-9.55206 137.332C-10.2791 136.632 -11.3801 136.17 -12.5074 136.131C-13.6676 136.092 -14.9243 136.502 -15.8336 137.637L-14.2727 138.887C-13.8191 138.321 -13.2098 138.109 -12.5759 138.13C-11.9092 138.153 -11.288 138.437 -10.9397 138.773L-9.55206 137.332ZM-11.2371 139.79C-10.7336 139.866 -10.0887 139.812 -9.6105 139.457C-9.34359 139.259 -9.05557 138.899 -9.05951 138.387C-9.06319 137.91 -9.32227 137.554 -9.55206 137.332L-10.9397 138.773C-10.911 138.8 -11.0573 138.676 -11.0594 138.402C-11.0618 138.095 -10.8834 137.911 -10.8028 137.851C-10.7326 137.799 -10.7017 137.805 -10.7534 137.814C-10.7947 137.821 -10.8605 137.824 -10.938 137.812L-11.2371 139.79ZM-11.9842 141.061C-12.0644 140.685 -11.9898 140.287 -11.8314 140.04C-11.7584 139.926 -11.6795 139.861 -11.6055 139.826C-11.5366 139.792 -11.4241 139.762 -11.2371 139.79L-10.938 137.812C-12.0976 137.637 -13.0046 138.164 -13.5156 138.961C-13.9907 139.703 -14.1171 140.651 -13.9399 141.479L-11.9842 141.061ZM-9.4785 142.436L-12.3986 140.444L-13.5255 142.096L-10.6055 144.088L-9.4785 142.436ZM-10.1109 141.54C-10.4524 141.967 -10.727 142.392 -10.9377 142.817L-9.14625 143.706C-9.00628 143.424 -8.81245 143.118 -8.54996 142.791L-10.1109 141.54ZM-3.82937 141.236C-4.55637 140.535 -5.65736 140.073 -6.78475 140.035C-7.94495 139.995 -9.20165 140.405 -10.1109 141.54L-8.54995 142.791C-8.09641 142.224 -7.48714 142.012 -6.85324 142.034C-6.18654 142.056 -5.56532 142.34 -5.21703 142.676L-3.82937 141.236ZM-5.51436 143.693C-5.01091 143.769 -4.36603 143.715 -3.8878 143.36C-3.62088 143.162 -3.33286 142.802 -3.3368 142.29C-3.34049 141.813 -3.59958 141.457 -3.82936 141.236L-5.21704 142.676C-5.18832 142.704 -5.33464 142.579 -5.33675 142.306C-5.33912 141.998 -5.16073 141.814 -5.08012 141.754C-5.00988 141.702 -4.97899 141.709 -5.03072 141.717C-5.07205 141.725 -5.13779 141.728 -5.21533 141.716L-5.51436 143.693ZM-6.26147 144.964C-6.34173 144.589 -6.26707 144.191 -6.10869 143.943C-6.03567 143.829 -5.95678 143.764 -5.88285 143.729C-5.81386 143.696 -5.70139 143.665 -5.51435 143.693L-5.21534 141.716C-6.37493 141.54 -7.2819 142.067 -7.79284 142.865C-8.26798 143.606 -8.3944 144.554 -8.21726 145.382L-6.26147 144.964ZM-4.89374 145.563L-6.67588 144.347L-7.80285 145.999L-6.02071 147.215L-4.89374 145.563ZM9.34758 137.981C7.33249 140.936 3.68141 142.808 0.382069 143.942C-1.24669 144.502 -2.74492 144.867 -3.83585 145.092C-4.38056 145.204 -4.82173 145.281 -5.12441 145.329C-5.27571 145.353 -5.39226 145.371 -5.46968 145.381C-5.50839 145.387 -5.5373 145.391 -5.55586 145.393C-5.56515 145.395 -5.57184 145.395 -5.57589 145.396C-5.57791 145.396 -5.57927 145.396 -5.57995 145.396C-5.58029 145.396 -5.58047 145.396 -5.58047 145.396L-5.58035 145.396C-5.58019 145.396 -5.57998 145.396 -5.45722 146.389C-5.33447 147.381 -5.33418 147.381 -5.33384 147.381C-5.33367 147.381 -5.33329 147.381 -5.33295 147.381C-5.33227 147.381 -5.33143 147.381 -5.33041 147.381C-5.32836 147.381 -5.32564 147.38 -5.32225 147.38C-5.31547 147.379 -5.30599 147.378 -5.2939 147.376C-5.26971 147.373 -5.23503 147.368 -5.19043 147.362C-5.10123 147.349 -4.97225 147.33 -4.80793 147.304C-4.47939 147.251 -4.00897 147.169 -3.43225 147.05C-2.28035 146.813 -0.696392 146.427 1.03222 145.833C4.44761 144.659 8.612 142.609 10.9998 139.108L9.34758 137.981ZM-18.2332 123.017L-17.1942 119.463L-19.1139 118.902L-20.1528 122.456L-18.2332 123.017ZM-15.5709 123.996L-18.6295 121.91L-19.7565 123.562L-16.6978 125.649L-15.5709 123.996ZM-19.8054 125.932L-16.1046 125.822L-16.1641 123.823L-19.8649 123.933L-19.8054 125.932ZM-19.9143 128.767L-18.8753 125.213L-20.795 124.652L-21.8339 128.206L-19.9143 128.767ZM-23.0638 125.338L-21.8155 128.823L-19.9326 128.149L-21.1809 124.663L-23.0638 125.338ZM-25.7934 126.11L-22.0926 126L-22.1521 124.001L-25.8528 124.111L-25.7934 126.11ZM-23.5054 122.055L-26.4347 124.319L-25.2115 125.902L-22.2822 123.638L-23.5054 122.055ZM-25.0835 119.698L-23.8353 123.183L-21.9524 122.509L-23.2006 119.024L-25.0835 119.698ZM-20.5199 120.621L-23.5786 118.535L-24.7055 120.187L-21.6469 122.273L-20.5199 120.621ZM-18.7656 118.391L-21.6949 120.656L-20.4718 122.238L-17.5425 119.974L-18.7656 118.391ZM-6.91739 123.931L-7.95635 127.485L-6.03672 128.046L-4.99776 124.492L-6.91739 123.931ZM-8.27532 127.267L-5.346 125.003L-6.56915 123.421L-9.49846 125.685L-8.27532 127.267ZM-12.509 125.216L-9.45037 127.302L-8.32341 125.65L-11.3821 123.564L-12.509 125.216ZM-9.75585 127.538L-11.0041 124.053L-12.887 124.727L-11.6388 128.213L-9.75585 127.538ZM-13.0151 130.931L-10.0857 128.667L-11.3089 127.084L-14.2382 129.349L-13.0151 130.931ZM-9.95557 129.03L-13.6564 129.14L-13.5969 131.139L-9.89613 131.029L-9.95557 129.03ZM-7.73616 133.178L-8.9844 129.693L-10.8673 130.367L-9.61905 133.853L-7.73616 133.178ZM-8.59846 129.681L-9.63742 133.235L-7.71779 133.796L-6.67882 130.242L-8.59846 129.681ZM-3.96758 128.852L-7.66836 128.962L-7.60892 130.961L-3.90814 130.851L-3.96758 128.852ZM-7.56002 128.592L-4.50134 130.678L-3.37438 129.026L-6.43305 126.939L-7.56002 128.592ZM3.09693 137.566L4.13589 134.012L2.21624 133.451L1.17728 137.005L3.09693 137.566ZM5.75925 138.545L2.70059 136.459L1.57362 138.111L4.63229 140.198L5.75925 138.545ZM1.52471 140.481L5.22549 140.371L5.16605 138.372L1.46527 138.482L1.52471 140.481ZM1.41585 143.316L2.45481 139.762L0.535175 139.201L-0.503785 142.754L1.41585 143.316ZM-1.73367 139.887L-0.485416 143.372L1.39748 142.698L0.149234 139.212L-1.73367 139.887ZM-4.46327 140.659L-0.762496 140.549L-0.821935 138.55L-4.52271 138.66L-4.46327 140.659ZM-2.17524 136.604L-5.10456 138.868L-3.88143 140.451L-0.952108 138.186L-2.17524 136.604ZM-3.75337 134.247L-2.50512 137.732L-0.622225 137.058L-1.87047 133.572L-3.75337 134.247ZM0.810221 135.17L-2.24844 133.083L-3.37541 134.736L-0.316744 136.822L0.810221 135.17ZM2.5645 132.94L-0.364828 135.205L0.858306 136.787L3.78763 134.523L2.5645 132.94Z" fill="#B8FFF8" mask="url(#path-1-inside-1)"/>
</g>
<path d="M356.244 8.936H351.092V5.9H365.122V8.936H359.97V22H356.244V8.936ZM378.197 15.859C378.197 15.905 378.174 16.227 378.128 16.825H368.767C368.936 17.5917 369.334 18.1973 369.963 18.642C370.592 19.0867 371.374 19.309 372.309 19.309C372.953 19.309 373.52 19.217 374.011 19.033C374.517 18.8337 374.985 18.527 375.414 18.113L377.323 20.183C376.158 21.517 374.456 22.184 372.217 22.184C370.822 22.184 369.587 21.9157 368.514 21.379C367.441 20.827 366.613 20.068 366.03 19.102C365.447 18.136 365.156 17.0397 365.156 15.813C365.156 14.6017 365.44 13.513 366.007 12.547C366.59 11.5657 367.379 10.8067 368.376 10.27C369.388 9.718 370.515 9.442 371.757 9.442C372.968 9.442 374.065 9.70267 375.046 10.224C376.027 10.7453 376.794 11.4967 377.346 12.478C377.913 13.444 378.197 14.571 378.197 15.859ZM371.78 12.156C370.967 12.156 370.285 12.386 369.733 12.846C369.181 13.306 368.844 13.9347 368.721 14.732H374.816C374.693 13.95 374.356 13.329 373.804 12.869C373.252 12.3937 372.577 12.156 371.78 12.156ZM387.026 22.184C385.707 22.184 384.519 21.9157 383.461 21.379C382.418 20.827 381.598 20.068 381 19.102C380.417 18.136 380.126 17.0397 380.126 15.813C380.126 14.5863 380.417 13.49 381 12.524C381.598 11.558 382.418 10.8067 383.461 10.27C384.519 9.718 385.707 9.442 387.026 9.442C388.329 9.442 389.464 9.718 390.43 10.27C391.411 10.8067 392.124 11.581 392.569 12.593L389.786 14.088C389.142 12.9533 388.214 12.386 387.003 12.386C386.067 12.386 385.293 12.6927 384.68 13.306C384.066 13.9193 383.76 14.755 383.76 15.813C383.76 16.871 384.066 17.7067 384.68 18.32C385.293 18.9333 386.067 19.24 387.003 19.24C388.229 19.24 389.157 18.6727 389.786 17.538L392.569 19.056C392.124 20.0373 391.411 20.804 390.43 21.356C389.464 21.908 388.329 22.184 387.026 22.184ZM402.526 9.442C404.059 9.442 405.293 9.902 406.229 10.822C407.179 11.742 407.655 13.1067 407.655 14.916V22H404.067V15.468C404.067 14.4867 403.852 13.7583 403.423 13.283C402.993 12.7923 402.372 12.547 401.56 12.547C400.655 12.547 399.934 12.8307 399.398 13.398C398.861 13.95 398.593 14.778 398.593 15.882V22H395.005V4.934H398.593V10.914C399.068 10.4387 399.643 10.0783 400.318 9.833C400.992 9.57233 401.728 9.442 402.526 9.442ZM418.888 9.442C420.421 9.442 421.656 9.902 422.591 10.822C423.542 11.742 424.017 13.1067 424.017 14.916V22H420.429V15.468C420.429 14.4867 420.214 13.7583 419.785 13.283C419.356 12.7923 418.735 12.547 417.922 12.547C417.017 12.547 416.297 12.8307 415.76 13.398C415.223 13.95 414.955 14.778 414.955 15.882V22H411.367V9.626H414.794V11.075C415.269 10.5537 415.86 10.155 416.565 9.879C417.27 9.58767 418.045 9.442 418.888 9.442ZM433.752 22.184C432.449 22.184 431.276 21.9157 430.233 21.379C429.206 20.827 428.401 20.068 427.818 19.102C427.236 18.136 426.944 17.0397 426.944 15.813C426.944 14.5863 427.236 13.49 427.818 12.524C428.401 11.558 429.206 10.8067 430.233 10.27C431.276 9.718 432.449 9.442 433.752 9.442C435.056 9.442 436.221 9.718 437.248 10.27C438.276 10.8067 439.081 11.558 439.663 12.524C440.246 13.49 440.537 14.5863 440.537 15.813C440.537 17.0397 440.246 18.136 439.663 19.102C439.081 20.068 438.276 20.827 437.248 21.379C436.221 21.9157 435.056 22.184 433.752 22.184ZM433.752 19.24C434.672 19.24 435.424 18.9333 436.006 18.32C436.604 17.6913 436.903 16.8557 436.903 15.813C436.903 14.7703 436.604 13.9423 436.006 13.329C435.424 12.7003 434.672 12.386 433.752 12.386C432.832 12.386 432.073 12.7003 431.475 13.329C430.877 13.9423 430.578 14.7703 430.578 15.813C430.578 16.8557 430.877 17.6913 431.475 18.32C432.073 18.9333 432.832 19.24 433.752 19.24ZM443.395 4.934H446.983V22H443.395V4.934ZM456.661 22.184C455.358 22.184 454.185 21.9157 453.142 21.379C452.115 20.827 451.31 20.068 450.727 19.102C450.145 18.136 449.853 17.0397 449.853 15.813C449.853 14.5863 450.145 13.49 450.727 12.524C451.31 11.558 452.115 10.8067 453.142 10.27C454.185 9.718 455.358 9.442 456.661 9.442C457.965 9.442 459.13 9.718 460.157 10.27C461.185 10.8067 461.99 11.558 462.572 12.524C463.155 13.49 463.446 14.5863 463.446 15.813C463.446 17.0397 463.155 18.136 462.572 19.102C461.99 20.068 461.185 20.827 460.157 21.379C459.13 21.9157 457.965 22.184 456.661 22.184ZM456.661 19.24C457.581 19.24 458.333 18.9333 458.915 18.32C459.513 17.6913 459.812 16.8557 459.812 15.813C459.812 14.7703 459.513 13.9423 458.915 13.329C458.333 12.7003 457.581 12.386 456.661 12.386C455.741 12.386 454.982 12.7003 454.384 13.329C453.786 13.9423 453.487 14.7703 453.487 15.813C453.487 16.8557 453.786 17.6913 454.384 18.32C454.982 18.9333 455.741 19.24 456.661 19.24ZM479.07 9.626V19.93C479.07 22.1993 478.479 23.886 477.299 24.99C476.118 26.094 474.393 26.646 472.124 26.646C470.928 26.646 469.793 26.5003 468.72 26.209C467.646 25.9177 466.757 25.496 466.052 24.944L467.478 22.368C467.999 22.7973 468.658 23.1347 469.456 23.38C470.253 23.6407 471.05 23.771 471.848 23.771C473.09 23.771 474.002 23.4873 474.585 22.92C475.183 22.368 475.482 21.5247 475.482 20.39V19.861C474.546 20.8883 473.243 21.402 471.572 21.402C470.437 21.402 469.394 21.1567 468.444 20.666C467.508 20.16 466.765 19.4547 466.213 18.55C465.661 17.6453 465.385 16.6027 465.385 15.422C465.385 14.2413 465.661 13.1987 466.213 12.294C466.765 11.3893 467.508 10.6917 468.444 10.201C469.394 9.695 470.437 9.442 471.572 9.442C473.366 9.442 474.73 10.0323 475.666 11.213V9.626H479.07ZM472.285 18.458C473.235 18.458 474.01 18.182 474.608 17.63C475.221 17.0627 475.528 16.3267 475.528 15.422C475.528 14.5173 475.221 13.789 474.608 13.237C474.01 12.6697 473.235 12.386 472.285 12.386C471.334 12.386 470.552 12.6697 469.939 13.237C469.325 13.789 469.019 14.5173 469.019 15.422C469.019 16.3267 469.325 17.0627 469.939 17.63C470.552 18.182 471.334 18.458 472.285 18.458ZM495.151 9.626L489.562 22.759C488.995 24.185 488.29 25.1893 487.446 25.772C486.618 26.3547 485.614 26.646 484.433 26.646C483.789 26.646 483.153 26.5463 482.524 26.347C481.896 26.1477 481.382 25.8717 480.983 25.519L482.294 22.966C482.57 23.2113 482.885 23.403 483.237 23.541C483.605 23.679 483.966 23.748 484.318 23.748C484.809 23.748 485.208 23.6253 485.514 23.38C485.821 23.15 486.097 22.759 486.342 22.207L486.388 22.092L481.029 9.626H484.732L488.205 18.021L491.701 9.626H495.151Z" fill="white" fill-opacity="0.15"/>
<path d="M102.165 140.31V143.455H107.673V145.665H102.165V150H99.411V138.1H108.404V140.31H102.165ZM119.403 140.854V150H116.887V148.912C116.536 149.309 116.116 149.615 115.629 149.83C115.142 150.034 114.615 150.136 114.048 150.136C112.847 150.136 111.895 149.79 111.192 149.099C110.489 148.408 110.138 147.382 110.138 146.022V140.854H112.79V145.631C112.79 147.104 113.408 147.841 114.643 147.841C115.278 147.841 115.788 147.637 116.173 147.229C116.558 146.81 116.751 146.192 116.751 145.376V140.854H119.403ZM128.099 149.558C127.838 149.751 127.515 149.898 127.13 150C126.756 150.091 126.359 150.136 125.94 150.136C124.852 150.136 124.008 149.858 123.407 149.303C122.818 148.748 122.523 147.932 122.523 146.855V143.098H121.112V141.058H122.523V138.831H125.175V141.058H127.453V143.098H125.175V146.821C125.175 147.206 125.271 147.507 125.464 147.722C125.668 147.926 125.951 148.028 126.314 148.028C126.733 148.028 127.09 147.915 127.385 147.688L128.099 149.558ZM139.142 140.854V150H136.626V148.912C136.274 149.309 135.855 149.615 135.368 149.83C134.88 150.034 134.353 150.136 133.787 150.136C132.585 150.136 131.633 149.79 130.931 149.099C130.228 148.408 129.877 147.382 129.877 146.022V140.854H132.529V145.631C132.529 147.104 133.146 147.841 134.382 147.841C135.016 147.841 135.526 147.637 135.912 147.229C136.297 146.81 136.49 146.192 136.49 145.376V140.854H139.142ZM144.471 142.061C144.789 141.619 145.214 141.285 145.746 141.058C146.29 140.831 146.914 140.718 147.616 140.718V143.166C147.322 143.143 147.123 143.132 147.021 143.132C146.262 143.132 145.667 143.347 145.236 143.778C144.806 144.197 144.59 144.832 144.59 145.682V150H141.938V140.854H144.471V142.061ZM158.409 145.461C158.409 145.495 158.392 145.733 158.358 146.175H151.439C151.564 146.742 151.859 147.189 152.323 147.518C152.788 147.847 153.366 148.011 154.057 148.011C154.533 148.011 154.953 147.943 155.315 147.807C155.689 147.66 156.035 147.433 156.352 147.127L157.763 148.657C156.902 149.643 155.644 150.136 153.989 150.136C152.958 150.136 152.046 149.938 151.252 149.541C150.459 149.133 149.847 148.572 149.416 147.858C148.986 147.144 148.77 146.334 148.77 145.427C148.77 144.532 148.98 143.727 149.399 143.013C149.83 142.288 150.414 141.727 151.15 141.33C151.898 140.922 152.731 140.718 153.649 140.718C154.545 140.718 155.355 140.911 156.08 141.296C156.806 141.681 157.372 142.237 157.78 142.962C158.2 143.676 158.409 144.509 158.409 145.461ZM153.666 142.724C153.066 142.724 152.561 142.894 152.153 143.234C151.745 143.574 151.496 144.039 151.405 144.628H155.91C155.82 144.05 155.57 143.591 155.162 143.251C154.754 142.9 154.256 142.724 153.666 142.724Z" fill="white" fill-opacity="0.3"/>
<path d="M28.237 276.7H34.555V304H28.237V276.7ZM54.1379 282.706C56.7379 282.706 58.8309 283.486 60.4169 285.046C62.0289 286.606 62.8349 288.92 62.8349 291.988V304H56.7509V292.924C56.7509 291.26 56.3869 290.025 55.6589 289.219C54.9309 288.387 53.8779 287.971 52.4999 287.971C50.9659 287.971 49.7439 288.452 48.8339 289.414C47.9239 290.35 47.4689 291.754 47.4689 293.626V304H41.3849V283.018H47.1959V285.475C48.0019 284.591 49.0029 283.915 50.1989 283.447C51.3949 282.953 52.7079 282.706 54.1379 282.706ZM81.8827 282.706C84.4827 282.706 86.5757 283.486 88.1617 285.046C89.7737 286.606 90.5797 288.92 90.5797 291.988V304H84.4957V292.924C84.4957 291.26 84.1317 290.025 83.4037 289.219C82.6757 288.387 81.6227 287.971 80.2447 287.971C78.7107 287.971 77.4887 288.452 76.5787 289.414C75.6687 290.35 75.2137 291.754 75.2137 293.626V304H69.1297V283.018H74.9407V285.475C75.7467 284.591 76.7477 283.915 77.9437 283.447C79.1397 282.953 80.4527 282.706 81.8827 282.706ZM107.087 304.312C104.877 304.312 102.888 303.857 101.12 302.947C99.3781 302.011 98.0131 300.724 97.0251 299.086C96.0371 297.448 95.5431 295.589 95.5431 293.509C95.5431 291.429 96.0371 289.57 97.0251 287.932C98.0131 286.294 99.3781 285.02 101.12 284.11C102.888 283.174 104.877 282.706 107.087 282.706C109.297 282.706 111.273 283.174 113.015 284.11C114.757 285.02 116.122 286.294 117.11 287.932C118.098 289.57 118.592 291.429 118.592 293.509C118.592 295.589 118.098 297.448 117.11 299.086C116.122 300.724 114.757 302.011 113.015 302.947C111.273 303.857 109.297 304.312 107.087 304.312ZM107.087 299.32C108.647 299.32 109.921 298.8 110.909 297.76C111.923 296.694 112.43 295.277 112.43 293.509C112.43 291.741 111.923 290.337 110.909 289.297C109.921 288.231 108.647 287.698 107.087 287.698C105.527 287.698 104.24 288.231 103.226 289.297C102.212 290.337 101.705 291.741 101.705 293.509C101.705 295.277 102.212 296.694 103.226 297.76C104.24 298.8 105.527 299.32 107.087 299.32ZM143.693 283.018L134.84 304H128.561L119.747 283.018H126.026L131.837 297.292L137.843 283.018H143.693ZM154.734 282.706C157.984 282.706 160.48 283.486 162.222 285.046C163.964 286.58 164.835 288.907 164.835 292.027V304H159.141V301.387C157.997 303.337 155.865 304.312 152.745 304.312C151.133 304.312 149.729 304.039 148.533 303.493C147.363 302.947 146.466 302.193 145.842 301.231C145.218 300.269 144.906 299.177 144.906 297.955C144.906 296.005 145.634 294.471 147.09 293.353C148.572 292.235 150.847 291.676 153.915 291.676H158.751C158.751 290.35 158.348 289.336 157.542 288.634C156.736 287.906 155.527 287.542 153.915 287.542C152.797 287.542 151.692 287.724 150.6 288.088C149.534 288.426 148.624 288.894 147.87 289.492L145.686 285.241C146.83 284.435 148.195 283.811 149.781 283.369C151.393 282.927 153.044 282.706 154.734 282.706ZM154.266 300.217C155.306 300.217 156.229 299.983 157.035 299.515C157.841 299.021 158.413 298.306 158.751 297.37V295.225H154.578C152.082 295.225 150.834 296.044 150.834 297.682C150.834 298.462 151.133 299.086 151.731 299.554C152.355 299.996 153.2 300.217 154.266 300.217ZM184.654 302.986C184.056 303.428 183.315 303.766 182.431 304C181.573 304.208 180.663 304.312 179.701 304.312C177.205 304.312 175.268 303.675 173.89 302.401C172.538 301.127 171.862 299.255 171.862 296.785V288.166H168.625V283.486H171.862V278.377H177.946V283.486H183.172V288.166H177.946V296.707C177.946 297.591 178.167 298.28 178.609 298.774C179.077 299.242 179.727 299.476 180.559 299.476C181.521 299.476 182.34 299.216 183.016 298.696L184.654 302.986ZM188.849 283.018H194.933V304H188.849V283.018ZM191.891 280.093C190.773 280.093 189.863 279.768 189.161 279.118C188.459 278.468 188.108 277.662 188.108 276.7C188.108 275.738 188.459 274.932 189.161 274.282C189.863 273.632 190.773 273.307 191.891 273.307C193.009 273.307 193.919 273.619 194.621 274.243C195.323 274.867 195.674 275.647 195.674 276.583C195.674 277.597 195.323 278.442 194.621 279.118C193.919 279.768 193.009 280.093 191.891 280.093ZM211.344 304.312C209.134 304.312 207.145 303.857 205.377 302.947C203.635 302.011 202.27 300.724 201.282 299.086C200.294 297.448 199.8 295.589 199.8 293.509C199.8 291.429 200.294 289.57 201.282 287.932C202.27 286.294 203.635 285.02 205.377 284.11C207.145 283.174 209.134 282.706 211.344 282.706C213.554 282.706 215.53 283.174 217.272 284.11C219.014 285.02 220.379 286.294 221.367 287.932C222.355 289.57 222.849 291.429 222.849 293.509C222.849 295.589 222.355 297.448 221.367 299.086C220.379 300.724 219.014 302.011 217.272 302.947C215.53 303.857 213.554 304.312 211.344 304.312ZM211.344 299.32C212.904 299.32 214.178 298.8 215.166 297.76C216.18 296.694 216.687 295.277 216.687 293.509C216.687 291.741 216.18 290.337 215.166 289.297C214.178 288.231 212.904 287.698 211.344 287.698C209.784 287.698 208.497 288.231 207.483 289.297C206.469 290.337 205.962 291.741 205.962 293.509C205.962 295.277 206.469 296.694 207.483 297.76C208.497 298.8 209.784 299.32 211.344 299.32ZM240.448 282.706C243.048 282.706 245.141 283.486 246.727 285.046C248.339 286.606 249.145 288.92 249.145 291.988V304H243.061V292.924C243.061 291.26 242.697 290.025 241.969 289.219C241.241 288.387 240.188 287.971 238.81 287.971C237.276 287.971 236.054 288.452 235.144 289.414C234.234 290.35 233.779 291.754 233.779 293.626V304H227.695V283.018H233.506V285.475C234.312 284.591 235.313 283.915 236.509 283.447C237.705 282.953 239.018 282.706 240.448 282.706Z" fill="white" fill-opacity="0.15"/>
<defs>
<filter id="filter0_d" x="-89" y="15" width="185.841" height="185.841" filterUnits="userSpaceOnUse" color-interpolation-filters="sRGB">
<feFlood flood-opacity="0" result="BackgroundImageFix"/>
<feColorMatrix in="SourceAlpha" type="matrix" values="0 0 0 0 0 0 0 0 0 0 0 0 0 0 0 0 0 0 127 0"/>
<feOffset/>
<feGaussianBlur stdDeviation="3.5"/>
<feColorMatrix type="matrix" values="0 0 0 0 0.584314 0 0 0 0 0.996078 0 0 0 0 0.952941 0 0 0 1 0"/>
<feBlend mode="normal" in2="BackgroundImageFix" result="effect1_dropShadow"/>
<feBlend mode="normal" in="SourceGraphic" in2="effect1_dropShadow" result="shape"/>
</filter>
</defs>
</svg>
